G04 #@! TF.GenerationSoftware,KiCad,Pcbnew,(5.99.0-6951-g72beaf1538)*
G04 #@! TF.CreationDate,2020-12-13T17:26:36+11:00*
G04 #@! TF.ProjectId,ATM90E26_Breakout,41544d39-3045-4323-965f-427265616b6f,rev?*
G04 #@! TF.SameCoordinates,Original*
G04 #@! TF.FileFunction,Copper,L1,Top*
G04 #@! TF.FilePolarity,Positive*
%FSLAX46Y46*%
G04 Gerber Fmt 4.6, Leading zero omitted, Abs format (unit mm)*
G04 Created by KiCad (PCBNEW (5.99.0-6951-g72beaf1538)) date 2020-12-13 17:26:36*
%MOMM*%
%LPD*%
G01*
G04 APERTURE LIST*
G04 Aperture macros list*
%AMRoundRect*
0 Rectangle with rounded corners*
0 $1 Rounding radius*
0 $2 $3 $4 $5 $6 $7 $8 $9 X,Y pos of 4 corners*
0 Add a 4 corners polygon primitive as box body*
4,1,4,$2,$3,$4,$5,$6,$7,$8,$9,$2,$3,0*
0 Add four circle primitives for the rounded corners*
1,1,$1+$1,$2,$3,0*
1,1,$1+$1,$4,$5,0*
1,1,$1+$1,$6,$7,0*
1,1,$1+$1,$8,$9,0*
0 Add four rect primitives between the rounded corners*
20,1,$1+$1,$2,$3,$4,$5,0*
20,1,$1+$1,$4,$5,$6,$7,0*
20,1,$1+$1,$6,$7,$8,$9,0*
20,1,$1+$1,$8,$9,$2,$3,0*%
G04 Aperture macros list end*
G04 #@! TA.AperFunction,SMDPad,CuDef*
%ADD10RoundRect,0.218750X0.256250X-0.218750X0.256250X0.218750X-0.256250X0.218750X-0.256250X-0.218750X0*%
G04 #@! TD*
G04 #@! TA.AperFunction,SMDPad,CuDef*
%ADD11RoundRect,0.218750X-0.256250X0.218750X-0.256250X-0.218750X0.256250X-0.218750X0.256250X0.218750X0*%
G04 #@! TD*
G04 #@! TA.AperFunction,SMDPad,CuDef*
%ADD12R,2.000000X4.500000*%
G04 #@! TD*
G04 #@! TA.AperFunction,ComponentPad*
%ADD13R,1.700000X1.700000*%
G04 #@! TD*
G04 #@! TA.AperFunction,ComponentPad*
%ADD14O,1.700000X1.700000*%
G04 #@! TD*
G04 #@! TA.AperFunction,SMDPad,CuDef*
%ADD15R,1.750000X0.450000*%
G04 #@! TD*
G04 #@! TA.AperFunction,SMDPad,CuDef*
%ADD16RoundRect,0.250000X0.275000X-0.312500X0.275000X0.312500X-0.275000X0.312500X-0.275000X-0.312500X0*%
G04 #@! TD*
G04 #@! TA.AperFunction,SMDPad,CuDef*
%ADD17RoundRect,0.218750X0.218750X0.256250X-0.218750X0.256250X-0.218750X-0.256250X0.218750X-0.256250X0*%
G04 #@! TD*
G04 #@! TA.AperFunction,SMDPad,CuDef*
%ADD18RoundRect,0.218750X-0.218750X-0.256250X0.218750X-0.256250X0.218750X0.256250X-0.218750X0.256250X0*%
G04 #@! TD*
G04 #@! TA.AperFunction,ViaPad*
%ADD19C,0.800000*%
G04 #@! TD*
G04 #@! TA.AperFunction,Conductor*
%ADD20C,0.250000*%
G04 #@! TD*
G04 #@! TA.AperFunction,Conductor*
%ADD21C,0.200000*%
G04 #@! TD*
G04 APERTURE END LIST*
D10*
X161239000Y-105786500D03*
X161239000Y-104211500D03*
D11*
X161239000Y-95829100D03*
X161239000Y-97404100D03*
D12*
X157124000Y-105083000D03*
X157124000Y-96583000D03*
D13*
X159893000Y-116556000D03*
D14*
X157353000Y-116556000D03*
X154813000Y-116556000D03*
X152273000Y-116556000D03*
X149733000Y-116556000D03*
X147193000Y-116556000D03*
X144653000Y-116556000D03*
X142113000Y-116556000D03*
X139573000Y-116556000D03*
X137033000Y-116556000D03*
D15*
X145168000Y-98513000D03*
X145168000Y-99163000D03*
X145168000Y-99813000D03*
X145168000Y-100463000D03*
X145168000Y-101113000D03*
X145168000Y-101763000D03*
X145168000Y-102413000D03*
X145168000Y-103063000D03*
X145168000Y-103713000D03*
X145168000Y-104363000D03*
X145168000Y-105013000D03*
X145168000Y-105663000D03*
X145168000Y-106313000D03*
X145168000Y-106963000D03*
X152368000Y-106963000D03*
X152368000Y-106313000D03*
X152368000Y-105663000D03*
X152368000Y-105013000D03*
X152368000Y-104363000D03*
X152368000Y-103713000D03*
X152368000Y-103063000D03*
X152368000Y-102413000D03*
X152368000Y-101763000D03*
X152368000Y-101113000D03*
X152368000Y-100463000D03*
X152368000Y-99813000D03*
X152368000Y-99163000D03*
X152368000Y-98513000D03*
D16*
X140284000Y-97758100D03*
X140284000Y-95983100D03*
X141554000Y-107664500D03*
X141554000Y-105889500D03*
D11*
X139700000Y-105989500D03*
X139700000Y-107564500D03*
X140538000Y-99893500D03*
X140538000Y-101468500D03*
X142062000Y-96616500D03*
X142062000Y-98191500D03*
D10*
X142062000Y-101468500D03*
X142062000Y-99893500D03*
D17*
X158597500Y-110079000D03*
X157022500Y-110079000D03*
D18*
X153720500Y-110079000D03*
X155295500Y-110079000D03*
D17*
X158597500Y-111730000D03*
X157022500Y-111730000D03*
D18*
X153720500Y-111730000D03*
X155295500Y-111730000D03*
D10*
X134442000Y-102738500D03*
X134442000Y-101163500D03*
D17*
X137820500Y-101346000D03*
X136245500Y-101346000D03*
X137795500Y-106299000D03*
X136220500Y-106299000D03*
D10*
X134442000Y-106421500D03*
X134442000Y-104846500D03*
D17*
X136042500Y-99410600D03*
X134467500Y-99410600D03*
D18*
X134543500Y-108174000D03*
X136118500Y-108174000D03*
D11*
X140919000Y-109672500D03*
X140919000Y-111247500D03*
X142951000Y-109672500D03*
X142951000Y-111247500D03*
X138760000Y-109672500D03*
X138760000Y-111247500D03*
D10*
X145110000Y-111247500D03*
X145110000Y-109672500D03*
D19*
X152400000Y-92710000D03*
X156210000Y-92710000D03*
X148590000Y-92710000D03*
X158623000Y-113157000D03*
X153797000Y-113157000D03*
X153670000Y-108966000D03*
X163830000Y-104140000D03*
X133350000Y-111760000D03*
X160020000Y-92710000D03*
X137160000Y-92710000D03*
X163830000Y-100330000D03*
X163830000Y-107950000D03*
X133350000Y-100330000D03*
X144780000Y-92710000D03*
X140970000Y-92710000D03*
X133350000Y-107950000D03*
X163830000Y-111760000D03*
X163830000Y-96520000D03*
X133350000Y-96520000D03*
X133350000Y-104140000D03*
X147955000Y-102362000D03*
X153800300Y-103713000D03*
X141505000Y-108757000D03*
X143764000Y-106426000D03*
X143383000Y-96647000D03*
X141224000Y-98933000D03*
X147193000Y-105664000D03*
X142500000Y-104000000D03*
X139000000Y-104000000D03*
X142500000Y-103000000D03*
X139000000Y-102500000D03*
X150937800Y-104937400D03*
X153802700Y-104731900D03*
X137541000Y-108204000D03*
X137511000Y-99410600D03*
X149765400Y-110978600D03*
X154559000Y-98552000D03*
X143637000Y-98552000D03*
X159245900Y-108017700D03*
X150920900Y-103063000D03*
D20*
X140538000Y-101443000D02*
X142062000Y-101443000D01*
X138760000Y-111247200D02*
X137617200Y-111247200D01*
X137033000Y-114173000D02*
X137033000Y-116556000D01*
X161239000Y-104211000D02*
X161239000Y-97404100D01*
X145168000Y-106963000D02*
X146320700Y-106963000D01*
X139700000Y-105989000D02*
X141454000Y-105989000D01*
X139700000Y-103800000D02*
X140538000Y-102962000D01*
X138760000Y-111247500D02*
X138760000Y-112446000D01*
X133350000Y-104140000D02*
X133350000Y-102281000D01*
X133350000Y-105304000D02*
X133350000Y-104140000D01*
X142357000Y-101763000D02*
X145168000Y-101763000D01*
X134442000Y-106396000D02*
X133350000Y-105304000D01*
X146320700Y-111247500D02*
X146320700Y-106963000D01*
X146320700Y-101763000D02*
X146320700Y-103713000D01*
X145168000Y-99163000D02*
X146320700Y-99163000D01*
X140538000Y-101455700D02*
X137674700Y-98592400D01*
X153720500Y-110079000D02*
X153720500Y-109016500D01*
X141711900Y-97475400D02*
X140251800Y-96015300D01*
X147874900Y-105267200D02*
X146320700Y-103713000D01*
X145168000Y-103713000D02*
X146320700Y-103713000D01*
X158598000Y-110079100D02*
X158598000Y-111730000D01*
X140538000Y-102962000D02*
X140538000Y-101468500D01*
X153721000Y-110079000D02*
X153721000Y-110631300D01*
X153720500Y-113080500D02*
X153797000Y-113157000D01*
X153721000Y-110631300D02*
X153720500Y-110630800D01*
X146903600Y-106963000D02*
X147874900Y-105991700D01*
X153720500Y-111730000D02*
X153720500Y-113080500D01*
X158623000Y-113157000D02*
X158623000Y-111755500D01*
X145632900Y-97475400D02*
X141711900Y-97475400D01*
X153720500Y-110630800D02*
X153720500Y-110079000D01*
X139700000Y-105989000D02*
X139700000Y-103800000D01*
X145168000Y-101763000D02*
X146320700Y-101763000D01*
X153720500Y-109016500D02*
X153670000Y-108966000D01*
X134442000Y-101163500D02*
X134442000Y-99537600D01*
X135387200Y-98592400D02*
X134569000Y-99410600D01*
X161993900Y-104966400D02*
X161239000Y-104211500D01*
X158598000Y-110079000D02*
X161993900Y-106683100D01*
X147874900Y-105991700D02*
X147874900Y-105267200D01*
X158623000Y-111755500D02*
X158597500Y-111730000D01*
X138760000Y-112446000D02*
X137033000Y-114173000D01*
X146320700Y-99163000D02*
X146320700Y-98163200D01*
X134442000Y-106421500D02*
X134442000Y-108072000D01*
X137617200Y-111247200D02*
X134544000Y-108174000D01*
X140251800Y-96015300D02*
X137674700Y-98592400D01*
X153721000Y-110631300D02*
X153721000Y-111730000D01*
X133350000Y-102281000D02*
X134442000Y-101189000D01*
X146320700Y-98163200D02*
X145632900Y-97475400D01*
X146320700Y-106963000D02*
X146903600Y-106963000D01*
X145110000Y-111247500D02*
X146320700Y-111247500D01*
X161993900Y-106683100D02*
X161993900Y-104966400D01*
X137674700Y-98592400D02*
X135387200Y-98592400D01*
X143646000Y-99775400D02*
X142062000Y-98191500D01*
X143643000Y-100463000D02*
X145168000Y-100463000D01*
X147955000Y-100838000D02*
X147580000Y-100463000D01*
X143510000Y-99949000D02*
X143510000Y-100330000D01*
X140970000Y-97917000D02*
X140443000Y-97917000D01*
X147580000Y-100463000D02*
X145168000Y-100463000D01*
X143510000Y-100330000D02*
X143643000Y-100463000D01*
X141244000Y-98191500D02*
X140970000Y-97917000D01*
X143646000Y-99813000D02*
X143510000Y-99949000D01*
X142062000Y-98191500D02*
X141244000Y-98191500D01*
X140284000Y-97758100D02*
X140284000Y-99639100D01*
X145168000Y-99813000D02*
X143646000Y-99813000D01*
X143646000Y-99813000D02*
X143646000Y-99775400D01*
X147955000Y-102362000D02*
X147955000Y-100838000D01*
X153520700Y-103713000D02*
X153800300Y-103713000D01*
X152368000Y-103713000D02*
X153520700Y-103713000D01*
X145055000Y-106426000D02*
X143764000Y-106426000D01*
X141505000Y-107713000D02*
X141505000Y-108757000D01*
X145168000Y-106313000D02*
X145055000Y-106426000D01*
X139700000Y-107564000D02*
X141454000Y-107564000D01*
X148684900Y-111396400D02*
X144653000Y-115428300D01*
X148684900Y-101693400D02*
X148684900Y-111396400D01*
X151215300Y-99163000D02*
X148684900Y-101693400D01*
X144653000Y-116556000D02*
X144653000Y-115428300D01*
X152368000Y-99163000D02*
X151215300Y-99163000D01*
D21*
X145109500Y-109672000D02*
X142951500Y-109672000D01*
X142951000Y-109672000D02*
X142951000Y-105715000D01*
X142951000Y-105715000D02*
X143653000Y-105013000D01*
X143653000Y-105013000D02*
X145168000Y-105013000D01*
X157353000Y-113792000D02*
X157353000Y-116556000D01*
X157023000Y-113462000D02*
X157353000Y-113792000D01*
X157023000Y-110079000D02*
X157023000Y-111770500D01*
X157023000Y-111770500D02*
X157023000Y-113462000D01*
D20*
X157022500Y-109814800D02*
X153520700Y-106313000D01*
X152368000Y-106313000D02*
X153520700Y-106313000D01*
D21*
X155296000Y-113309000D02*
X154813000Y-113792000D01*
D20*
X155295500Y-108737800D02*
X153520700Y-106963000D01*
D21*
X154813000Y-113792000D02*
X154813000Y-116556000D01*
X155296000Y-110079000D02*
X155296000Y-111694000D01*
D20*
X152368000Y-106963000D02*
X153520700Y-106963000D01*
X155295500Y-110079000D02*
X155295500Y-108737800D01*
D21*
X155296000Y-111694000D02*
X155296000Y-113309000D01*
D20*
X141351000Y-99060000D02*
X141224000Y-98933000D01*
X142062000Y-96616500D02*
X143352000Y-96616500D01*
X142875000Y-100838000D02*
X142875000Y-99949000D01*
X143352000Y-96616500D02*
X143383000Y-96647000D01*
X142875000Y-99949000D02*
X142118000Y-99949000D01*
X143129000Y-101092000D02*
X142875000Y-100838000D01*
X142006000Y-99949000D02*
X141351000Y-99949000D01*
X145147000Y-101092000D02*
X143129000Y-101092000D01*
X141351000Y-99949000D02*
X141351000Y-99060000D01*
D21*
X142367000Y-108977000D02*
X141672000Y-109672000D01*
X145168000Y-104363000D02*
X143541000Y-104363000D01*
X141672000Y-109672000D02*
X140918500Y-109672000D01*
X140918500Y-109672000D02*
X138760500Y-109672000D01*
X143541000Y-104363000D02*
X142367000Y-105537000D01*
X142367000Y-105537000D02*
X142367000Y-108977000D01*
D20*
X149087700Y-101940600D02*
X151215300Y-99813000D01*
X152368000Y-99813000D02*
X151215300Y-99813000D01*
X147193000Y-115428300D02*
X149087700Y-113533600D01*
X149087700Y-113533600D02*
X149087700Y-101940600D01*
X147193000Y-116556000D02*
X147193000Y-115428300D01*
X145168000Y-105663000D02*
X147192000Y-105663000D01*
X147192000Y-105663000D02*
X147193000Y-105664000D01*
X134442000Y-104872000D02*
X137825000Y-104872000D01*
D21*
X137795000Y-106299000D02*
X137795000Y-105600500D01*
D20*
X137825000Y-104872000D02*
X138128000Y-104872000D01*
X143437000Y-103063000D02*
X145112000Y-103063000D01*
X142500000Y-104000000D02*
X143437000Y-103063000D01*
X137795500Y-105601000D02*
X137795500Y-106299000D01*
D21*
X137795000Y-105600500D02*
X137795000Y-104902000D01*
D20*
X137795000Y-105600500D02*
X137795500Y-105601000D01*
X138128000Y-104872000D02*
X139000000Y-104000000D01*
D21*
X137795000Y-104902000D02*
X137825000Y-104872000D01*
D20*
X154000000Y-102413000D02*
X156670000Y-105083000D01*
X152368000Y-102413000D02*
X154000000Y-102413000D01*
X161238500Y-105786000D02*
X157827000Y-105786000D01*
X161239000Y-95829100D02*
X157878000Y-95829100D01*
X152368000Y-101763000D02*
X154015000Y-101763000D01*
X154015000Y-101763000D02*
X157124000Y-98653700D01*
X139000000Y-102500000D02*
X138787000Y-102713000D01*
X143087000Y-102413000D02*
X145112000Y-102413000D01*
X138787000Y-102713000D02*
X134442000Y-102713000D01*
D21*
X137846000Y-101346000D02*
X139000000Y-102500000D01*
D20*
X142500000Y-103000000D02*
X143087000Y-102413000D01*
X151013400Y-105013000D02*
X150937800Y-104937400D01*
X152368000Y-105013000D02*
X151215300Y-105013000D01*
X151215300Y-105013000D02*
X151013400Y-105013000D01*
X152368000Y-104363000D02*
X153433800Y-104363000D01*
X153433800Y-104363000D02*
X153802700Y-104731900D01*
X136093000Y-107348500D02*
X136093000Y-106523000D01*
X136118500Y-107374000D02*
X136118500Y-108174000D01*
X136093000Y-107348500D02*
X136118500Y-107374000D01*
X136093000Y-108174000D02*
X136093000Y-107348500D01*
X136119000Y-108174000D02*
X137511000Y-108174000D01*
X137511000Y-108174000D02*
X137541000Y-108204000D01*
X136245500Y-100388800D02*
X136245500Y-101346000D01*
X136220000Y-100363300D02*
X136245500Y-100388800D01*
X136119000Y-99410600D02*
X137511000Y-99410600D01*
X136220000Y-101189000D02*
X136220000Y-100363300D01*
X136220000Y-100363300D02*
X136220000Y-99537600D01*
X140919000Y-112319000D02*
X139573000Y-113665000D01*
X139573000Y-113665000D02*
X139573000Y-116556000D01*
X140919000Y-111247500D02*
X140919000Y-112319000D01*
X142951000Y-112700000D02*
X142113000Y-113538000D01*
X142113000Y-113538000D02*
X142113000Y-116556000D01*
X142951000Y-111247500D02*
X142951000Y-112700000D01*
X150443100Y-110697800D02*
X150243100Y-110497800D01*
X150243100Y-110497800D02*
X150243100Y-102085200D01*
X150243100Y-102085200D02*
X151215300Y-101113000D01*
X149733000Y-116556000D02*
X149733000Y-115428300D01*
X150443100Y-114718200D02*
X150443100Y-110697800D01*
X152368000Y-101113000D02*
X151215300Y-101113000D01*
X149733000Y-115428300D02*
X150443100Y-114718200D01*
X149765400Y-101912900D02*
X151215300Y-100463000D01*
X152368000Y-100463000D02*
X151215300Y-100463000D01*
X149765400Y-110978600D02*
X149765400Y-101912900D01*
X154520000Y-98513000D02*
X154559000Y-98552000D01*
X152368000Y-98513000D02*
X154520000Y-98513000D01*
X145168000Y-98513000D02*
X143676000Y-98513000D01*
X143676000Y-98513000D02*
X143637000Y-98552000D01*
X154015100Y-105663000D02*
X152368000Y-105663000D01*
X156369800Y-108017700D02*
X154015100Y-105663000D01*
X159245900Y-108017700D02*
X156369800Y-108017700D01*
X151215300Y-103063000D02*
X150920900Y-103063000D01*
X152368000Y-103063000D02*
X151215300Y-103063000D01*
G04 #@! TA.AperFunction,Conductor*
G36*
X161904203Y-92201602D02*
G01*
X161950696Y-92255258D01*
X161960800Y-92325532D01*
X161931306Y-92390112D01*
X161906905Y-92411812D01*
X161723968Y-92536136D01*
X161544856Y-92705514D01*
X161541778Y-92709540D01*
X161541777Y-92709541D01*
X161398200Y-92897331D01*
X161398197Y-92897335D01*
X161395127Y-92901351D01*
X161278636Y-93118607D01*
X161198378Y-93351693D01*
X161197517Y-93356676D01*
X161197517Y-93356677D01*
X161168955Y-93522034D01*
X161156418Y-93594612D01*
X161154275Y-93799193D01*
X161153837Y-93841115D01*
X161154594Y-93846118D01*
X161154594Y-93846123D01*
X161189943Y-94079855D01*
X161190700Y-94084860D01*
X161192246Y-94089677D01*
X161192247Y-94089679D01*
X161258347Y-94295557D01*
X161266059Y-94319576D01*
X161377975Y-94539224D01*
X161380960Y-94543303D01*
X161380961Y-94543304D01*
X161479312Y-94677684D01*
X161503404Y-94744468D01*
X161487564Y-94813675D01*
X161436824Y-94863333D01*
X161377635Y-94878100D01*
X160982751Y-94878100D01*
X160859895Y-94892424D01*
X160821569Y-94896892D01*
X160821568Y-94896892D01*
X160814297Y-94897740D01*
X160807420Y-94900236D01*
X160807417Y-94900237D01*
X160772796Y-94912804D01*
X160654879Y-94955606D01*
X160513050Y-95048593D01*
X160508018Y-95053905D01*
X160508013Y-95053909D01*
X160411061Y-95156253D01*
X160349692Y-95191951D01*
X160319589Y-95195600D01*
X158763500Y-95195600D01*
X158695379Y-95175598D01*
X158648886Y-95121942D01*
X158637500Y-95069600D01*
X158637500Y-94333000D01*
X158632273Y-94259921D01*
X158591096Y-94119684D01*
X158555039Y-94063579D01*
X158516949Y-94004309D01*
X158516947Y-94004306D01*
X158512077Y-93996729D01*
X158505267Y-93990828D01*
X158408431Y-93906918D01*
X158408428Y-93906916D01*
X158401619Y-93901016D01*
X158268670Y-93840300D01*
X158259755Y-93839018D01*
X158259754Y-93839018D01*
X158128448Y-93820139D01*
X158128441Y-93820138D01*
X158124000Y-93819500D01*
X156124000Y-93819500D01*
X156050921Y-93824727D01*
X155985140Y-93844042D01*
X155919330Y-93863365D01*
X155919328Y-93863366D01*
X155910684Y-93865904D01*
X155903105Y-93870775D01*
X155795309Y-93940051D01*
X155795306Y-93940053D01*
X155787729Y-93944923D01*
X155781828Y-93951733D01*
X155697918Y-94048569D01*
X155697916Y-94048572D01*
X155692016Y-94055381D01*
X155688272Y-94063579D01*
X155653468Y-94139790D01*
X155631300Y-94188330D01*
X155630018Y-94197245D01*
X155630018Y-94197246D01*
X155611139Y-94328552D01*
X155611138Y-94328559D01*
X155610500Y-94333000D01*
X155610500Y-98086021D01*
X155590498Y-98154142D01*
X155536842Y-98200635D01*
X155466568Y-98210739D01*
X155401988Y-98181245D01*
X155375381Y-98149021D01*
X155301338Y-98020776D01*
X155298037Y-98015058D01*
X155247841Y-97959309D01*
X155174673Y-97878048D01*
X155174672Y-97878047D01*
X155170251Y-97873137D01*
X155164909Y-97869256D01*
X155164907Y-97869254D01*
X155021092Y-97764767D01*
X155021091Y-97764766D01*
X155015750Y-97760886D01*
X155009722Y-97758202D01*
X155009720Y-97758201D01*
X154847318Y-97685895D01*
X154847317Y-97685895D01*
X154841287Y-97683210D01*
X154737857Y-97661225D01*
X154660944Y-97644876D01*
X154660939Y-97644876D01*
X154654487Y-97643504D01*
X154463513Y-97643504D01*
X154457061Y-97644876D01*
X154457056Y-97644876D01*
X154380143Y-97661225D01*
X154276713Y-97683210D01*
X154270683Y-97685895D01*
X154270682Y-97685895D01*
X154108280Y-97758201D01*
X154108278Y-97758202D01*
X154102250Y-97760886D01*
X154096909Y-97764766D01*
X154096908Y-97764767D01*
X153972112Y-97855436D01*
X153898051Y-97879500D01*
X153591785Y-97879500D01*
X153525136Y-97859930D01*
X153520619Y-97856016D01*
X153387670Y-97795300D01*
X153378755Y-97794018D01*
X153378754Y-97794018D01*
X153247448Y-97775139D01*
X153247441Y-97775138D01*
X153243000Y-97774500D01*
X151493000Y-97774500D01*
X151419921Y-97779727D01*
X151366884Y-97795300D01*
X151288330Y-97818365D01*
X151288328Y-97818366D01*
X151279684Y-97820904D01*
X151272105Y-97825775D01*
X151164309Y-97895051D01*
X151164306Y-97895053D01*
X151156729Y-97899923D01*
X151150828Y-97906733D01*
X151066918Y-98003569D01*
X151066916Y-98003572D01*
X151061016Y-98010381D01*
X151000300Y-98143330D01*
X150999018Y-98152245D01*
X150999018Y-98152246D01*
X150980139Y-98283552D01*
X150980138Y-98283559D01*
X150979500Y-98288000D01*
X150979500Y-98490624D01*
X150959498Y-98558745D01*
X150914448Y-98600806D01*
X150907700Y-98603478D01*
X150901289Y-98608136D01*
X150901287Y-98608137D01*
X150871929Y-98629467D01*
X150862012Y-98635982D01*
X150823958Y-98658487D01*
X150823540Y-98658855D01*
X150809458Y-98672937D01*
X150794425Y-98685778D01*
X150778217Y-98697554D01*
X150773165Y-98703661D01*
X150750276Y-98731329D01*
X150742286Y-98740109D01*
X149672898Y-99809498D01*
X148774237Y-100708159D01*
X148711925Y-100742184D01*
X148641110Y-100737120D01*
X148584274Y-100694573D01*
X148567989Y-100665445D01*
X148565820Y-100659965D01*
X148565140Y-100658248D01*
X148557162Y-100638097D01*
X148553318Y-100626869D01*
X148543198Y-100592035D01*
X148540986Y-100584421D01*
X148530677Y-100566989D01*
X148521980Y-100549236D01*
X148517442Y-100537775D01*
X148514522Y-100530400D01*
X148488531Y-100494626D01*
X148482016Y-100484707D01*
X148462529Y-100451758D01*
X148462527Y-100451755D01*
X148459513Y-100446659D01*
X148459145Y-100446241D01*
X148445062Y-100432158D01*
X148432228Y-100417133D01*
X148420446Y-100400917D01*
X148386664Y-100372970D01*
X148377885Y-100364981D01*
X148083391Y-100070487D01*
X148076031Y-100062399D01*
X148071973Y-100056005D01*
X148023121Y-100010130D01*
X148020280Y-100007376D01*
X147999966Y-99987062D01*
X147996555Y-99984417D01*
X147987533Y-99976711D01*
X147961077Y-99951867D01*
X147955301Y-99946443D01*
X147948357Y-99942626D01*
X147948355Y-99942624D01*
X147937547Y-99936682D01*
X147921023Y-99925828D01*
X147911286Y-99918275D01*
X147911285Y-99918275D01*
X147905023Y-99913417D01*
X147897750Y-99910270D01*
X147897747Y-99910268D01*
X147877335Y-99901435D01*
X147864458Y-99895863D01*
X147853800Y-99890642D01*
X147821994Y-99873156D01*
X147821990Y-99873154D01*
X147815048Y-99869338D01*
X147807373Y-99867368D01*
X147807372Y-99867367D01*
X147795426Y-99864300D01*
X147776719Y-99857895D01*
X147765410Y-99853001D01*
X147765408Y-99853001D01*
X147758135Y-99849853D01*
X147750307Y-99848613D01*
X147750306Y-99848613D01*
X147714473Y-99842938D01*
X147702848Y-99840530D01*
X147665782Y-99831013D01*
X147665780Y-99831013D01*
X147660025Y-99829535D01*
X147659469Y-99829500D01*
X147639546Y-99829500D01*
X147619837Y-99827949D01*
X147600055Y-99824816D01*
X147592163Y-99825562D01*
X147556418Y-99828941D01*
X147544560Y-99829500D01*
X146682500Y-99829500D01*
X146614379Y-99809498D01*
X146567886Y-99755842D01*
X146556500Y-99703500D01*
X146556500Y-99588000D01*
X146551273Y-99514921D01*
X146549370Y-99508441D01*
X146548171Y-99501794D01*
X146549295Y-99501591D01*
X146546097Y-99456876D01*
X146553422Y-99405934D01*
X146551161Y-99390209D01*
X146548928Y-99387632D01*
X146499546Y-99355896D01*
X146488773Y-99341505D01*
X146435946Y-99259305D01*
X146435945Y-99259304D01*
X146431077Y-99251729D01*
X146424271Y-99245831D01*
X146421385Y-99242501D01*
X146391892Y-99177921D01*
X146401995Y-99107647D01*
X146421384Y-99077477D01*
X146469082Y-99022431D01*
X146469084Y-99022428D01*
X146474984Y-99015619D01*
X146482278Y-98999648D01*
X146528773Y-98945994D01*
X146551191Y-98935756D01*
X146552753Y-98933953D01*
X146554871Y-98922215D01*
X146551260Y-98871727D01*
X146547676Y-98851863D01*
X146549294Y-98851571D01*
X146546263Y-98809200D01*
X146556500Y-98738000D01*
X146556500Y-98288000D01*
X146551273Y-98214921D01*
X146527846Y-98135136D01*
X146512635Y-98083330D01*
X146512634Y-98083328D01*
X146510096Y-98074684D01*
X146474039Y-98018579D01*
X146435949Y-97959309D01*
X146435947Y-97959306D01*
X146431077Y-97951729D01*
X146395568Y-97920960D01*
X146327431Y-97861918D01*
X146327428Y-97861916D01*
X146320619Y-97856016D01*
X146187670Y-97795300D01*
X146178755Y-97794018D01*
X146178754Y-97794018D01*
X146047448Y-97775139D01*
X146047441Y-97775138D01*
X146043000Y-97774500D01*
X144293000Y-97774500D01*
X144219921Y-97779727D01*
X144207974Y-97783235D01*
X144136978Y-97783235D01*
X144105101Y-97767563D01*
X144104809Y-97768068D01*
X144099091Y-97764767D01*
X144093750Y-97760886D01*
X144087722Y-97758202D01*
X144087720Y-97758201D01*
X143925318Y-97685895D01*
X143925317Y-97685895D01*
X143919287Y-97683210D01*
X143870928Y-97672931D01*
X143808455Y-97639203D01*
X143774133Y-97577053D01*
X143778861Y-97506214D01*
X143821137Y-97449176D01*
X143833878Y-97440728D01*
X143839750Y-97438114D01*
X143885726Y-97404711D01*
X143988907Y-97329746D01*
X143988909Y-97329744D01*
X143994251Y-97325863D01*
X144122037Y-97183942D01*
X144217524Y-97018554D01*
X144276538Y-96836927D01*
X144296500Y-96647000D01*
X144278964Y-96480154D01*
X144277228Y-96463637D01*
X144277228Y-96463636D01*
X144276538Y-96457073D01*
X144217524Y-96275446D01*
X144198771Y-96242964D01*
X144125338Y-96115776D01*
X144122037Y-96110058D01*
X143994251Y-95968137D01*
X143988909Y-95964256D01*
X143988907Y-95964254D01*
X143845092Y-95859767D01*
X143845091Y-95859766D01*
X143839750Y-95855886D01*
X143833722Y-95853202D01*
X143833720Y-95853201D01*
X143671318Y-95780895D01*
X143671317Y-95780895D01*
X143665287Y-95778210D01*
X143571887Y-95758357D01*
X143484944Y-95739876D01*
X143484939Y-95739876D01*
X143478487Y-95738504D01*
X143287513Y-95738504D01*
X143281061Y-95739876D01*
X143281056Y-95739876D01*
X143194113Y-95758357D01*
X143100713Y-95778210D01*
X143094683Y-95780895D01*
X143094682Y-95780895D01*
X142932278Y-95853202D01*
X142932016Y-95853319D01*
X142932015Y-95853319D01*
X142926250Y-95855886D01*
X142925781Y-95854832D01*
X142863124Y-95870032D01*
X142796032Y-95846812D01*
X142782466Y-95835648D01*
X142762199Y-95816449D01*
X142756885Y-95811415D01*
X142610234Y-95726234D01*
X142516671Y-95697897D01*
X142454112Y-95678949D01*
X142454109Y-95678948D01*
X142447920Y-95677074D01*
X142318250Y-95665500D01*
X141805751Y-95665500D01*
X141690398Y-95678949D01*
X141644569Y-95684292D01*
X141644568Y-95684292D01*
X141637297Y-95685140D01*
X141630420Y-95687636D01*
X141630417Y-95687637D01*
X141569137Y-95709881D01*
X141486127Y-95740012D01*
X141415271Y-95744453D01*
X141353261Y-95709881D01*
X141319785Y-95647271D01*
X141317985Y-95636165D01*
X141302383Y-95502346D01*
X141299037Y-95488191D01*
X141243737Y-95335840D01*
X141237227Y-95322841D01*
X141148359Y-95187293D01*
X141139035Y-95176142D01*
X141021371Y-95064678D01*
X141009724Y-95055965D01*
X140869571Y-94974557D01*
X140856246Y-94968763D01*
X140700300Y-94921532D01*
X140687677Y-94919084D01*
X140561793Y-94907849D01*
X140556198Y-94907600D01*
X140556115Y-94907600D01*
X140540876Y-94912075D01*
X140539671Y-94913465D01*
X140538000Y-94921148D01*
X140537999Y-95729098D01*
X140538000Y-95729104D01*
X140537999Y-96111100D01*
X140517997Y-96179221D01*
X140464341Y-96225714D01*
X140411999Y-96237100D01*
X139264115Y-96237099D01*
X139248876Y-96241574D01*
X139247671Y-96242964D01*
X139246000Y-96250647D01*
X139246000Y-96291937D01*
X139246424Y-96299238D01*
X139265617Y-96463854D01*
X139268963Y-96478009D01*
X139324263Y-96630360D01*
X139330773Y-96643359D01*
X139419638Y-96778902D01*
X139430353Y-96791717D01*
X139458704Y-96856808D01*
X139447364Y-96926893D01*
X139425163Y-96959193D01*
X139397642Y-96988245D01*
X139308825Y-97141155D01*
X139257567Y-97310396D01*
X139256992Y-97316836D01*
X139256992Y-97316837D01*
X139246515Y-97434233D01*
X139245500Y-97445600D01*
X139245500Y-98070599D01*
X139253980Y-98143330D01*
X139262040Y-98212461D01*
X139265978Y-98246242D01*
X139268474Y-98253120D01*
X139268475Y-98253122D01*
X139282767Y-98292496D01*
X139326313Y-98412463D01*
X139330326Y-98418584D01*
X139330327Y-98418586D01*
X139345767Y-98442136D01*
X139423269Y-98560347D01*
X139551645Y-98681958D01*
X139587787Y-98702951D01*
X139636645Y-98754460D01*
X139650501Y-98811904D01*
X139650501Y-99279503D01*
X139633455Y-99342788D01*
X139610234Y-99382766D01*
X139586692Y-99460496D01*
X139574246Y-99501591D01*
X139561074Y-99545080D01*
X139560499Y-99551522D01*
X139555565Y-99606806D01*
X139549500Y-99674750D01*
X139549500Y-100112249D01*
X139563230Y-100230012D01*
X139567376Y-100265569D01*
X139569140Y-100280703D01*
X139571636Y-100287580D01*
X139571637Y-100287583D01*
X139608337Y-100388689D01*
X139627006Y-100440121D01*
X139719993Y-100581950D01*
X139725305Y-100586983D01*
X139725310Y-100586988D01*
X139730343Y-100591756D01*
X139766040Y-100653125D01*
X139762892Y-100724052D01*
X139735161Y-100769881D01*
X139700852Y-100806098D01*
X139692139Y-100817745D01*
X139614366Y-100951640D01*
X139608572Y-100964965D01*
X139563439Y-101113983D01*
X139560991Y-101126608D01*
X139554757Y-101196454D01*
X139557728Y-101211375D01*
X139569538Y-101214500D01*
X140283998Y-101214501D01*
X140284004Y-101214500D01*
X141038997Y-101214501D01*
X141039003Y-101214500D01*
X142190000Y-101214501D01*
X142258121Y-101234503D01*
X142304614Y-101288159D01*
X142316000Y-101340501D01*
X142315999Y-101596500D01*
X142295997Y-101664621D01*
X142242341Y-101711114D01*
X142189999Y-101722500D01*
X141561003Y-101722499D01*
X141560997Y-101722500D01*
X140810115Y-101722499D01*
X140794876Y-101726974D01*
X140793671Y-101728364D01*
X140792000Y-101736047D01*
X140791999Y-102400885D01*
X140796474Y-102416124D01*
X140797864Y-102417329D01*
X140801605Y-102418142D01*
X140955318Y-102400222D01*
X140969465Y-102396878D01*
X141115021Y-102344043D01*
X141128017Y-102337535D01*
X141228345Y-102271757D01*
X141296281Y-102251134D01*
X141364581Y-102270514D01*
X141372900Y-102276231D01*
X141373741Y-102276860D01*
X141507640Y-102354635D01*
X141520973Y-102360433D01*
X141623665Y-102391535D01*
X141683064Y-102430424D01*
X141712007Y-102495253D01*
X141701307Y-102565438D01*
X141696261Y-102575124D01*
X141665476Y-102628446D01*
X141606462Y-102810073D01*
X141605772Y-102816636D01*
X141605772Y-102816637D01*
X141597057Y-102899554D01*
X141586500Y-103000000D01*
X141587190Y-103006565D01*
X141598948Y-103118431D01*
X141606462Y-103189927D01*
X141608502Y-103196205D01*
X141608502Y-103196206D01*
X141635441Y-103279115D01*
X141665476Y-103371554D01*
X141668779Y-103377276D01*
X141668780Y-103377277D01*
X141703261Y-103437000D01*
X141719999Y-103505996D01*
X141703261Y-103563000D01*
X141674975Y-103611994D01*
X141665476Y-103628446D01*
X141606462Y-103810073D01*
X141605772Y-103816636D01*
X141605772Y-103816637D01*
X141597903Y-103891505D01*
X141586500Y-104000000D01*
X141587190Y-104006565D01*
X141603112Y-104158049D01*
X141606462Y-104189927D01*
X141608502Y-104196205D01*
X141608502Y-104196206D01*
X141622244Y-104238500D01*
X141665476Y-104371554D01*
X141760963Y-104536942D01*
X141837913Y-104622403D01*
X141868628Y-104686408D01*
X141859865Y-104756861D01*
X141833191Y-104788856D01*
X141835104Y-104790514D01*
X141809671Y-104819865D01*
X141808000Y-104827548D01*
X141808000Y-105272047D01*
X141798409Y-105320264D01*
X141791970Y-105335810D01*
X141774405Y-105378215D01*
X141771764Y-105398275D01*
X141758500Y-105499023D01*
X141758500Y-105499028D01*
X141753501Y-105537000D01*
X141754579Y-105545188D01*
X141754579Y-105545189D01*
X141757422Y-105566784D01*
X141758500Y-105583230D01*
X141758500Y-106017500D01*
X141738498Y-106085621D01*
X141684842Y-106132114D01*
X141632500Y-106143500D01*
X140741115Y-106143499D01*
X140725876Y-106147974D01*
X140720157Y-106154574D01*
X140691753Y-106206594D01*
X140629442Y-106240620D01*
X140602656Y-106243500D01*
X139954002Y-106243499D01*
X139953996Y-106243500D01*
X139572000Y-106243499D01*
X139503879Y-106223497D01*
X139457386Y-106169841D01*
X139446000Y-106117499D01*
X139446000Y-105717385D01*
X139953999Y-105717385D01*
X139958474Y-105732624D01*
X139959864Y-105733829D01*
X139967547Y-105735500D01*
X140462885Y-105735501D01*
X140478125Y-105731026D01*
X140483843Y-105724427D01*
X140512246Y-105672407D01*
X140574557Y-105638380D01*
X140601344Y-105635500D01*
X141281885Y-105635501D01*
X141297124Y-105631026D01*
X141298329Y-105629636D01*
X141300000Y-105621953D01*
X141300001Y-104832115D01*
X141295526Y-104816876D01*
X141294136Y-104815671D01*
X141286453Y-104814000D01*
X141282663Y-104814000D01*
X141275362Y-104814424D01*
X141110746Y-104833617D01*
X141096591Y-104836963D01*
X140944240Y-104892263D01*
X140931241Y-104898773D01*
X140795693Y-104987641D01*
X140784542Y-104996965D01*
X140673078Y-105114629D01*
X140664365Y-105126276D01*
X140626665Y-105191180D01*
X140575154Y-105240038D01*
X140505405Y-105253292D01*
X140439564Y-105226732D01*
X140431057Y-105219366D01*
X140399901Y-105189851D01*
X140388255Y-105181139D01*
X140254360Y-105103366D01*
X140241035Y-105097572D01*
X140092017Y-105052439D01*
X140079392Y-105049991D01*
X139968417Y-105040086D01*
X139956876Y-105043475D01*
X139955671Y-105044865D01*
X139954000Y-105052548D01*
X139953999Y-105717385D01*
X139446000Y-105717385D01*
X139446001Y-105057115D01*
X139441526Y-105041876D01*
X139429369Y-105031342D01*
X139388327Y-105008931D01*
X139354302Y-104946619D01*
X139359366Y-104875803D01*
X139401913Y-104818967D01*
X139426172Y-104804729D01*
X139450715Y-104793801D01*
X139456750Y-104791114D01*
X139503875Y-104756876D01*
X139605907Y-104682746D01*
X139605909Y-104682744D01*
X139611251Y-104678863D01*
X139659788Y-104624957D01*
X139734618Y-104541850D01*
X139734622Y-104541845D01*
X139739037Y-104536942D01*
X139834524Y-104371554D01*
X139877756Y-104238500D01*
X139891498Y-104196206D01*
X139891498Y-104196205D01*
X139893538Y-104189927D01*
X139896889Y-104158049D01*
X139912810Y-104006565D01*
X139913500Y-104000000D01*
X139902097Y-103891505D01*
X139894228Y-103816637D01*
X139894228Y-103816636D01*
X139893538Y-103810073D01*
X139834524Y-103628446D01*
X139825026Y-103611994D01*
X139785530Y-103543586D01*
X139739037Y-103463058D01*
X139701823Y-103421727D01*
X139623112Y-103334310D01*
X139592394Y-103270303D01*
X139601159Y-103199849D01*
X139623112Y-103165690D01*
X139734618Y-103041850D01*
X139734619Y-103041849D01*
X139739037Y-103036942D01*
X139818358Y-102899554D01*
X139831220Y-102877277D01*
X139831221Y-102877276D01*
X139834524Y-102871554D01*
X139893538Y-102689927D01*
X139913500Y-102500000D01*
X139914185Y-102500072D01*
X139932812Y-102436633D01*
X139986468Y-102390140D01*
X140056742Y-102380036D01*
X140075333Y-102384164D01*
X140145974Y-102405559D01*
X140158608Y-102408009D01*
X140269583Y-102417914D01*
X140281124Y-102414525D01*
X140282329Y-102413135D01*
X140284000Y-102405452D01*
X140284001Y-101740615D01*
X140279526Y-101725376D01*
X140278136Y-101724171D01*
X140270453Y-101722500D01*
X139572225Y-101722499D01*
X139562165Y-101725453D01*
X139491169Y-101725453D01*
X139463667Y-101713676D01*
X139462088Y-101712765D01*
X139456750Y-101708886D01*
X139443573Y-101703019D01*
X139288318Y-101633895D01*
X139288317Y-101633895D01*
X139282287Y-101631210D01*
X139188887Y-101611357D01*
X139101944Y-101592876D01*
X139101939Y-101592876D01*
X139095487Y-101591504D01*
X139004242Y-101591504D01*
X138936121Y-101571502D01*
X138915147Y-101554599D01*
X138808405Y-101447857D01*
X138774379Y-101385545D01*
X138771500Y-101358762D01*
X138771500Y-101089751D01*
X138751860Y-100921297D01*
X138747580Y-100909504D01*
X138696491Y-100768758D01*
X138693994Y-100761879D01*
X138601007Y-100620050D01*
X138477885Y-100503415D01*
X138395961Y-100455830D01*
X138337567Y-100421912D01*
X138337564Y-100421911D01*
X138331234Y-100418234D01*
X138168920Y-100369073D01*
X138162484Y-100368499D01*
X138162481Y-100368498D01*
X138119386Y-100364652D01*
X138053313Y-100338673D01*
X138011774Y-100281097D01*
X138007957Y-100210203D01*
X138043075Y-100148500D01*
X138056526Y-100137215D01*
X138116907Y-100093346D01*
X138116909Y-100093344D01*
X138122251Y-100089463D01*
X138164574Y-100042459D01*
X138245618Y-99952450D01*
X138245619Y-99952449D01*
X138250037Y-99947542D01*
X138318189Y-99829500D01*
X138342220Y-99787877D01*
X138342221Y-99787876D01*
X138345524Y-99782154D01*
X138377834Y-99682715D01*
X138402498Y-99606806D01*
X138402498Y-99606805D01*
X138404538Y-99600527D01*
X138405618Y-99590257D01*
X138423810Y-99417165D01*
X138424500Y-99410600D01*
X138417238Y-99341505D01*
X138405228Y-99227237D01*
X138405228Y-99227236D01*
X138404538Y-99220673D01*
X138383720Y-99156600D01*
X138347566Y-99045331D01*
X138345524Y-99039046D01*
X138331999Y-99015619D01*
X138279078Y-98923958D01*
X138250037Y-98873658D01*
X138217434Y-98837448D01*
X138126673Y-98736648D01*
X138126672Y-98736647D01*
X138122251Y-98731737D01*
X138116909Y-98727856D01*
X138116907Y-98727854D01*
X137973092Y-98623367D01*
X137973091Y-98623366D01*
X137967750Y-98619486D01*
X137961722Y-98616802D01*
X137961720Y-98616801D01*
X137799318Y-98544495D01*
X137799317Y-98544495D01*
X137793287Y-98541810D01*
X137699887Y-98521957D01*
X137612944Y-98503476D01*
X137612939Y-98503476D01*
X137606487Y-98502104D01*
X137415513Y-98502104D01*
X137409061Y-98503476D01*
X137409056Y-98503476D01*
X137322113Y-98521957D01*
X137228713Y-98541810D01*
X137222683Y-98544495D01*
X137222682Y-98544495D01*
X137060280Y-98616801D01*
X137060278Y-98616802D01*
X137054250Y-98619486D01*
X137048908Y-98623367D01*
X137048903Y-98623370D01*
X136969152Y-98681312D01*
X136902285Y-98705171D01*
X136833133Y-98689090D01*
X136808439Y-98670849D01*
X136705199Y-98573049D01*
X136699885Y-98568015D01*
X136640485Y-98533513D01*
X136559567Y-98486512D01*
X136559564Y-98486511D01*
X136553234Y-98482834D01*
X136390920Y-98433673D01*
X136384484Y-98433099D01*
X136384481Y-98433098D01*
X136264043Y-98422349D01*
X136264037Y-98422349D01*
X136261250Y-98422100D01*
X135823751Y-98422100D01*
X135708415Y-98435547D01*
X135662569Y-98440892D01*
X135662568Y-98440892D01*
X135655297Y-98441740D01*
X135648420Y-98444236D01*
X135648417Y-98444237D01*
X135546669Y-98481170D01*
X135495879Y-98499606D01*
X135354050Y-98592593D01*
X135349017Y-98597905D01*
X135349012Y-98597910D01*
X135344244Y-98602943D01*
X135282875Y-98638640D01*
X135211948Y-98635492D01*
X135166119Y-98607761D01*
X135129902Y-98573452D01*
X135118255Y-98564739D01*
X134984362Y-98486967D01*
X134971030Y-98481170D01*
X134822019Y-98436039D01*
X134809393Y-98433590D01*
X134739544Y-98427356D01*
X134724625Y-98430328D01*
X134721500Y-98442136D01*
X134721499Y-99156598D01*
X134721500Y-99156604D01*
X134721499Y-100364971D01*
X134701497Y-100433092D01*
X134698058Y-100437685D01*
X134696000Y-100447148D01*
X134695999Y-100909498D01*
X134696000Y-100909504D01*
X134695999Y-101291500D01*
X134675997Y-101359621D01*
X134622341Y-101406114D01*
X134569999Y-101417500D01*
X133476225Y-101417499D01*
X133462157Y-101421630D01*
X133460109Y-101434641D01*
X133472778Y-101543316D01*
X133476123Y-101557468D01*
X133528956Y-101703019D01*
X133535466Y-101716018D01*
X133620365Y-101845511D01*
X133629689Y-101856663D01*
X133634322Y-101861052D01*
X133670020Y-101922421D01*
X133666872Y-101993348D01*
X133639142Y-102039178D01*
X133599414Y-102081115D01*
X133514233Y-102227766D01*
X133465073Y-102390080D01*
X133464498Y-102396520D01*
X133464498Y-102396521D01*
X133454677Y-102506565D01*
X133453500Y-102519750D01*
X133453500Y-102957249D01*
X133473140Y-103125703D01*
X133475636Y-103132581D01*
X133475637Y-103132583D01*
X133524379Y-103266865D01*
X133531006Y-103285122D01*
X133623993Y-103426951D01*
X133747115Y-103543586D01*
X133893766Y-103628767D01*
X134032881Y-103670901D01*
X134092275Y-103709787D01*
X134121219Y-103774616D01*
X134110519Y-103844802D01*
X134063573Y-103898061D01*
X134025341Y-103914109D01*
X134024563Y-103914293D01*
X134017297Y-103915140D01*
X134010422Y-103917636D01*
X134010420Y-103917636D01*
X133900594Y-103957501D01*
X133857878Y-103973006D01*
X133716049Y-104065993D01*
X133599414Y-104189115D01*
X133514233Y-104335766D01*
X133473994Y-104468625D01*
X133469476Y-104483544D01*
X133465073Y-104498080D01*
X133464498Y-104504520D01*
X133464498Y-104504521D01*
X133455489Y-104605468D01*
X133453500Y-104627750D01*
X133453500Y-105065249D01*
X133473140Y-105233703D01*
X133475636Y-105240581D01*
X133475637Y-105240583D01*
X133516438Y-105352988D01*
X133531006Y-105393122D01*
X133623993Y-105534951D01*
X133629313Y-105539990D01*
X133629314Y-105539992D01*
X133634342Y-105544756D01*
X133670039Y-105606125D01*
X133666891Y-105677052D01*
X133639160Y-105722881D01*
X133604851Y-105759098D01*
X133596138Y-105770745D01*
X133518365Y-105904640D01*
X133512571Y-105917965D01*
X133467438Y-106066984D01*
X133464990Y-106079607D01*
X133458756Y-106149456D01*
X133461728Y-106164375D01*
X133473536Y-106167500D01*
X134187998Y-106167501D01*
X134188004Y-106167500D01*
X134570000Y-106167501D01*
X134638121Y-106187503D01*
X134684614Y-106241159D01*
X134696000Y-106293501D01*
X134695999Y-107132885D01*
X134700474Y-107148124D01*
X134705537Y-107152512D01*
X134760596Y-107182576D01*
X134794621Y-107244888D01*
X134797500Y-107271671D01*
X134797500Y-109139775D01*
X134801631Y-109153843D01*
X134814642Y-109155891D01*
X134923319Y-109143222D01*
X134937466Y-109139878D01*
X135083022Y-109087043D01*
X135096017Y-109080535D01*
X135225511Y-108995635D01*
X135236663Y-108986311D01*
X135241052Y-108981678D01*
X135302421Y-108945980D01*
X135373348Y-108949128D01*
X135419178Y-108976858D01*
X135461115Y-109016586D01*
X135607766Y-109101767D01*
X135770080Y-109150927D01*
X135776520Y-109151502D01*
X135776521Y-109151502D01*
X135896957Y-109162251D01*
X135896963Y-109162251D01*
X135899750Y-109162500D01*
X136337250Y-109162500D01*
X136460106Y-109148176D01*
X136498432Y-109143708D01*
X136498433Y-109143708D01*
X136505704Y-109142860D01*
X136512581Y-109140364D01*
X136512584Y-109140363D01*
X136658243Y-109087491D01*
X136665122Y-109084994D01*
X136806951Y-108992007D01*
X136811983Y-108986695D01*
X136811988Y-108986691D01*
X136842197Y-108954802D01*
X136903566Y-108919104D01*
X136974493Y-108922252D01*
X137007729Y-108939518D01*
X137028765Y-108954802D01*
X137072657Y-108986691D01*
X137084250Y-108995114D01*
X137090278Y-108997798D01*
X137090280Y-108997799D01*
X137184818Y-109039890D01*
X137258713Y-109072790D01*
X137342031Y-109090500D01*
X137439056Y-109111124D01*
X137439061Y-109111124D01*
X137445513Y-109112496D01*
X137636487Y-109112496D01*
X137642945Y-109111123D01*
X137642948Y-109111123D01*
X137653044Y-109108977D01*
X137723835Y-109114378D01*
X137780468Y-109157193D01*
X137804963Y-109223831D01*
X137799833Y-109268746D01*
X137788241Y-109307021D01*
X137783074Y-109324080D01*
X137771500Y-109453750D01*
X137771500Y-109891249D01*
X137791140Y-110059703D01*
X137793636Y-110066580D01*
X137793637Y-110066583D01*
X137833436Y-110176226D01*
X137849006Y-110219121D01*
X137941993Y-110360950D01*
X137947305Y-110365983D01*
X137947310Y-110365988D01*
X137952343Y-110370756D01*
X137988040Y-110432125D01*
X137984892Y-110503052D01*
X137957161Y-110548881D01*
X137922852Y-110585098D01*
X137914139Y-110596745D01*
X137836366Y-110730640D01*
X137830572Y-110743965D01*
X137785439Y-110892983D01*
X137782991Y-110905608D01*
X137776757Y-110975454D01*
X137779728Y-110990375D01*
X137791538Y-110993500D01*
X138505998Y-110993501D01*
X138506004Y-110993500D01*
X138888000Y-110993501D01*
X138956121Y-111013503D01*
X139002614Y-111067159D01*
X139014000Y-111119501D01*
X139013999Y-112179885D01*
X139018474Y-112195124D01*
X139019864Y-112196329D01*
X139023605Y-112197142D01*
X139177318Y-112179222D01*
X139191465Y-112175878D01*
X139337021Y-112123043D01*
X139350016Y-112116535D01*
X139479510Y-112031635D01*
X139490662Y-112022311D01*
X139597148Y-111909902D01*
X139605861Y-111898255D01*
X139683634Y-111764360D01*
X139689428Y-111751035D01*
X139717429Y-111658581D01*
X139756318Y-111599183D01*
X139821147Y-111570239D01*
X139891333Y-111580938D01*
X139944592Y-111627885D01*
X139956459Y-111652112D01*
X139996156Y-111761475D01*
X140008006Y-111794121D01*
X140100993Y-111935950D01*
X140156440Y-111988475D01*
X140163717Y-111995369D01*
X140199415Y-112056738D01*
X140196267Y-112127665D01*
X140166159Y-112175937D01*
X139180486Y-113161610D01*
X139172399Y-113168969D01*
X139166005Y-113173027D01*
X139160580Y-113178804D01*
X139160579Y-113178805D01*
X139120137Y-113221872D01*
X139117381Y-113224715D01*
X139097062Y-113245034D01*
X139094638Y-113248159D01*
X139094631Y-113248167D01*
X139094411Y-113248451D01*
X139086703Y-113257476D01*
X139056443Y-113289700D01*
X139050334Y-113300812D01*
X139046687Y-113307446D01*
X139035836Y-113323965D01*
X139028278Y-113333709D01*
X139028275Y-113333714D01*
X139023417Y-113339977D01*
X139017711Y-113353164D01*
X139005861Y-113380547D01*
X139000638Y-113391208D01*
X138979338Y-113429953D01*
X138977366Y-113437635D01*
X138977365Y-113437636D01*
X138974298Y-113449578D01*
X138967898Y-113468273D01*
X138959853Y-113486865D01*
X138958613Y-113494694D01*
X138952937Y-113530529D01*
X138950530Y-113542150D01*
X138941013Y-113579219D01*
X138939535Y-113584976D01*
X138939500Y-113585532D01*
X138939500Y-113605454D01*
X138937949Y-113625163D01*
X138934816Y-113644945D01*
X138935562Y-113652837D01*
X138938941Y-113688583D01*
X138939500Y-113700441D01*
X138939501Y-114492699D01*
X138939501Y-115280301D01*
X138919499Y-115348422D01*
X138878866Y-115388020D01*
X138774196Y-115451535D01*
X138774191Y-115451539D01*
X138769631Y-115454306D01*
X138765601Y-115457803D01*
X138609941Y-115592877D01*
X138595492Y-115605415D01*
X138592109Y-115609541D01*
X138592105Y-115609545D01*
X138498421Y-115723802D01*
X138449304Y-115783705D01*
X138413116Y-115847278D01*
X138412842Y-115847760D01*
X138361760Y-115897066D01*
X138292130Y-115910928D01*
X138226059Y-115884945D01*
X138198820Y-115855795D01*
X138098218Y-115706366D01*
X138091557Y-115698080D01*
X137939830Y-115539030D01*
X137931873Y-115531990D01*
X137755523Y-115400782D01*
X137746486Y-115395178D01*
X137550550Y-115295559D01*
X137540699Y-115291559D01*
X137330778Y-115226378D01*
X137320396Y-115224095D01*
X137304959Y-115222049D01*
X137290792Y-115224246D01*
X137287000Y-115237430D01*
X137286999Y-116684000D01*
X137266997Y-116752121D01*
X137213341Y-116798614D01*
X137160999Y-116810000D01*
X136905000Y-116809999D01*
X136836879Y-116789997D01*
X136790386Y-116736341D01*
X136779000Y-116683999D01*
X136779001Y-115239716D01*
X136775028Y-115226185D01*
X136764421Y-115224660D01*
X136646555Y-115249391D01*
X136636358Y-115252451D01*
X136431932Y-115333182D01*
X136422396Y-115337916D01*
X136234486Y-115451942D01*
X136225896Y-115458206D01*
X136059884Y-115602264D01*
X136052471Y-115609888D01*
X136038771Y-115626596D01*
X135980111Y-115666590D01*
X135909141Y-115668522D01*
X135848392Y-115631778D01*
X135825297Y-115592468D01*
X135824334Y-115592877D01*
X135729989Y-115370614D01*
X135729988Y-115370612D01*
X135728012Y-115365957D01*
X135596650Y-115157356D01*
X135582202Y-115140968D01*
X135436972Y-114976238D01*
X135436970Y-114976236D01*
X135433625Y-114972442D01*
X135375769Y-114924918D01*
X135247044Y-114819181D01*
X135247038Y-114819177D01*
X135243134Y-114815970D01*
X135030076Y-114691967D01*
X135006091Y-114682760D01*
X134804657Y-114605437D01*
X134804653Y-114605436D01*
X134799933Y-114603624D01*
X134794983Y-114602590D01*
X134794980Y-114602589D01*
X134563577Y-114554246D01*
X134563573Y-114554246D01*
X134558626Y-114553212D01*
X134312363Y-114542029D01*
X134307343Y-114542610D01*
X134307339Y-114542610D01*
X134215711Y-114553212D01*
X134067480Y-114570363D01*
X134062606Y-114571742D01*
X134062602Y-114571743D01*
X133835146Y-114636107D01*
X133835144Y-114636108D01*
X133830277Y-114637485D01*
X133825701Y-114639619D01*
X133825695Y-114639621D01*
X133611439Y-114739530D01*
X133611435Y-114739532D01*
X133606857Y-114741667D01*
X133602676Y-114744509D01*
X133602675Y-114744509D01*
X133582771Y-114758036D01*
X133402968Y-114880230D01*
X133308856Y-114969227D01*
X133264182Y-115011474D01*
X133223856Y-115049608D01*
X133220778Y-115053634D01*
X133220777Y-115053635D01*
X133077200Y-115241425D01*
X133077197Y-115241429D01*
X133074127Y-115245445D01*
X133071737Y-115249903D01*
X133071736Y-115249904D01*
X133018692Y-115348831D01*
X132957636Y-115462701D01*
X132915157Y-115586068D01*
X132909235Y-115603268D01*
X132868145Y-115661165D01*
X132802276Y-115687656D01*
X132732541Y-115674331D01*
X132681081Y-115625419D01*
X132664100Y-115562246D01*
X132664100Y-111518641D01*
X137778109Y-111518641D01*
X137790778Y-111627318D01*
X137794122Y-111641465D01*
X137846957Y-111787021D01*
X137853465Y-111800016D01*
X137938365Y-111929510D01*
X137947689Y-111940662D01*
X138060098Y-112047148D01*
X138071745Y-112055861D01*
X138205640Y-112133634D01*
X138218965Y-112139428D01*
X138367983Y-112184561D01*
X138380608Y-112187009D01*
X138491583Y-112196914D01*
X138503124Y-112193525D01*
X138504329Y-112192135D01*
X138506000Y-112184452D01*
X138506001Y-111519615D01*
X138501526Y-111504376D01*
X138500136Y-111503171D01*
X138492453Y-111501500D01*
X137794225Y-111501499D01*
X137780157Y-111505630D01*
X137778109Y-111518641D01*
X132664100Y-111518641D01*
X132664100Y-108437606D01*
X133593858Y-108437606D01*
X133611778Y-108591319D01*
X133615122Y-108605466D01*
X133667957Y-108751022D01*
X133674465Y-108764017D01*
X133759365Y-108893511D01*
X133768689Y-108904663D01*
X133881098Y-109011149D01*
X133892745Y-109019862D01*
X134026640Y-109097635D01*
X134039965Y-109103429D01*
X134188984Y-109148562D01*
X134201607Y-109151010D01*
X134271456Y-109157244D01*
X134286375Y-109154272D01*
X134289500Y-109142465D01*
X134289500Y-108446115D01*
X134285025Y-108430876D01*
X134283635Y-108429671D01*
X134275952Y-108428000D01*
X133611115Y-108428000D01*
X133595876Y-108432475D01*
X133594671Y-108433865D01*
X133593858Y-108437606D01*
X132664100Y-108437606D01*
X132664100Y-106692641D01*
X133460109Y-106692641D01*
X133472778Y-106801316D01*
X133476123Y-106815468D01*
X133528956Y-106961019D01*
X133535466Y-106974018D01*
X133620365Y-107103511D01*
X133629689Y-107114663D01*
X133742098Y-107221149D01*
X133753748Y-107229865D01*
X133758893Y-107232853D01*
X133807753Y-107284363D01*
X133821008Y-107354111D01*
X133794450Y-107419953D01*
X133787083Y-107428461D01*
X133743851Y-107474098D01*
X133735138Y-107485745D01*
X133657365Y-107619640D01*
X133651571Y-107632965D01*
X133606438Y-107781984D01*
X133603990Y-107794607D01*
X133594086Y-107905583D01*
X133597475Y-107917124D01*
X133598865Y-107918329D01*
X133606548Y-107920000D01*
X134271385Y-107920000D01*
X134286624Y-107915525D01*
X134287829Y-107914135D01*
X134289500Y-107906452D01*
X134289500Y-107425115D01*
X134285025Y-107409876D01*
X134279960Y-107405487D01*
X134224907Y-107375427D01*
X134190880Y-107313116D01*
X134188000Y-107286330D01*
X134188001Y-106693615D01*
X134183526Y-106678376D01*
X134182136Y-106677171D01*
X134174453Y-106675500D01*
X133476225Y-106675499D01*
X133462157Y-106679630D01*
X133460109Y-106692641D01*
X132664100Y-106692641D01*
X132664100Y-100891456D01*
X133458756Y-100891456D01*
X133461728Y-100906375D01*
X133473536Y-100909500D01*
X134169885Y-100909501D01*
X134185124Y-100905026D01*
X134186329Y-100903636D01*
X134188000Y-100895953D01*
X134188001Y-100246629D01*
X134208003Y-100178508D01*
X134211442Y-100173915D01*
X134213500Y-100164452D01*
X134213501Y-99682715D01*
X134209026Y-99667475D01*
X134207636Y-99666271D01*
X134199954Y-99664600D01*
X133535115Y-99664599D01*
X133519876Y-99669074D01*
X133518671Y-99670464D01*
X133517858Y-99674205D01*
X133535778Y-99827918D01*
X133539122Y-99842065D01*
X133591957Y-99987621D01*
X133598465Y-100000616D01*
X133683365Y-100130110D01*
X133692689Y-100141262D01*
X133737802Y-100183998D01*
X133773500Y-100245367D01*
X133770353Y-100316294D01*
X133729359Y-100374260D01*
X133723782Y-100378283D01*
X133711337Y-100388689D01*
X133604851Y-100501098D01*
X133596138Y-100512745D01*
X133518365Y-100646640D01*
X133512571Y-100659965D01*
X133467438Y-100808984D01*
X133464990Y-100821607D01*
X133458756Y-100891456D01*
X132664100Y-100891456D01*
X132664100Y-99142183D01*
X133518086Y-99142183D01*
X133521475Y-99153724D01*
X133522865Y-99154929D01*
X133530548Y-99156600D01*
X134195385Y-99156601D01*
X134210624Y-99152126D01*
X134211829Y-99150736D01*
X134213500Y-99143053D01*
X134213501Y-98444825D01*
X134209370Y-98430757D01*
X134196359Y-98428709D01*
X134087682Y-98441378D01*
X134073535Y-98444722D01*
X133927979Y-98497557D01*
X133914984Y-98504065D01*
X133785490Y-98588965D01*
X133774338Y-98598289D01*
X133667852Y-98710698D01*
X133659139Y-98722345D01*
X133581367Y-98856238D01*
X133575570Y-98869570D01*
X133530439Y-99018581D01*
X133527990Y-99031207D01*
X133518086Y-99142183D01*
X132664100Y-99142183D01*
X132664100Y-95673402D01*
X139246000Y-95673402D01*
X139246000Y-95710985D01*
X139250475Y-95726224D01*
X139251865Y-95727429D01*
X139259548Y-95729100D01*
X140011885Y-95729101D01*
X140027124Y-95724626D01*
X140028329Y-95723236D01*
X140030000Y-95715553D01*
X140030001Y-94925715D01*
X140025526Y-94910476D01*
X140024136Y-94909271D01*
X140016453Y-94907600D01*
X140012663Y-94907600D01*
X140005362Y-94908024D01*
X139840746Y-94927217D01*
X139826591Y-94930563D01*
X139674240Y-94985863D01*
X139661241Y-94992373D01*
X139525693Y-95081241D01*
X139514542Y-95090565D01*
X139403078Y-95208229D01*
X139394365Y-95219876D01*
X139312957Y-95360029D01*
X139307163Y-95373354D01*
X139259932Y-95529300D01*
X139257484Y-95541923D01*
X139246249Y-95667807D01*
X139246000Y-95673402D01*
X132664100Y-95673402D01*
X132664100Y-94295557D01*
X132665882Y-94274439D01*
X132667703Y-94263729D01*
X132667703Y-94263727D01*
X132668518Y-94258934D01*
X132668586Y-94254067D01*
X132668876Y-94250891D01*
X132694994Y-94184873D01*
X132752659Y-94143456D01*
X132823561Y-94139790D01*
X132885189Y-94175038D01*
X132914321Y-94223840D01*
X132937347Y-94295557D01*
X132945059Y-94319576D01*
X133056975Y-94539224D01*
X133202569Y-94738153D01*
X133378095Y-94911245D01*
X133382212Y-94914171D01*
X133382217Y-94914175D01*
X133518317Y-95010895D01*
X133579038Y-95054047D01*
X133800227Y-95162886D01*
X133805073Y-95164367D01*
X133805074Y-95164368D01*
X133880059Y-95187293D01*
X134035972Y-95234960D01*
X134040982Y-95235646D01*
X134040985Y-95235647D01*
X134181534Y-95254900D01*
X134280208Y-95268417D01*
X134358512Y-95266503D01*
X134521590Y-95262518D01*
X134521594Y-95262518D01*
X134526651Y-95262394D01*
X134768960Y-95217047D01*
X135000903Y-95133542D01*
X135216511Y-95014028D01*
X135220489Y-95010898D01*
X135220493Y-95010895D01*
X135406262Y-94864710D01*
X135406264Y-94864709D01*
X135410238Y-94861581D01*
X135577099Y-94680120D01*
X135712802Y-94474317D01*
X135776174Y-94333308D01*
X135811781Y-94254080D01*
X135811783Y-94254074D01*
X135813855Y-94249464D01*
X135857960Y-94084860D01*
X135876350Y-94016229D01*
X135876350Y-94016228D01*
X135877658Y-94011347D01*
X135902570Y-93766093D01*
X135902907Y-93733906D01*
X135883137Y-93488183D01*
X135861936Y-93401867D01*
X135850836Y-93356677D01*
X135824334Y-93248783D01*
X135813977Y-93224382D01*
X135729989Y-93026520D01*
X135729988Y-93026518D01*
X135728012Y-93021863D01*
X135596650Y-92813262D01*
X135442383Y-92638282D01*
X135436972Y-92632144D01*
X135436970Y-92632142D01*
X135433625Y-92628348D01*
X135405717Y-92605424D01*
X135247044Y-92475087D01*
X135247038Y-92475083D01*
X135243134Y-92471876D01*
X135147987Y-92416499D01*
X135099174Y-92364945D01*
X135085981Y-92295185D01*
X135112598Y-92229367D01*
X135170573Y-92188387D01*
X135211368Y-92181600D01*
X161836082Y-92181600D01*
X161904203Y-92201602D01*
G37*
G04 #@! TD.AperFunction*
G04 #@! TA.AperFunction,Conductor*
G36*
X147963194Y-106276419D02*
G01*
X148022178Y-106315933D01*
X148050436Y-106381064D01*
X148051400Y-106396617D01*
X148051401Y-111081805D01*
X148031399Y-111149926D01*
X148014496Y-111170900D01*
X144260478Y-114924918D01*
X144252400Y-114932269D01*
X144246006Y-114936327D01*
X144240579Y-114942106D01*
X144240578Y-114942107D01*
X144200148Y-114985161D01*
X144197393Y-114988003D01*
X144177062Y-115008334D01*
X144174628Y-115011471D01*
X144174626Y-115011474D01*
X144174403Y-115011761D01*
X144166707Y-115020771D01*
X144145623Y-115043224D01*
X144136444Y-115052999D01*
X144132628Y-115059940D01*
X144132626Y-115059943D01*
X144126688Y-115070745D01*
X144115834Y-115087268D01*
X144111000Y-115093501D01*
X144103417Y-115103277D01*
X144100269Y-115110552D01*
X144085859Y-115143851D01*
X144080637Y-115154511D01*
X144059339Y-115193252D01*
X144054301Y-115212872D01*
X144047902Y-115231564D01*
X144039853Y-115250165D01*
X144038613Y-115257994D01*
X144033448Y-115290606D01*
X144003037Y-115354760D01*
X143974364Y-115378616D01*
X143854196Y-115451535D01*
X143854191Y-115451539D01*
X143849631Y-115454306D01*
X143845601Y-115457803D01*
X143689941Y-115592877D01*
X143675492Y-115605415D01*
X143672109Y-115609541D01*
X143672105Y-115609545D01*
X143578421Y-115723802D01*
X143529304Y-115783705D01*
X143526667Y-115788338D01*
X143526666Y-115788339D01*
X143493116Y-115847278D01*
X143442033Y-115896584D01*
X143372402Y-115910445D01*
X143306332Y-115884461D01*
X143279094Y-115855312D01*
X143273686Y-115847278D01*
X143190151Y-115723199D01*
X143178607Y-115706052D01*
X143178605Y-115706050D01*
X143175627Y-115701626D01*
X143162301Y-115687656D01*
X143080507Y-115601915D01*
X143016482Y-115534799D01*
X142831504Y-115397171D01*
X142826747Y-115394752D01*
X142826743Y-115394750D01*
X142815394Y-115388980D01*
X142763737Y-115340276D01*
X142746500Y-115276664D01*
X142746500Y-113852595D01*
X142766502Y-113784474D01*
X142783405Y-113763499D01*
X143048740Y-113498165D01*
X143343528Y-113203377D01*
X143351606Y-113196028D01*
X143357995Y-113191973D01*
X143403855Y-113143137D01*
X143406609Y-113140296D01*
X143426938Y-113119967D01*
X143429374Y-113116827D01*
X143429597Y-113116540D01*
X143437293Y-113107530D01*
X143462128Y-113081082D01*
X143467557Y-113075301D01*
X143477313Y-113057555D01*
X143488164Y-113041036D01*
X143495722Y-113031292D01*
X143495725Y-113031287D01*
X143500583Y-113025024D01*
X143518139Y-112984454D01*
X143523362Y-112973792D01*
X143540843Y-112941995D01*
X143540843Y-112941994D01*
X143544662Y-112935048D01*
X143546635Y-112927365D01*
X143549702Y-112915423D01*
X143556103Y-112896725D01*
X143560999Y-112885410D01*
X143564147Y-112878136D01*
X143571063Y-112834472D01*
X143573470Y-112822851D01*
X143582987Y-112785782D01*
X143582987Y-112785781D01*
X143584465Y-112780025D01*
X143584500Y-112779469D01*
X143584500Y-112759547D01*
X143586051Y-112739836D01*
X143587944Y-112727884D01*
X143589184Y-112720056D01*
X143585059Y-112676417D01*
X143584500Y-112664560D01*
X143584500Y-112156677D01*
X143604502Y-112088556D01*
X143641415Y-112051305D01*
X143649919Y-112045729D01*
X143676950Y-112028007D01*
X143793585Y-111904885D01*
X143878766Y-111758234D01*
X143908953Y-111658564D01*
X143947842Y-111599166D01*
X144012671Y-111570223D01*
X144082857Y-111580923D01*
X144136116Y-111627870D01*
X144147982Y-111652097D01*
X144196956Y-111787019D01*
X144203466Y-111800018D01*
X144288365Y-111929511D01*
X144297689Y-111940663D01*
X144410098Y-112047149D01*
X144421745Y-112055862D01*
X144555640Y-112133635D01*
X144568965Y-112139429D01*
X144717984Y-112184562D01*
X144730607Y-112187010D01*
X144841583Y-112196914D01*
X144853124Y-112193525D01*
X144854329Y-112192135D01*
X144856000Y-112184452D01*
X144856000Y-112179885D01*
X145363999Y-112179885D01*
X145368474Y-112195124D01*
X145369864Y-112196329D01*
X145373605Y-112197142D01*
X145527316Y-112179222D01*
X145541468Y-112175877D01*
X145687019Y-112123044D01*
X145700018Y-112116534D01*
X145829511Y-112031635D01*
X145840663Y-112022311D01*
X145947149Y-111909902D01*
X145955862Y-111898255D01*
X146033635Y-111764360D01*
X146039429Y-111751035D01*
X146084562Y-111602016D01*
X146087010Y-111589393D01*
X146093244Y-111519544D01*
X146090272Y-111504625D01*
X146078464Y-111501500D01*
X145382115Y-111501499D01*
X145366876Y-111505974D01*
X145365671Y-111507364D01*
X145364000Y-111515047D01*
X145363999Y-112179885D01*
X144856000Y-112179885D01*
X144856001Y-111501500D01*
X144856000Y-111501496D01*
X144856001Y-111119500D01*
X144876003Y-111051379D01*
X144929659Y-111004886D01*
X144982001Y-110993500D01*
X146075775Y-110993501D01*
X146089843Y-110989370D01*
X146091891Y-110976359D01*
X146079222Y-110867684D01*
X146075877Y-110853532D01*
X146023044Y-110707981D01*
X146016534Y-110694982D01*
X145931635Y-110565489D01*
X145922311Y-110554337D01*
X145917678Y-110549948D01*
X145881980Y-110488579D01*
X145885128Y-110417652D01*
X145912858Y-110371822D01*
X145952586Y-110329885D01*
X146037767Y-110183234D01*
X146086927Y-110020920D01*
X146098500Y-109891250D01*
X146098500Y-109453751D01*
X146078860Y-109285297D01*
X146075544Y-109276160D01*
X146023491Y-109132757D01*
X146020994Y-109125878D01*
X145928007Y-108984049D01*
X145804885Y-108867414D01*
X145658234Y-108782233D01*
X145514261Y-108738628D01*
X145502111Y-108734948D01*
X145502110Y-108734948D01*
X145495920Y-108733073D01*
X145489480Y-108732498D01*
X145489479Y-108732498D01*
X145369043Y-108721749D01*
X145369037Y-108721749D01*
X145366250Y-108721500D01*
X144853751Y-108721500D01*
X144738398Y-108734949D01*
X144692569Y-108740292D01*
X144692568Y-108740292D01*
X144685297Y-108741140D01*
X144678419Y-108743636D01*
X144678417Y-108743637D01*
X144577933Y-108780111D01*
X144525878Y-108799006D01*
X144384049Y-108891993D01*
X144267414Y-109015115D01*
X144267327Y-109015033D01*
X144213252Y-109055541D01*
X144169180Y-109063500D01*
X143889154Y-109063500D01*
X143821033Y-109043498D01*
X143783783Y-109006586D01*
X143773021Y-108990172D01*
X143773020Y-108990171D01*
X143769007Y-108984050D01*
X143645885Y-108867415D01*
X143631022Y-108858782D01*
X143622213Y-108853665D01*
X143573355Y-108802154D01*
X143559500Y-108744712D01*
X143559500Y-107460496D01*
X143579502Y-107392375D01*
X143633158Y-107345882D01*
X143685500Y-107334496D01*
X143716373Y-107334496D01*
X143784494Y-107354498D01*
X143825410Y-107401718D01*
X143826359Y-107401108D01*
X143830599Y-107407705D01*
X143830985Y-107408151D01*
X143831230Y-107408688D01*
X143900426Y-107516360D01*
X143912112Y-107529847D01*
X144008840Y-107613662D01*
X144023848Y-107623307D01*
X144140275Y-107676477D01*
X144157388Y-107681502D01*
X144288554Y-107700361D01*
X144297495Y-107701000D01*
X144924885Y-107701000D01*
X144940124Y-107696525D01*
X144941329Y-107695135D01*
X144943000Y-107687452D01*
X144943000Y-107185500D01*
X144963002Y-107117379D01*
X145016658Y-107070886D01*
X145069000Y-107059500D01*
X145094578Y-107059500D01*
X145098502Y-107059004D01*
X145098504Y-107059004D01*
X145098852Y-107058960D01*
X145110698Y-107058027D01*
X145154883Y-107056638D01*
X145162499Y-107054425D01*
X145170324Y-107053186D01*
X145170507Y-107054343D01*
X145190501Y-107051500D01*
X145269284Y-107051500D01*
X145337405Y-107071502D01*
X145383898Y-107125158D01*
X145392933Y-107188000D01*
X145393000Y-107188000D01*
X145393000Y-107188463D01*
X145394002Y-107195432D01*
X145393000Y-107200985D01*
X145393000Y-107682885D01*
X145397475Y-107698124D01*
X145398865Y-107699329D01*
X145406548Y-107701000D01*
X146040743Y-107701000D01*
X146045250Y-107700839D01*
X146109269Y-107696260D01*
X146122491Y-107693874D01*
X146247458Y-107657181D01*
X146263692Y-107649767D01*
X146371360Y-107580574D01*
X146384847Y-107568888D01*
X146468662Y-107472160D01*
X146478307Y-107457152D01*
X146531477Y-107340725D01*
X146536502Y-107323612D01*
X146553422Y-107205929D01*
X146551416Y-107191973D01*
X146537885Y-107188000D01*
X146400828Y-107188000D01*
X146332707Y-107167998D01*
X146286214Y-107114342D01*
X146276110Y-107044068D01*
X146305604Y-106979488D01*
X146332707Y-106956002D01*
X146371691Y-106930949D01*
X146371694Y-106930947D01*
X146379271Y-106926077D01*
X146474984Y-106815619D01*
X146482278Y-106799648D01*
X146528773Y-106745994D01*
X146551191Y-106735756D01*
X146552753Y-106733953D01*
X146554871Y-106722215D01*
X146551260Y-106671727D01*
X146547676Y-106651863D01*
X146549294Y-106651571D01*
X146546263Y-106609200D01*
X146554893Y-106549175D01*
X146584386Y-106484595D01*
X146644112Y-106446212D01*
X146715109Y-106446212D01*
X146736193Y-106455242D01*
X146736250Y-106455114D01*
X146780805Y-106474951D01*
X146910713Y-106532790D01*
X147004113Y-106552643D01*
X147091056Y-106571124D01*
X147091061Y-106571124D01*
X147097513Y-106572496D01*
X147288487Y-106572496D01*
X147294939Y-106571124D01*
X147294944Y-106571124D01*
X147381887Y-106552643D01*
X147475287Y-106532790D01*
X147583535Y-106484595D01*
X147643720Y-106457799D01*
X147643722Y-106457798D01*
X147649750Y-106455114D01*
X147655092Y-106451233D01*
X147798907Y-106346746D01*
X147798909Y-106346744D01*
X147804251Y-106342863D01*
X147831765Y-106312305D01*
X147892210Y-106275067D01*
X147963194Y-106276419D01*
G37*
G04 #@! TD.AperFunction*
G04 #@! TA.AperFunction,Conductor*
G36*
X151085112Y-107501409D02*
G01*
X151097825Y-107514121D01*
X151100051Y-107516690D01*
X151104923Y-107524271D01*
X151111733Y-107530172D01*
X151111734Y-107530173D01*
X151208569Y-107614082D01*
X151208572Y-107614084D01*
X151215381Y-107619984D01*
X151223579Y-107623728D01*
X151272668Y-107646146D01*
X151348330Y-107680700D01*
X151357245Y-107681982D01*
X151357246Y-107681982D01*
X151488552Y-107700861D01*
X151488559Y-107700862D01*
X151493000Y-107701500D01*
X153243000Y-107701500D01*
X153297871Y-107697575D01*
X153367244Y-107712666D01*
X153395955Y-107734159D01*
X154625096Y-108963300D01*
X154659122Y-109025612D01*
X154662001Y-109052395D01*
X154662001Y-109157262D01*
X154641999Y-109225383D01*
X154616823Y-109253925D01*
X154613167Y-109256982D01*
X154607049Y-109260993D01*
X154602018Y-109266304D01*
X154602013Y-109266308D01*
X154597244Y-109271342D01*
X154535875Y-109307039D01*
X154464948Y-109303891D01*
X154419119Y-109276160D01*
X154382902Y-109241851D01*
X154371255Y-109233138D01*
X154237360Y-109155365D01*
X154224035Y-109149571D01*
X154075016Y-109104438D01*
X154062393Y-109101990D01*
X153992544Y-109095756D01*
X153977625Y-109098728D01*
X153974500Y-109110535D01*
X153974500Y-112695775D01*
X153978631Y-112709843D01*
X153991642Y-112711891D01*
X154100319Y-112699222D01*
X154114466Y-112695878D01*
X154260022Y-112643043D01*
X154273017Y-112636535D01*
X154402511Y-112551635D01*
X154413663Y-112542311D01*
X154418052Y-112537678D01*
X154479421Y-112501980D01*
X154550348Y-112505128D01*
X154596178Y-112532858D01*
X154638115Y-112572586D01*
X154638633Y-112572887D01*
X154679542Y-112627498D01*
X154687501Y-112671569D01*
X154687501Y-113004761D01*
X154667499Y-113072882D01*
X154650596Y-113093856D01*
X154415431Y-113329021D01*
X154403042Y-113339887D01*
X154386487Y-113352591D01*
X154379190Y-113358190D01*
X154281693Y-113485251D01*
X154278533Y-113492881D01*
X154278532Y-113492882D01*
X154240156Y-113585531D01*
X154227642Y-113615745D01*
X154227640Y-113615750D01*
X154224926Y-113622303D01*
X154220405Y-113633216D01*
X154219327Y-113641402D01*
X154219327Y-113641403D01*
X154215716Y-113668832D01*
X154204500Y-113754023D01*
X154204500Y-113754028D01*
X154199501Y-113792000D01*
X154200579Y-113800188D01*
X154200579Y-113800189D01*
X154203422Y-113821784D01*
X154204500Y-113838229D01*
X154204501Y-114571743D01*
X154204501Y-115265131D01*
X154184499Y-115333252D01*
X154143868Y-115372849D01*
X154009631Y-115454306D01*
X154005601Y-115457803D01*
X153849941Y-115592877D01*
X153835492Y-115605415D01*
X153832109Y-115609541D01*
X153832105Y-115609545D01*
X153738421Y-115723802D01*
X153689304Y-115783705D01*
X153686667Y-115788338D01*
X153686666Y-115788339D01*
X153653116Y-115847278D01*
X153602033Y-115896584D01*
X153532402Y-115910445D01*
X153466332Y-115884461D01*
X153439094Y-115855312D01*
X153433686Y-115847278D01*
X153350151Y-115723199D01*
X153338607Y-115706052D01*
X153338605Y-115706050D01*
X153335627Y-115701626D01*
X153322301Y-115687656D01*
X153240507Y-115601915D01*
X153176482Y-115534799D01*
X152991504Y-115397171D01*
X152986753Y-115394755D01*
X152986749Y-115394753D01*
X152790740Y-115295097D01*
X152790739Y-115295097D01*
X152785982Y-115292678D01*
X152674282Y-115257994D01*
X152570895Y-115225891D01*
X152570889Y-115225890D01*
X152565792Y-115224307D01*
X152459150Y-115210173D01*
X152342515Y-115194714D01*
X152342510Y-115194714D01*
X152337230Y-115194014D01*
X152331900Y-115194214D01*
X152331899Y-115194214D01*
X152238320Y-115197727D01*
X152106831Y-115202663D01*
X152038302Y-115217042D01*
X151886411Y-115248912D01*
X151886408Y-115248913D01*
X151881184Y-115250009D01*
X151666740Y-115334697D01*
X151469631Y-115454306D01*
X151465601Y-115457803D01*
X151309941Y-115592877D01*
X151295492Y-115605415D01*
X151292109Y-115609541D01*
X151292105Y-115609545D01*
X151198421Y-115723802D01*
X151149304Y-115783705D01*
X151146667Y-115788338D01*
X151146666Y-115788339D01*
X151113116Y-115847278D01*
X151062033Y-115896584D01*
X150992402Y-115910445D01*
X150926332Y-115884461D01*
X150899094Y-115855312D01*
X150893686Y-115847278D01*
X150810151Y-115723199D01*
X150798607Y-115706052D01*
X150798605Y-115706050D01*
X150795627Y-115701626D01*
X150791946Y-115697767D01*
X150791941Y-115697761D01*
X150665734Y-115565461D01*
X150633187Y-115502365D01*
X150639919Y-115431688D01*
X150667809Y-115389395D01*
X150835622Y-115221582D01*
X150843700Y-115214231D01*
X150850094Y-115210173D01*
X150857147Y-115202663D01*
X150895960Y-115161331D01*
X150898715Y-115158489D01*
X150919037Y-115138167D01*
X150921680Y-115134760D01*
X150929389Y-115125733D01*
X150954230Y-115099280D01*
X150959657Y-115093501D01*
X150963476Y-115086555D01*
X150963478Y-115086552D01*
X150969419Y-115075746D01*
X150980271Y-115059226D01*
X150987821Y-115049492D01*
X150992683Y-115043224D01*
X151010239Y-115002654D01*
X151015462Y-114991992D01*
X151032943Y-114960195D01*
X151032943Y-114960194D01*
X151036762Y-114953248D01*
X151039624Y-114942102D01*
X151041802Y-114933623D01*
X151048203Y-114914925D01*
X151053099Y-114903610D01*
X151056247Y-114896336D01*
X151063163Y-114852672D01*
X151065570Y-114841051D01*
X151075087Y-114803982D01*
X151075087Y-114803981D01*
X151076565Y-114798225D01*
X151076600Y-114797669D01*
X151076600Y-114777747D01*
X151078151Y-114758036D01*
X151080044Y-114746084D01*
X151081284Y-114738256D01*
X151077159Y-114694617D01*
X151076600Y-114682760D01*
X151076600Y-111993606D01*
X152770858Y-111993606D01*
X152788778Y-112147319D01*
X152792122Y-112161466D01*
X152844957Y-112307022D01*
X152851465Y-112320017D01*
X152936365Y-112449511D01*
X152945689Y-112460663D01*
X153058098Y-112567149D01*
X153069745Y-112575862D01*
X153203640Y-112653635D01*
X153216965Y-112659429D01*
X153365984Y-112704562D01*
X153378607Y-112707010D01*
X153448456Y-112713244D01*
X153463375Y-112710272D01*
X153466500Y-112698465D01*
X153466500Y-112002115D01*
X153462025Y-111986876D01*
X153460635Y-111985671D01*
X153452952Y-111984000D01*
X152788115Y-111984000D01*
X152772876Y-111988475D01*
X152771671Y-111989865D01*
X152770858Y-111993606D01*
X151076600Y-111993606D01*
X151076600Y-110776183D01*
X151077114Y-110765279D01*
X151078766Y-110757888D01*
X151078329Y-110743965D01*
X151076662Y-110690934D01*
X151076600Y-110686976D01*
X151076600Y-110658222D01*
X151076061Y-110653955D01*
X151075127Y-110642105D01*
X151074853Y-110633362D01*
X151073739Y-110597917D01*
X151068088Y-110578466D01*
X151064078Y-110559104D01*
X151062533Y-110546870D01*
X151062532Y-110546867D01*
X151061540Y-110539012D01*
X151058624Y-110531647D01*
X151058623Y-110531643D01*
X151045263Y-110497899D01*
X151041418Y-110486670D01*
X151038779Y-110477586D01*
X151029086Y-110444222D01*
X151018778Y-110426793D01*
X151010079Y-110409035D01*
X151002622Y-110390200D01*
X150976923Y-110354828D01*
X150976628Y-110354422D01*
X150970113Y-110344503D01*
X150968992Y-110342606D01*
X152770858Y-110342606D01*
X152788778Y-110496319D01*
X152792122Y-110510466D01*
X152844957Y-110656022D01*
X152851465Y-110669017D01*
X152936365Y-110798511D01*
X152945687Y-110809660D01*
X152951179Y-110814863D01*
X152986879Y-110876231D01*
X152983734Y-110947158D01*
X152956001Y-110992992D01*
X152920854Y-111030093D01*
X152912138Y-111041745D01*
X152834365Y-111175640D01*
X152828571Y-111188965D01*
X152783438Y-111337984D01*
X152780990Y-111350607D01*
X152771086Y-111461583D01*
X152774475Y-111473124D01*
X152775865Y-111474329D01*
X152783548Y-111476000D01*
X153448385Y-111476000D01*
X153463624Y-111471525D01*
X153464829Y-111470135D01*
X153466500Y-111462452D01*
X153466500Y-110351115D01*
X153462025Y-110335876D01*
X153460635Y-110334671D01*
X153452952Y-110333000D01*
X152788115Y-110333000D01*
X152772876Y-110337475D01*
X152771671Y-110338865D01*
X152770858Y-110342606D01*
X150968992Y-110342606D01*
X150950629Y-110311559D01*
X150950627Y-110311556D01*
X150947613Y-110306460D01*
X150947245Y-110306042D01*
X150933165Y-110291962D01*
X150920324Y-110276928D01*
X150913210Y-110267136D01*
X150913209Y-110267135D01*
X150908546Y-110260717D01*
X150908752Y-110260567D01*
X150878700Y-110201169D01*
X150876600Y-110178263D01*
X150876600Y-109810583D01*
X152771086Y-109810583D01*
X152774475Y-109822124D01*
X152775865Y-109823329D01*
X152783548Y-109825000D01*
X153448385Y-109825000D01*
X153463624Y-109820525D01*
X153464829Y-109819135D01*
X153466500Y-109811452D01*
X153466500Y-109113225D01*
X153462369Y-109099157D01*
X153449358Y-109097109D01*
X153340681Y-109109778D01*
X153326534Y-109113122D01*
X153180978Y-109165957D01*
X153167983Y-109172465D01*
X153038489Y-109257365D01*
X153027337Y-109266689D01*
X152920851Y-109379098D01*
X152912138Y-109390745D01*
X152834365Y-109524640D01*
X152828571Y-109537965D01*
X152783438Y-109686984D01*
X152780990Y-109699607D01*
X152771086Y-109810583D01*
X150876600Y-109810583D01*
X150876600Y-107596633D01*
X150896602Y-107528512D01*
X150950258Y-107482019D01*
X151020532Y-107471915D01*
X151085112Y-107501409D01*
G37*
G04 #@! TD.AperFunction*
G04 #@! TA.AperFunction,Conductor*
G36*
X164279581Y-94278551D02*
G01*
X164326397Y-94331926D01*
X164338101Y-94384958D01*
X164338100Y-115427695D01*
X164318098Y-115495816D01*
X164264442Y-115542309D01*
X164194168Y-115552413D01*
X164129588Y-115522919D01*
X164096116Y-115476927D01*
X164050989Y-115370614D01*
X164050988Y-115370612D01*
X164049012Y-115365957D01*
X163917650Y-115157356D01*
X163903202Y-115140968D01*
X163757972Y-114976238D01*
X163757970Y-114976236D01*
X163754625Y-114972442D01*
X163696769Y-114924918D01*
X163568044Y-114819181D01*
X163568038Y-114819177D01*
X163564134Y-114815970D01*
X163351076Y-114691967D01*
X163327091Y-114682760D01*
X163125657Y-114605437D01*
X163125653Y-114605436D01*
X163120933Y-114603624D01*
X163115983Y-114602590D01*
X163115980Y-114602589D01*
X162884577Y-114554246D01*
X162884573Y-114554246D01*
X162879626Y-114553212D01*
X162633363Y-114542029D01*
X162628343Y-114542610D01*
X162628339Y-114542610D01*
X162536711Y-114553212D01*
X162388480Y-114570363D01*
X162383606Y-114571742D01*
X162383602Y-114571743D01*
X162156146Y-114636107D01*
X162156144Y-114636108D01*
X162151277Y-114637485D01*
X162146701Y-114639619D01*
X162146695Y-114639621D01*
X161932439Y-114739530D01*
X161932435Y-114739532D01*
X161927857Y-114741667D01*
X161923676Y-114744509D01*
X161923675Y-114744509D01*
X161903771Y-114758036D01*
X161723968Y-114880230D01*
X161629856Y-114969227D01*
X161585182Y-115011474D01*
X161544856Y-115049608D01*
X161541778Y-115053634D01*
X161541777Y-115053635D01*
X161398200Y-115241425D01*
X161398197Y-115241429D01*
X161395127Y-115245445D01*
X161392737Y-115249903D01*
X161392736Y-115249904D01*
X161338833Y-115350433D01*
X161289015Y-115401016D01*
X161219758Y-115416636D01*
X161153050Y-115392332D01*
X161134717Y-115375394D01*
X161131077Y-115369729D01*
X161109724Y-115351226D01*
X161027431Y-115279918D01*
X161027428Y-115279916D01*
X161020619Y-115274016D01*
X160985536Y-115257994D01*
X160895864Y-115217042D01*
X160895863Y-115217042D01*
X160887670Y-115213300D01*
X160878755Y-115212018D01*
X160878754Y-115212018D01*
X160747448Y-115193139D01*
X160747441Y-115193138D01*
X160743000Y-115192500D01*
X159043000Y-115192500D01*
X158969921Y-115197727D01*
X158918369Y-115212864D01*
X158838330Y-115236365D01*
X158838328Y-115236366D01*
X158829684Y-115238904D01*
X158812162Y-115250165D01*
X158714309Y-115313051D01*
X158714306Y-115313053D01*
X158706729Y-115317923D01*
X158700828Y-115324733D01*
X158616918Y-115421569D01*
X158616916Y-115421572D01*
X158611016Y-115428381D01*
X158550300Y-115561330D01*
X158549215Y-115568875D01*
X158511209Y-115628011D01*
X158446628Y-115657504D01*
X158376354Y-115647399D01*
X158337528Y-115619757D01*
X158260167Y-115538661D01*
X158260162Y-115538656D01*
X158256482Y-115534799D01*
X158071504Y-115397171D01*
X158066753Y-115394755D01*
X158066749Y-115394753D01*
X158030395Y-115376270D01*
X157978737Y-115327566D01*
X157961500Y-115263953D01*
X157961500Y-113838229D01*
X157962578Y-113821783D01*
X157965421Y-113800188D01*
X157965421Y-113800187D01*
X157966499Y-113791999D01*
X157961500Y-113754023D01*
X157961500Y-113754022D01*
X157950284Y-113668833D01*
X157945595Y-113633213D01*
X157942437Y-113625587D01*
X157912641Y-113553656D01*
X157912640Y-113553654D01*
X157887468Y-113492881D01*
X157887467Y-113492880D01*
X157884307Y-113485250D01*
X157786810Y-113358190D01*
X157762965Y-113339893D01*
X157750574Y-113329026D01*
X157668405Y-113246857D01*
X157634379Y-113184545D01*
X157631500Y-113157762D01*
X157631500Y-112668154D01*
X157651502Y-112600033D01*
X157688414Y-112562783D01*
X157704828Y-112552021D01*
X157704829Y-112552020D01*
X157710950Y-112548007D01*
X157715983Y-112542695D01*
X157715988Y-112542690D01*
X157720756Y-112537657D01*
X157782125Y-112501960D01*
X157853052Y-112505108D01*
X157898881Y-112532839D01*
X157935098Y-112567148D01*
X157946745Y-112575861D01*
X158080638Y-112653633D01*
X158093970Y-112659430D01*
X158242981Y-112704561D01*
X158255607Y-112707010D01*
X158325456Y-112713244D01*
X158340375Y-112710272D01*
X158343500Y-112698464D01*
X158343500Y-112695775D01*
X158851499Y-112695775D01*
X158855630Y-112709843D01*
X158868641Y-112711891D01*
X158977318Y-112699222D01*
X158991465Y-112695878D01*
X159137021Y-112643043D01*
X159150016Y-112636535D01*
X159279510Y-112551635D01*
X159290662Y-112542311D01*
X159397148Y-112429902D01*
X159405861Y-112418255D01*
X159483633Y-112284362D01*
X159489430Y-112271030D01*
X159534561Y-112122019D01*
X159537010Y-112109393D01*
X159546914Y-111998417D01*
X159543525Y-111986876D01*
X159542135Y-111985671D01*
X159534452Y-111984000D01*
X158869615Y-111983999D01*
X158854376Y-111988474D01*
X158853171Y-111989864D01*
X158851500Y-111997547D01*
X158851499Y-112695775D01*
X158343500Y-112695775D01*
X158343501Y-111984000D01*
X158343500Y-111983996D01*
X158343501Y-111102003D01*
X158343500Y-111101997D01*
X158343500Y-110706997D01*
X158851499Y-110706997D01*
X158851500Y-110707003D01*
X158851499Y-111457885D01*
X158855974Y-111473124D01*
X158857364Y-111474329D01*
X158865047Y-111476000D01*
X159529885Y-111476001D01*
X159545124Y-111471526D01*
X159546329Y-111470136D01*
X159547142Y-111466395D01*
X159529222Y-111312682D01*
X159525878Y-111298535D01*
X159473043Y-111152979D01*
X159466535Y-111139984D01*
X159381635Y-111010490D01*
X159372309Y-110999336D01*
X159366820Y-110994136D01*
X159331120Y-110932768D01*
X159334265Y-110861841D01*
X159361998Y-110816008D01*
X159397145Y-110778907D01*
X159405861Y-110767255D01*
X159483633Y-110633362D01*
X159489430Y-110620030D01*
X159534561Y-110471019D01*
X159537010Y-110458393D01*
X159546914Y-110347417D01*
X159543525Y-110335876D01*
X159542135Y-110334671D01*
X159534452Y-110333000D01*
X158869615Y-110332999D01*
X158854376Y-110337474D01*
X158853171Y-110338864D01*
X158851500Y-110346547D01*
X158851499Y-110706997D01*
X158343500Y-110706997D01*
X158343501Y-110333000D01*
X158343500Y-110332996D01*
X158343501Y-109113225D01*
X158339370Y-109099157D01*
X158326359Y-109097109D01*
X158217682Y-109109778D01*
X158203535Y-109113122D01*
X158057979Y-109165957D01*
X158044984Y-109172465D01*
X157915490Y-109257365D01*
X157904333Y-109266693D01*
X157899947Y-109271323D01*
X157838578Y-109307021D01*
X157767651Y-109303873D01*
X157721822Y-109276143D01*
X157679885Y-109236415D01*
X157620485Y-109201913D01*
X157539567Y-109154912D01*
X157539564Y-109154911D01*
X157533234Y-109151234D01*
X157497342Y-109140363D01*
X157405333Y-109112496D01*
X157370920Y-109102073D01*
X157364484Y-109101499D01*
X157364481Y-109101498D01*
X157244044Y-109090749D01*
X157244036Y-109090749D01*
X157241250Y-109090500D01*
X157240597Y-109090500D01*
X157173755Y-109067593D01*
X157157435Y-109053830D01*
X156969900Y-108866295D01*
X156935874Y-108803983D01*
X156940939Y-108733168D01*
X156983486Y-108676332D01*
X157050006Y-108651521D01*
X157058995Y-108651200D01*
X158537706Y-108651200D01*
X158605827Y-108671202D01*
X158625051Y-108687542D01*
X158625325Y-108687238D01*
X158630227Y-108691652D01*
X158634649Y-108696563D01*
X158639991Y-108700444D01*
X158639993Y-108700446D01*
X158783808Y-108804933D01*
X158789150Y-108808814D01*
X158795176Y-108811497D01*
X158795183Y-108811501D01*
X158897126Y-108856888D01*
X158951222Y-108902868D01*
X158971872Y-108970795D01*
X158952520Y-109039103D01*
X158899309Y-109086105D01*
X158870489Y-109095568D01*
X158854625Y-109098728D01*
X158851500Y-109110536D01*
X158851499Y-109806885D01*
X158855974Y-109822124D01*
X158857364Y-109823329D01*
X158865047Y-109825000D01*
X159529885Y-109825001D01*
X159545124Y-109820526D01*
X159546329Y-109819136D01*
X159547142Y-109815395D01*
X159529222Y-109661682D01*
X159525878Y-109647535D01*
X159473043Y-109501979D01*
X159466535Y-109488984D01*
X159381635Y-109359490D01*
X159372311Y-109348338D01*
X159259902Y-109241852D01*
X159248255Y-109233139D01*
X159124318Y-109161150D01*
X159075460Y-109109639D01*
X159062206Y-109039890D01*
X159088766Y-108974049D01*
X159146706Y-108933018D01*
X159187604Y-108926196D01*
X159341387Y-108926196D01*
X159347839Y-108924824D01*
X159347844Y-108924824D01*
X159434787Y-108906343D01*
X159528187Y-108886490D01*
X159534218Y-108883805D01*
X159696620Y-108811499D01*
X159696622Y-108811498D01*
X159702650Y-108808814D01*
X159707992Y-108804933D01*
X159851807Y-108700446D01*
X159851809Y-108700444D01*
X159857151Y-108696563D01*
X159879986Y-108671202D01*
X159980518Y-108559550D01*
X159980519Y-108559549D01*
X159984937Y-108554642D01*
X160054601Y-108433981D01*
X160077120Y-108394977D01*
X160077121Y-108394976D01*
X160080424Y-108389254D01*
X160139438Y-108207627D01*
X160159400Y-108017700D01*
X160153187Y-107958583D01*
X160140128Y-107834337D01*
X160140128Y-107834336D01*
X160139438Y-107827773D01*
X160080424Y-107646146D01*
X159984937Y-107480758D01*
X159977196Y-107472160D01*
X159861573Y-107343748D01*
X159861572Y-107343747D01*
X159857151Y-107338837D01*
X159851809Y-107334956D01*
X159851807Y-107334954D01*
X159707992Y-107230467D01*
X159707991Y-107230466D01*
X159702650Y-107226586D01*
X159696622Y-107223902D01*
X159696620Y-107223901D01*
X159534218Y-107151595D01*
X159534217Y-107151595D01*
X159528187Y-107148910D01*
X159416444Y-107125158D01*
X159347844Y-107110576D01*
X159347839Y-107110576D01*
X159341387Y-107109204D01*
X159150413Y-107109204D01*
X159143961Y-107110576D01*
X159143956Y-107110576D01*
X159075356Y-107125158D01*
X158963613Y-107148910D01*
X158957583Y-107151595D01*
X158957582Y-107151595D01*
X158937332Y-107160611D01*
X158814748Y-107215189D01*
X158744382Y-107224623D01*
X158680085Y-107194517D01*
X158642272Y-107134428D01*
X158637500Y-107100082D01*
X158637500Y-106545500D01*
X158657502Y-106477379D01*
X158711158Y-106430886D01*
X158763500Y-106419500D01*
X160316845Y-106419500D01*
X160384966Y-106439502D01*
X160413508Y-106464678D01*
X160416981Y-106468832D01*
X160420993Y-106474951D01*
X160544115Y-106591586D01*
X160690766Y-106676767D01*
X160853080Y-106725927D01*
X160859520Y-106726502D01*
X160859521Y-106726502D01*
X160979957Y-106737251D01*
X160979963Y-106737251D01*
X160982750Y-106737500D01*
X161495249Y-106737500D01*
X161626350Y-106722215D01*
X161656431Y-106718708D01*
X161656432Y-106718708D01*
X161663703Y-106717860D01*
X161670581Y-106715364D01*
X161670583Y-106715363D01*
X161816243Y-106662491D01*
X161823122Y-106659994D01*
X161964951Y-106567007D01*
X162081586Y-106443885D01*
X162166767Y-106297234D01*
X162210291Y-106153530D01*
X162214052Y-106141111D01*
X162214052Y-106141110D01*
X162215927Y-106134920D01*
X162224153Y-106042750D01*
X162227251Y-106008043D01*
X162227251Y-106008037D01*
X162227500Y-106005250D01*
X162227500Y-105567751D01*
X162207860Y-105399297D01*
X162199457Y-105376145D01*
X162152491Y-105246757D01*
X162149994Y-105239878D01*
X162076026Y-105127058D01*
X162061023Y-105104174D01*
X162061022Y-105104172D01*
X162057007Y-105098049D01*
X162051686Y-105093008D01*
X162046658Y-105088244D01*
X162010961Y-105026875D01*
X162014109Y-104955948D01*
X162041840Y-104910119D01*
X162076149Y-104873902D01*
X162084862Y-104862255D01*
X162162635Y-104728360D01*
X162168429Y-104715035D01*
X162213562Y-104566016D01*
X162216010Y-104553393D01*
X162222244Y-104483544D01*
X162219272Y-104468625D01*
X162207464Y-104465500D01*
X161493002Y-104465499D01*
X161492996Y-104465500D01*
X160273225Y-104465499D01*
X160259157Y-104469630D01*
X160257109Y-104482641D01*
X160269778Y-104591316D01*
X160273123Y-104605468D01*
X160325956Y-104751019D01*
X160332466Y-104764018D01*
X160417365Y-104893511D01*
X160426689Y-104904663D01*
X160431322Y-104909052D01*
X160467020Y-104970421D01*
X160463872Y-105041348D01*
X160436142Y-105087178D01*
X160420723Y-105103454D01*
X160411534Y-105113154D01*
X160350164Y-105148851D01*
X160320062Y-105152500D01*
X158763500Y-105152500D01*
X158695379Y-105132498D01*
X158648886Y-105078842D01*
X158637500Y-105026500D01*
X158637500Y-103939456D01*
X160255756Y-103939456D01*
X160258728Y-103954375D01*
X160270536Y-103957500D01*
X160966885Y-103957501D01*
X160982124Y-103953026D01*
X160983329Y-103951636D01*
X160985000Y-103943953D01*
X160985000Y-103939385D01*
X161492999Y-103939385D01*
X161497474Y-103954624D01*
X161498864Y-103955829D01*
X161506547Y-103957500D01*
X162204775Y-103957501D01*
X162218843Y-103953370D01*
X162220891Y-103940359D01*
X162208222Y-103831684D01*
X162204877Y-103817532D01*
X162152044Y-103671981D01*
X162145534Y-103658982D01*
X162060635Y-103529489D01*
X162051311Y-103518337D01*
X161938902Y-103411851D01*
X161927255Y-103403138D01*
X161793360Y-103325365D01*
X161780035Y-103319571D01*
X161631016Y-103274438D01*
X161618393Y-103271990D01*
X161507417Y-103262086D01*
X161495876Y-103265475D01*
X161494671Y-103266865D01*
X161493000Y-103274548D01*
X161492999Y-103939385D01*
X160985000Y-103939385D01*
X160985001Y-103279115D01*
X160980526Y-103263876D01*
X160979136Y-103262671D01*
X160975395Y-103261858D01*
X160821684Y-103279778D01*
X160807532Y-103283123D01*
X160661981Y-103335956D01*
X160648982Y-103342466D01*
X160519489Y-103427365D01*
X160508337Y-103436689D01*
X160401851Y-103549098D01*
X160393138Y-103560745D01*
X160315365Y-103694640D01*
X160309571Y-103707965D01*
X160264438Y-103856984D01*
X160261990Y-103869607D01*
X160255756Y-103939456D01*
X158637500Y-103939456D01*
X158637500Y-102833000D01*
X158632273Y-102759921D01*
X158608846Y-102680136D01*
X158593635Y-102628330D01*
X158593634Y-102628328D01*
X158591096Y-102619684D01*
X158545393Y-102548569D01*
X158516949Y-102504309D01*
X158516947Y-102504306D01*
X158512077Y-102496729D01*
X158473219Y-102463058D01*
X158408431Y-102406918D01*
X158408428Y-102406916D01*
X158401619Y-102401016D01*
X158392558Y-102396878D01*
X158276864Y-102344042D01*
X158276863Y-102344042D01*
X158268670Y-102340300D01*
X158259755Y-102339018D01*
X158259754Y-102339018D01*
X158128448Y-102320139D01*
X158128441Y-102320138D01*
X158124000Y-102319500D01*
X156124000Y-102319500D01*
X156050921Y-102324727D01*
X155972835Y-102347655D01*
X155919330Y-102363365D01*
X155919328Y-102363366D01*
X155910684Y-102365904D01*
X155882699Y-102383889D01*
X155795309Y-102440051D01*
X155795306Y-102440053D01*
X155787729Y-102444923D01*
X155781828Y-102451733D01*
X155697918Y-102548569D01*
X155697916Y-102548572D01*
X155692016Y-102555381D01*
X155631300Y-102688330D01*
X155610500Y-102833000D01*
X155610500Y-102833889D01*
X155586009Y-102899554D01*
X155529173Y-102942101D01*
X155458357Y-102947167D01*
X155396045Y-102913141D01*
X154667489Y-102184585D01*
X154633463Y-102122273D01*
X154638528Y-102051458D01*
X154667484Y-102006399D01*
X154677152Y-101996731D01*
X155994544Y-100679212D01*
X157290223Y-99383409D01*
X157352534Y-99349381D01*
X157379323Y-99346500D01*
X158124000Y-99346500D01*
X158197079Y-99341273D01*
X158291867Y-99313441D01*
X158328670Y-99302635D01*
X158328672Y-99302634D01*
X158337316Y-99300096D01*
X158375472Y-99275574D01*
X158452691Y-99225949D01*
X158452694Y-99225947D01*
X158460271Y-99221077D01*
X158466172Y-99214267D01*
X158550082Y-99117431D01*
X158550084Y-99117428D01*
X158555984Y-99110619D01*
X158585800Y-99045331D01*
X158612958Y-98985864D01*
X158612958Y-98985863D01*
X158616700Y-98977670D01*
X158622726Y-98935756D01*
X158636861Y-98837448D01*
X158636862Y-98837441D01*
X158637500Y-98833000D01*
X158637500Y-97675241D01*
X160257109Y-97675241D01*
X160269778Y-97783918D01*
X160273122Y-97798065D01*
X160325957Y-97943621D01*
X160332465Y-97956616D01*
X160417365Y-98086110D01*
X160426689Y-98097262D01*
X160539098Y-98203748D01*
X160550745Y-98212461D01*
X160684640Y-98290234D01*
X160697965Y-98296028D01*
X160846983Y-98341161D01*
X160859608Y-98343609D01*
X160970583Y-98353514D01*
X160982124Y-98350125D01*
X160983329Y-98348735D01*
X160985000Y-98341052D01*
X160985000Y-98336485D01*
X161492999Y-98336485D01*
X161497474Y-98351724D01*
X161498864Y-98352929D01*
X161502605Y-98353742D01*
X161656318Y-98335822D01*
X161670465Y-98332478D01*
X161816021Y-98279643D01*
X161829016Y-98273135D01*
X161958510Y-98188235D01*
X161969662Y-98178911D01*
X162076148Y-98066502D01*
X162084861Y-98054855D01*
X162162634Y-97920960D01*
X162168428Y-97907635D01*
X162213561Y-97758617D01*
X162216009Y-97745992D01*
X162222243Y-97676146D01*
X162219272Y-97661225D01*
X162207462Y-97658100D01*
X161511115Y-97658099D01*
X161495876Y-97662574D01*
X161494671Y-97663964D01*
X161493000Y-97671647D01*
X161492999Y-98336485D01*
X160985000Y-98336485D01*
X160985001Y-97676215D01*
X160980526Y-97660976D01*
X160979136Y-97659771D01*
X160971453Y-97658100D01*
X160273225Y-97658099D01*
X160259157Y-97662230D01*
X160257109Y-97675241D01*
X158637500Y-97675241D01*
X158637500Y-96588600D01*
X158657502Y-96520479D01*
X158711158Y-96473986D01*
X158763500Y-96462600D01*
X160317264Y-96462600D01*
X160385385Y-96482602D01*
X160413927Y-96507778D01*
X160416981Y-96511430D01*
X160420993Y-96517550D01*
X160426305Y-96522583D01*
X160426310Y-96522588D01*
X160431343Y-96527356D01*
X160467040Y-96588725D01*
X160463892Y-96659652D01*
X160436161Y-96705481D01*
X160401852Y-96741698D01*
X160393139Y-96753345D01*
X160315366Y-96887240D01*
X160309572Y-96900565D01*
X160264439Y-97049583D01*
X160261991Y-97062208D01*
X160255757Y-97132054D01*
X160258728Y-97146975D01*
X160270538Y-97150100D01*
X160984998Y-97150101D01*
X160985004Y-97150100D01*
X162204775Y-97150101D01*
X162218843Y-97145970D01*
X162220891Y-97132959D01*
X162208222Y-97024282D01*
X162204878Y-97010135D01*
X162152043Y-96864579D01*
X162145535Y-96851584D01*
X162060635Y-96722090D01*
X162051307Y-96710933D01*
X162046677Y-96706547D01*
X162010979Y-96645178D01*
X162014127Y-96574251D01*
X162041857Y-96528422D01*
X162081585Y-96486485D01*
X162166766Y-96339834D01*
X162197881Y-96237099D01*
X162214051Y-96183712D01*
X162214052Y-96183709D01*
X162215926Y-96177520D01*
X162227500Y-96047850D01*
X162227500Y-95610351D01*
X162207860Y-95441897D01*
X162205363Y-95435019D01*
X162205362Y-95435013D01*
X162190889Y-95395140D01*
X162186448Y-95324282D01*
X162221022Y-95262272D01*
X162283631Y-95228798D01*
X162346167Y-95231657D01*
X162356972Y-95234960D01*
X162361982Y-95235646D01*
X162361985Y-95235647D01*
X162502534Y-95254900D01*
X162601208Y-95268417D01*
X162679512Y-95266503D01*
X162842590Y-95262518D01*
X162842594Y-95262518D01*
X162847651Y-95262394D01*
X163089960Y-95217047D01*
X163321903Y-95133542D01*
X163537511Y-95014028D01*
X163541489Y-95010898D01*
X163541493Y-95010895D01*
X163727262Y-94864710D01*
X163727264Y-94864709D01*
X163731238Y-94861581D01*
X163898099Y-94680120D01*
X164033802Y-94474317D01*
X164097174Y-94333308D01*
X164143342Y-94279373D01*
X164211341Y-94258960D01*
X164279581Y-94278551D01*
G37*
G04 #@! TD.AperFunction*
G04 #@! TA.AperFunction,Conductor*
G36*
X147263622Y-101116502D02*
G01*
X147310115Y-101170158D01*
X147321501Y-101222499D01*
X147321500Y-101447857D01*
X147321500Y-101659481D01*
X147301498Y-101727602D01*
X147289136Y-101743791D01*
X147254407Y-101782362D01*
X147215963Y-101825058D01*
X147195182Y-101861052D01*
X147136289Y-101963058D01*
X147120476Y-101990446D01*
X147061462Y-102172073D01*
X147060772Y-102178636D01*
X147060772Y-102178637D01*
X147046958Y-102310073D01*
X147041500Y-102362000D01*
X147042190Y-102368565D01*
X147058375Y-102522552D01*
X147061462Y-102551927D01*
X147063502Y-102558205D01*
X147063502Y-102558206D01*
X147084465Y-102622723D01*
X147120476Y-102733554D01*
X147123779Y-102739276D01*
X147123780Y-102739277D01*
X147157689Y-102798008D01*
X147215963Y-102898942D01*
X147220381Y-102903849D01*
X147220382Y-102903850D01*
X147268463Y-102957249D01*
X147343749Y-103040863D01*
X147349091Y-103044744D01*
X147349093Y-103044746D01*
X147460522Y-103125703D01*
X147498250Y-103153114D01*
X147504278Y-103155798D01*
X147504280Y-103155799D01*
X147526496Y-103165690D01*
X147672713Y-103230790D01*
X147763088Y-103250000D01*
X147853056Y-103269124D01*
X147853061Y-103269124D01*
X147859513Y-103270496D01*
X147925400Y-103270496D01*
X147993521Y-103290498D01*
X148040014Y-103344154D01*
X148051400Y-103396496D01*
X148051400Y-104931383D01*
X148031398Y-104999504D01*
X147977742Y-105045997D01*
X147907468Y-105056101D01*
X147842888Y-105026607D01*
X147831769Y-105015699D01*
X147804251Y-104985137D01*
X147798909Y-104981256D01*
X147798907Y-104981254D01*
X147655092Y-104876767D01*
X147655091Y-104876766D01*
X147649750Y-104872886D01*
X147643722Y-104870202D01*
X147643720Y-104870201D01*
X147481318Y-104797895D01*
X147481317Y-104797895D01*
X147475287Y-104795210D01*
X147381887Y-104775357D01*
X147294944Y-104756876D01*
X147294939Y-104756876D01*
X147288487Y-104755504D01*
X147097513Y-104755504D01*
X147091061Y-104756876D01*
X147091056Y-104756876D01*
X147004113Y-104775357D01*
X146910713Y-104795210D01*
X146904683Y-104797895D01*
X146904682Y-104797895D01*
X146820220Y-104835500D01*
X146736250Y-104872886D01*
X146735549Y-104871312D01*
X146674851Y-104886044D01*
X146607757Y-104862831D01*
X146563864Y-104807028D01*
X146555154Y-104769176D01*
X146551755Y-104721660D01*
X146551273Y-104714921D01*
X146549369Y-104708438D01*
X146548171Y-104701796D01*
X146549548Y-104701548D01*
X146546433Y-104658022D01*
X146555860Y-104592459D01*
X146555861Y-104592444D01*
X146556500Y-104588000D01*
X146556500Y-104138000D01*
X146552677Y-104084554D01*
X146551755Y-104071658D01*
X146551755Y-104071657D01*
X146551273Y-104064921D01*
X146549370Y-104058441D01*
X146548171Y-104051794D01*
X146549295Y-104051591D01*
X146546097Y-104006876D01*
X146553422Y-103955934D01*
X146551161Y-103940209D01*
X146548928Y-103937632D01*
X146499546Y-103905896D01*
X146488773Y-103891505D01*
X146435946Y-103809305D01*
X146435945Y-103809304D01*
X146431077Y-103801729D01*
X146424271Y-103795831D01*
X146421385Y-103792501D01*
X146391892Y-103727921D01*
X146401995Y-103657647D01*
X146421384Y-103627477D01*
X146469082Y-103572431D01*
X146469084Y-103572428D01*
X146474984Y-103565619D01*
X146482278Y-103549648D01*
X146528773Y-103495994D01*
X146551191Y-103485756D01*
X146552753Y-103483953D01*
X146554871Y-103472215D01*
X146551260Y-103421727D01*
X146547676Y-103401863D01*
X146549294Y-103401571D01*
X146546263Y-103359200D01*
X146556500Y-103288000D01*
X146556500Y-102838000D01*
X146551273Y-102764921D01*
X146549369Y-102758438D01*
X146548171Y-102751796D01*
X146549548Y-102751548D01*
X146546433Y-102708022D01*
X146555860Y-102642459D01*
X146555861Y-102642444D01*
X146556500Y-102638000D01*
X146556500Y-102188000D01*
X146551273Y-102114921D01*
X146549370Y-102108441D01*
X146548171Y-102101794D01*
X146549295Y-102101591D01*
X146546097Y-102056876D01*
X146553422Y-102005934D01*
X146551161Y-101990209D01*
X146548928Y-101987632D01*
X146499546Y-101955896D01*
X146488773Y-101941505D01*
X146435946Y-101859305D01*
X146435945Y-101859304D01*
X146431077Y-101851729D01*
X146424271Y-101845831D01*
X146421385Y-101842501D01*
X146391892Y-101777921D01*
X146401995Y-101707647D01*
X146421384Y-101677477D01*
X146469082Y-101622431D01*
X146469084Y-101622428D01*
X146474984Y-101615619D01*
X146482278Y-101599648D01*
X146528773Y-101545994D01*
X146551191Y-101535756D01*
X146552753Y-101533953D01*
X146554871Y-101522215D01*
X146551260Y-101471727D01*
X146547676Y-101451863D01*
X146549294Y-101451571D01*
X146546263Y-101409200D01*
X146556500Y-101338000D01*
X146556500Y-101222500D01*
X146576502Y-101154379D01*
X146630158Y-101107886D01*
X146682500Y-101096500D01*
X147195501Y-101096500D01*
X147263622Y-101116502D01*
G37*
G04 #@! TD.AperFunction*
M02*
