G04 #@! TF.GenerationSoftware,KiCad,Pcbnew,(5.99.0-6951-g72beaf1538)*
G04 #@! TF.CreationDate,2020-12-13T17:26:36+11:00*
G04 #@! TF.ProjectId,ATM90E26_Breakout,41544d39-3045-4323-965f-427265616b6f,rev?*
G04 #@! TF.SameCoordinates,Original*
G04 #@! TF.FileFunction,Soldermask,Top*
G04 #@! TF.FilePolarity,Negative*
%FSLAX46Y46*%
G04 Gerber Fmt 4.6, Leading zero omitted, Abs format (unit mm)*
G04 Created by KiCad (PCBNEW (5.99.0-6951-g72beaf1538)) date 2020-12-13 17:26:36*
%MOMM*%
%LPD*%
G01*
G04 APERTURE LIST*
G04 Aperture macros list*
%AMRoundRect*
0 Rectangle with rounded corners*
0 $1 Rounding radius*
0 $2 $3 $4 $5 $6 $7 $8 $9 X,Y pos of 4 corners*
0 Add a 4 corners polygon primitive as box body*
4,1,4,$2,$3,$4,$5,$6,$7,$8,$9,$2,$3,0*
0 Add four circle primitives for the rounded corners*
1,1,$1+$1,$2,$3,0*
1,1,$1+$1,$4,$5,0*
1,1,$1+$1,$6,$7,0*
1,1,$1+$1,$8,$9,0*
0 Add four rect primitives between the rounded corners*
20,1,$1+$1,$2,$3,$4,$5,0*
20,1,$1+$1,$4,$5,$6,$7,0*
20,1,$1+$1,$6,$7,$8,$9,0*
20,1,$1+$1,$8,$9,$2,$3,0*%
G04 Aperture macros list end*
%ADD10RoundRect,0.218750X0.256250X-0.218750X0.256250X0.218750X-0.256250X0.218750X-0.256250X-0.218750X0*%
%ADD11RoundRect,0.218750X-0.256250X0.218750X-0.256250X-0.218750X0.256250X-0.218750X0.256250X0.218750X0*%
%ADD12R,2.000000X4.500000*%
%ADD13R,1.700000X1.700000*%
%ADD14O,1.700000X1.700000*%
%ADD15R,1.750000X0.450000*%
%ADD16RoundRect,0.250000X0.275000X-0.312500X0.275000X0.312500X-0.275000X0.312500X-0.275000X-0.312500X0*%
%ADD17RoundRect,0.218750X0.218750X0.256250X-0.218750X0.256250X-0.218750X-0.256250X0.218750X-0.256250X0*%
%ADD18RoundRect,0.218750X-0.218750X-0.256250X0.218750X-0.256250X0.218750X0.256250X-0.218750X0.256250X0*%
G04 APERTURE END LIST*
D10*
X161239000Y-105786500D03*
X161239000Y-104211500D03*
D11*
X161239000Y-95829100D03*
X161239000Y-97404100D03*
D12*
X157124000Y-105083000D03*
X157124000Y-96583000D03*
D13*
X159893000Y-116556000D03*
D14*
X157353000Y-116556000D03*
X154813000Y-116556000D03*
X152273000Y-116556000D03*
X149733000Y-116556000D03*
X147193000Y-116556000D03*
X144653000Y-116556000D03*
X142113000Y-116556000D03*
X139573000Y-116556000D03*
X137033000Y-116556000D03*
D15*
X145168000Y-98513000D03*
X145168000Y-99163000D03*
X145168000Y-99813000D03*
X145168000Y-100463000D03*
X145168000Y-101113000D03*
X145168000Y-101763000D03*
X145168000Y-102413000D03*
X145168000Y-103063000D03*
X145168000Y-103713000D03*
X145168000Y-104363000D03*
X145168000Y-105013000D03*
X145168000Y-105663000D03*
X145168000Y-106313000D03*
X145168000Y-106963000D03*
X152368000Y-106963000D03*
X152368000Y-106313000D03*
X152368000Y-105663000D03*
X152368000Y-105013000D03*
X152368000Y-104363000D03*
X152368000Y-103713000D03*
X152368000Y-103063000D03*
X152368000Y-102413000D03*
X152368000Y-101763000D03*
X152368000Y-101113000D03*
X152368000Y-100463000D03*
X152368000Y-99813000D03*
X152368000Y-99163000D03*
X152368000Y-98513000D03*
D16*
X140284000Y-97758100D03*
X140284000Y-95983100D03*
X141554000Y-107664500D03*
X141554000Y-105889500D03*
D11*
X139700000Y-105989500D03*
X139700000Y-107564500D03*
X140538000Y-99893500D03*
X140538000Y-101468500D03*
X142062000Y-96616500D03*
X142062000Y-98191500D03*
D10*
X142062000Y-101468500D03*
X142062000Y-99893500D03*
D17*
X158597500Y-110079000D03*
X157022500Y-110079000D03*
D18*
X153720500Y-110079000D03*
X155295500Y-110079000D03*
D17*
X158597500Y-111730000D03*
X157022500Y-111730000D03*
D18*
X153720500Y-111730000D03*
X155295500Y-111730000D03*
D10*
X134442000Y-102738500D03*
X134442000Y-101163500D03*
D17*
X137820500Y-101346000D03*
X136245500Y-101346000D03*
X137795500Y-106299000D03*
X136220500Y-106299000D03*
D10*
X134442000Y-106421500D03*
X134442000Y-104846500D03*
D17*
X136042500Y-99410600D03*
X134467500Y-99410600D03*
D18*
X134543500Y-108174000D03*
X136118500Y-108174000D03*
D11*
X140919000Y-109672500D03*
X140919000Y-111247500D03*
X142951000Y-109672500D03*
X142951000Y-111247500D03*
X138760000Y-109672500D03*
X138760000Y-111247500D03*
D10*
X145110000Y-111247500D03*
X145110000Y-109672500D03*
M02*
