G04 #@! TF.GenerationSoftware,KiCad,Pcbnew,(5.99.0-6951-g72beaf1538)*
G04 #@! TF.CreationDate,2020-12-13T17:26:36+11:00*
G04 #@! TF.ProjectId,ATM90E26_Breakout,41544d39-3045-4323-965f-427265616b6f,rev?*
G04 #@! TF.SameCoordinates,Original*
G04 #@! TF.FileFunction,Copper,L2,Bot*
G04 #@! TF.FilePolarity,Positive*
%FSLAX46Y46*%
G04 Gerber Fmt 4.6, Leading zero omitted, Abs format (unit mm)*
G04 Created by KiCad (PCBNEW (5.99.0-6951-g72beaf1538)) date 2020-12-13 17:26:36*
%MOMM*%
%LPD*%
G01*
G04 APERTURE LIST*
G04 #@! TA.AperFunction,ComponentPad*
%ADD10R,1.700000X1.700000*%
G04 #@! TD*
G04 #@! TA.AperFunction,ComponentPad*
%ADD11O,1.700000X1.700000*%
G04 #@! TD*
G04 #@! TA.AperFunction,SMDPad,CuDef*
%ADD12R,1.500000X1.500000*%
G04 #@! TD*
G04 #@! TA.AperFunction,SMDPad,CuDef*
%ADD13R,1.500000X1.300000*%
G04 #@! TD*
G04 #@! TA.AperFunction,ViaPad*
%ADD14C,0.800000*%
G04 #@! TD*
G04 #@! TA.AperFunction,Conductor*
%ADD15C,0.250000*%
G04 #@! TD*
G04 APERTURE END LIST*
D10*
X159893000Y-116556000D03*
D11*
X157353000Y-116556000D03*
X154813000Y-116556000D03*
X152273000Y-116556000D03*
X149733000Y-116556000D03*
X147193000Y-116556000D03*
X144653000Y-116556000D03*
X142113000Y-116556000D03*
X139573000Y-116556000D03*
X137033000Y-116556000D03*
D12*
X162128000Y-105634000D03*
X162128000Y-100554000D03*
X162128000Y-108174000D03*
X162128000Y-103094000D03*
X162128000Y-98013600D03*
X135585000Y-97378600D03*
X135585000Y-110333000D03*
D13*
X147904000Y-97202600D03*
X147904000Y-98902600D03*
X147904000Y-100602600D03*
X149809000Y-100602600D03*
X149809000Y-98902600D03*
X149809000Y-97202600D03*
X148844000Y-105996000D03*
X148844000Y-107696000D03*
X148844000Y-109396000D03*
D14*
X152400000Y-92710000D03*
X156210000Y-92710000D03*
X148590000Y-92710000D03*
X158623000Y-113157000D03*
X153797000Y-113157000D03*
X153670000Y-108966000D03*
X163830000Y-104140000D03*
X133350000Y-111760000D03*
X160020000Y-92710000D03*
X137160000Y-92710000D03*
X163830000Y-100330000D03*
X163830000Y-107950000D03*
X133350000Y-100330000D03*
X144780000Y-92710000D03*
X140970000Y-92710000D03*
X133350000Y-107950000D03*
X163830000Y-111760000D03*
X163830000Y-96520000D03*
X133350000Y-96520000D03*
X133350000Y-104140000D03*
X147955000Y-102362000D03*
X153800300Y-103713000D03*
X141505000Y-108757000D03*
X143764000Y-106426000D03*
X143383000Y-96647000D03*
X141224000Y-98933000D03*
X147193000Y-105664000D03*
X142500000Y-104000000D03*
X139000000Y-104000000D03*
X142500000Y-103000000D03*
X139000000Y-102500000D03*
X150937800Y-104937400D03*
X153802700Y-104731900D03*
X137541000Y-108204000D03*
X137511000Y-99410600D03*
X149765400Y-110978600D03*
X154559000Y-98552000D03*
X143637000Y-98552000D03*
X159245900Y-108017700D03*
X150920900Y-103063000D03*
D15*
X153797000Y-113157000D02*
X158623000Y-113157000D01*
X149809000Y-97202600D02*
X147904000Y-97202600D01*
X143970300Y-97202600D02*
X142952000Y-98220900D01*
X138160700Y-116301600D02*
X146441300Y-108021000D01*
X153670000Y-108966000D02*
X150876000Y-108966000D01*
X142952000Y-98220900D02*
X142952000Y-99744000D01*
X146441300Y-108021000D02*
X147816300Y-109396000D01*
X137033000Y-116556000D02*
X138160700Y-116556000D01*
X147904000Y-97202600D02*
X143970300Y-97202600D01*
X148844000Y-109396000D02*
X147816300Y-109396000D01*
X150876000Y-108966000D02*
X150446000Y-109396000D01*
X150446000Y-109396000D02*
X148844000Y-109396000D01*
X146441300Y-103233300D02*
X146441300Y-108021000D01*
X138160700Y-116556000D02*
X138160700Y-116301600D01*
X142952000Y-99744000D02*
X146441300Y-103233300D01*
X148209000Y-102362000D02*
X147955000Y-102362000D01*
X159893000Y-111633000D02*
X159893000Y-116556000D01*
X149808600Y-100603000D02*
X147904400Y-100603000D01*
X147904000Y-102311000D02*
X147955000Y-102362000D01*
X147904000Y-100603000D02*
X147904000Y-102311000D01*
X148893000Y-106045000D02*
X154305000Y-106045000D01*
X154305000Y-106045000D02*
X159893000Y-111633000D01*
X148844000Y-105996000D02*
X148844000Y-102997000D01*
X148844000Y-102997000D02*
X148209000Y-102362000D01*
X162128000Y-103094000D02*
X154419300Y-103094000D01*
X154419300Y-103094000D02*
X153800300Y-103713000D01*
X141505000Y-108685000D02*
X141505000Y-108757000D01*
X143764000Y-106426000D02*
X141505000Y-108685000D01*
X141224000Y-98806000D02*
X141224000Y-98933000D01*
X143383000Y-96647000D02*
X141224000Y-98806000D01*
X147193000Y-107823000D02*
X148717000Y-107823000D01*
X147193000Y-105664000D02*
X147193000Y-107823000D01*
X139000000Y-104000000D02*
X142500000Y-104000000D01*
X139500000Y-103000000D02*
X142500000Y-103000000D01*
X139000000Y-102500000D02*
X139500000Y-103000000D01*
X151634400Y-105634000D02*
X150937800Y-104937400D01*
X151634400Y-105634000D02*
X162128000Y-105634000D01*
X153122500Y-103426900D02*
X155995400Y-100554000D01*
X153802700Y-104731900D02*
X153122500Y-104051700D01*
X155995400Y-100554000D02*
X162128000Y-100554000D01*
X153122500Y-104051700D02*
X153122500Y-103426900D01*
X137541000Y-110333000D02*
X137541000Y-108204000D01*
X135585000Y-110333000D02*
X137541000Y-110333000D01*
X137511000Y-97378600D02*
X137511000Y-99410600D01*
X135585000Y-97378600D02*
X137511000Y-97378600D01*
X149765400Y-110978600D02*
X152273000Y-113486200D01*
X152273000Y-113486200D02*
X152273000Y-116556000D01*
X154559000Y-98552000D02*
X150160000Y-98552000D01*
X143637000Y-98552000D02*
X147554000Y-98552000D01*
X162128000Y-108174000D02*
X160580300Y-108174000D01*
X160580300Y-108174000D02*
X160424000Y-108017700D01*
X160424000Y-108017700D02*
X159245900Y-108017700D01*
X152916700Y-103063000D02*
X150920900Y-103063000D01*
X157966100Y-98013600D02*
X152916700Y-103063000D01*
X162128000Y-98013600D02*
X157966100Y-98013600D01*
G04 #@! TA.AperFunction,Conductor*
G36*
X161904203Y-92201602D02*
G01*
X161950696Y-92255258D01*
X161960800Y-92325532D01*
X161931306Y-92390112D01*
X161906905Y-92411812D01*
X161723968Y-92536136D01*
X161544856Y-92705514D01*
X161541778Y-92709540D01*
X161541777Y-92709541D01*
X161398200Y-92897331D01*
X161398197Y-92897335D01*
X161395127Y-92901351D01*
X161278636Y-93118607D01*
X161198378Y-93351693D01*
X161197517Y-93356676D01*
X161197517Y-93356677D01*
X161168955Y-93522034D01*
X161156418Y-93594612D01*
X161154275Y-93799193D01*
X161153837Y-93841115D01*
X161154594Y-93846118D01*
X161154594Y-93846123D01*
X161186250Y-94055434D01*
X161190700Y-94084860D01*
X161192246Y-94089677D01*
X161192247Y-94089679D01*
X161258347Y-94295557D01*
X161266059Y-94319576D01*
X161377975Y-94539224D01*
X161523569Y-94738153D01*
X161699095Y-94911245D01*
X161703212Y-94914171D01*
X161703217Y-94914175D01*
X161839317Y-95010895D01*
X161900038Y-95054047D01*
X162121227Y-95162886D01*
X162356972Y-95234960D01*
X162361982Y-95235646D01*
X162361985Y-95235647D01*
X162502534Y-95254900D01*
X162601208Y-95268417D01*
X162679512Y-95266503D01*
X162842590Y-95262518D01*
X162842594Y-95262518D01*
X162847651Y-95262394D01*
X163089960Y-95217047D01*
X163321903Y-95133542D01*
X163537511Y-95014028D01*
X163541489Y-95010898D01*
X163541493Y-95010895D01*
X163727262Y-94864710D01*
X163727264Y-94864709D01*
X163731238Y-94861581D01*
X163898099Y-94680120D01*
X164033802Y-94474317D01*
X164097174Y-94333308D01*
X164143342Y-94279373D01*
X164211341Y-94258960D01*
X164279581Y-94278551D01*
X164326397Y-94331926D01*
X164338101Y-94384958D01*
X164338100Y-115427695D01*
X164318098Y-115495816D01*
X164264442Y-115542309D01*
X164194168Y-115552413D01*
X164129588Y-115522919D01*
X164096116Y-115476927D01*
X164050989Y-115370614D01*
X164050988Y-115370612D01*
X164049012Y-115365957D01*
X163917650Y-115157356D01*
X163754625Y-114972442D01*
X163747048Y-114966218D01*
X163568044Y-114819181D01*
X163568038Y-114819177D01*
X163564134Y-114815970D01*
X163351076Y-114691967D01*
X163346353Y-114690154D01*
X163125657Y-114605437D01*
X163125653Y-114605436D01*
X163120933Y-114603624D01*
X163115983Y-114602590D01*
X163115980Y-114602589D01*
X162884577Y-114554246D01*
X162884573Y-114554246D01*
X162879626Y-114553212D01*
X162633363Y-114542029D01*
X162628343Y-114542610D01*
X162628339Y-114542610D01*
X162536711Y-114553212D01*
X162388480Y-114570363D01*
X162383606Y-114571742D01*
X162383602Y-114571743D01*
X162156146Y-114636107D01*
X162156144Y-114636108D01*
X162151277Y-114637485D01*
X162146701Y-114639619D01*
X162146695Y-114639621D01*
X161932439Y-114739530D01*
X161932435Y-114739532D01*
X161927857Y-114741667D01*
X161723968Y-114880230D01*
X161544856Y-115049608D01*
X161541778Y-115053634D01*
X161541777Y-115053635D01*
X161398200Y-115241425D01*
X161398197Y-115241429D01*
X161395127Y-115245445D01*
X161392737Y-115249903D01*
X161392736Y-115249904D01*
X161338833Y-115350433D01*
X161289015Y-115401016D01*
X161219758Y-115416636D01*
X161153050Y-115392332D01*
X161134717Y-115375394D01*
X161131077Y-115369729D01*
X161109724Y-115351226D01*
X161027431Y-115279918D01*
X161027428Y-115279916D01*
X161020619Y-115274016D01*
X161012421Y-115270272D01*
X160895864Y-115217042D01*
X160895863Y-115217042D01*
X160887670Y-115213300D01*
X160878755Y-115212018D01*
X160878754Y-115212018D01*
X160747448Y-115193139D01*
X160747441Y-115193138D01*
X160743000Y-115192500D01*
X160652500Y-115192500D01*
X160584379Y-115172498D01*
X160537886Y-115118842D01*
X160526500Y-115066500D01*
X160526500Y-111711383D01*
X160527014Y-111700479D01*
X160528666Y-111693088D01*
X160526562Y-111626146D01*
X160526500Y-111622189D01*
X160526500Y-111593422D01*
X160525959Y-111589137D01*
X160525026Y-111577296D01*
X160524859Y-111571958D01*
X160523638Y-111533116D01*
X160521428Y-111525508D01*
X160521427Y-111525503D01*
X160517987Y-111513661D01*
X160513979Y-111494307D01*
X160512434Y-111482079D01*
X160511440Y-111474212D01*
X160508523Y-111466844D01*
X160508521Y-111466837D01*
X160495163Y-111433099D01*
X160491318Y-111421869D01*
X160481197Y-111387031D01*
X160481196Y-111387030D01*
X160478986Y-111379421D01*
X160468676Y-111361988D01*
X160459982Y-111344241D01*
X160452522Y-111325400D01*
X160426533Y-111289629D01*
X160420017Y-111279710D01*
X160400546Y-111246787D01*
X160397513Y-111241658D01*
X160397144Y-111241240D01*
X160383062Y-111227158D01*
X160370228Y-111212133D01*
X160358446Y-111195917D01*
X160324665Y-111167971D01*
X160315886Y-111159982D01*
X155638499Y-106482595D01*
X155604473Y-106420283D01*
X155609538Y-106349468D01*
X155652085Y-106292632D01*
X155718605Y-106267821D01*
X155727594Y-106267500D01*
X160738858Y-106267500D01*
X160806979Y-106287502D01*
X160853472Y-106341158D01*
X160864536Y-106384510D01*
X160869727Y-106457079D01*
X160910904Y-106597316D01*
X160915775Y-106604895D01*
X160985051Y-106712691D01*
X160985053Y-106712694D01*
X160989923Y-106720271D01*
X160996733Y-106726172D01*
X161093935Y-106810399D01*
X161132318Y-106870125D01*
X161132318Y-106941122D01*
X161093934Y-107000848D01*
X161079544Y-107011620D01*
X161049311Y-107031050D01*
X161041729Y-107035923D01*
X161035828Y-107042733D01*
X160951918Y-107139569D01*
X160951916Y-107139572D01*
X160946016Y-107146381D01*
X160885300Y-107279330D01*
X160884018Y-107288246D01*
X160884016Y-107288253D01*
X160875349Y-107348533D01*
X160845856Y-107413114D01*
X160786130Y-107451497D01*
X160715133Y-107451497D01*
X160689931Y-107441016D01*
X160665992Y-107427855D01*
X160665989Y-107427854D01*
X160659048Y-107424038D01*
X160651373Y-107422068D01*
X160651372Y-107422067D01*
X160639426Y-107419000D01*
X160620719Y-107412595D01*
X160609410Y-107407701D01*
X160609408Y-107407701D01*
X160602135Y-107404553D01*
X160594307Y-107403313D01*
X160594306Y-107403313D01*
X160558473Y-107397638D01*
X160546848Y-107395230D01*
X160509782Y-107385713D01*
X160509780Y-107385713D01*
X160504025Y-107384235D01*
X160503469Y-107384200D01*
X160483546Y-107384200D01*
X160463837Y-107382649D01*
X160444055Y-107379516D01*
X160436163Y-107380262D01*
X160400418Y-107383641D01*
X160388560Y-107384200D01*
X159954094Y-107384200D01*
X159885973Y-107364198D01*
X159866749Y-107347858D01*
X159866475Y-107348162D01*
X159861572Y-107343747D01*
X159857151Y-107338837D01*
X159851809Y-107334956D01*
X159851807Y-107334954D01*
X159707992Y-107230467D01*
X159707991Y-107230466D01*
X159702650Y-107226586D01*
X159696622Y-107223902D01*
X159696620Y-107223901D01*
X159534218Y-107151595D01*
X159534217Y-107151595D01*
X159528187Y-107148910D01*
X159434787Y-107129057D01*
X159347844Y-107110576D01*
X159347839Y-107110576D01*
X159341387Y-107109204D01*
X159150413Y-107109204D01*
X159143961Y-107110576D01*
X159143956Y-107110576D01*
X159057013Y-107129057D01*
X158963613Y-107148910D01*
X158957583Y-107151595D01*
X158957582Y-107151595D01*
X158795180Y-107223901D01*
X158795178Y-107223902D01*
X158789150Y-107226586D01*
X158783809Y-107230466D01*
X158783808Y-107230467D01*
X158639993Y-107334954D01*
X158639991Y-107334956D01*
X158634649Y-107338837D01*
X158630228Y-107343747D01*
X158630227Y-107343748D01*
X158559709Y-107422067D01*
X158506863Y-107480758D01*
X158411376Y-107646146D01*
X158352362Y-107827773D01*
X158351672Y-107834336D01*
X158351672Y-107834337D01*
X158348704Y-107862578D01*
X158332400Y-108017700D01*
X158352362Y-108207627D01*
X158411376Y-108389254D01*
X158414679Y-108394976D01*
X158414680Y-108394977D01*
X158433020Y-108426743D01*
X158506863Y-108554642D01*
X158511281Y-108559549D01*
X158511282Y-108559550D01*
X158548092Y-108600432D01*
X158634649Y-108696563D01*
X158639991Y-108700444D01*
X158639993Y-108700446D01*
X158783808Y-108804933D01*
X158789150Y-108808814D01*
X158795178Y-108811498D01*
X158795180Y-108811499D01*
X158951637Y-108881158D01*
X158963613Y-108886490D01*
X159057013Y-108906343D01*
X159143956Y-108924824D01*
X159143961Y-108924824D01*
X159150413Y-108926196D01*
X159341387Y-108926196D01*
X159347839Y-108924824D01*
X159347844Y-108924824D01*
X159434787Y-108906343D01*
X159528187Y-108886490D01*
X159540163Y-108881158D01*
X159696620Y-108811499D01*
X159696622Y-108811498D01*
X159702650Y-108808814D01*
X159707992Y-108804933D01*
X159851807Y-108700446D01*
X159851809Y-108700444D01*
X159857151Y-108696563D01*
X159861573Y-108691652D01*
X159866475Y-108687238D01*
X159867601Y-108688489D01*
X159920900Y-108655651D01*
X159954094Y-108651200D01*
X160113201Y-108651200D01*
X160181322Y-108671202D01*
X160198534Y-108684632D01*
X160199221Y-108685131D01*
X160204999Y-108690557D01*
X160222761Y-108700322D01*
X160239272Y-108711168D01*
X160255278Y-108723583D01*
X160295849Y-108741140D01*
X160306502Y-108746359D01*
X160338308Y-108763845D01*
X160338311Y-108763846D01*
X160345252Y-108767662D01*
X160352931Y-108769634D01*
X160352932Y-108769634D01*
X160364875Y-108772701D01*
X160383577Y-108779104D01*
X160402165Y-108787148D01*
X160409999Y-108788389D01*
X160410000Y-108788389D01*
X160445834Y-108794064D01*
X160457459Y-108796472D01*
X160494518Y-108805987D01*
X160494520Y-108805987D01*
X160500275Y-108807465D01*
X160500831Y-108807500D01*
X160520752Y-108807500D01*
X160540462Y-108809051D01*
X160552414Y-108810944D01*
X160552415Y-108810944D01*
X160560244Y-108812184D01*
X160568136Y-108811438D01*
X160603882Y-108808059D01*
X160615740Y-108807500D01*
X160738858Y-108807500D01*
X160806979Y-108827502D01*
X160853472Y-108881158D01*
X160864536Y-108924510D01*
X160869727Y-108997079D01*
X160871631Y-109003562D01*
X160908302Y-109128453D01*
X160910904Y-109137316D01*
X160919709Y-109151016D01*
X160985051Y-109252691D01*
X160985053Y-109252694D01*
X160989923Y-109260271D01*
X160996733Y-109266172D01*
X161093569Y-109350082D01*
X161093572Y-109350084D01*
X161100381Y-109355984D01*
X161233330Y-109416700D01*
X161242245Y-109417982D01*
X161242246Y-109417982D01*
X161373552Y-109436861D01*
X161373559Y-109436862D01*
X161378000Y-109437500D01*
X162878000Y-109437500D01*
X162951079Y-109432273D01*
X163029165Y-109409345D01*
X163082670Y-109393635D01*
X163082672Y-109393634D01*
X163091316Y-109391096D01*
X163155135Y-109350082D01*
X163206691Y-109316949D01*
X163206694Y-109316947D01*
X163214271Y-109312077D01*
X163254048Y-109266172D01*
X163304082Y-109208431D01*
X163304084Y-109208428D01*
X163309984Y-109201619D01*
X163370700Y-109068670D01*
X163388204Y-108946927D01*
X163390861Y-108928448D01*
X163390862Y-108928441D01*
X163391500Y-108924000D01*
X163391500Y-107424000D01*
X163386273Y-107350921D01*
X163348977Y-107223901D01*
X163347635Y-107219330D01*
X163347634Y-107219328D01*
X163345096Y-107210684D01*
X163280760Y-107110576D01*
X163270949Y-107095309D01*
X163270947Y-107095306D01*
X163266077Y-107087729D01*
X163220524Y-107048257D01*
X163162065Y-106997601D01*
X163123682Y-106937875D01*
X163123682Y-106866878D01*
X163162066Y-106807152D01*
X163176456Y-106796380D01*
X163206689Y-106776950D01*
X163206690Y-106776949D01*
X163214271Y-106772077D01*
X163254048Y-106726172D01*
X163304082Y-106668431D01*
X163304084Y-106668428D01*
X163309984Y-106661619D01*
X163370700Y-106528670D01*
X163371982Y-106519754D01*
X163390861Y-106388448D01*
X163390862Y-106388441D01*
X163391500Y-106384000D01*
X163391500Y-104884000D01*
X163386273Y-104810921D01*
X163361143Y-104725335D01*
X163347635Y-104679330D01*
X163347634Y-104679328D01*
X163345096Y-104670684D01*
X163299393Y-104599569D01*
X163270949Y-104555309D01*
X163270947Y-104555306D01*
X163266077Y-104547729D01*
X163234668Y-104520513D01*
X163162065Y-104457601D01*
X163123682Y-104397875D01*
X163123682Y-104326878D01*
X163162066Y-104267152D01*
X163176456Y-104256380D01*
X163206689Y-104236950D01*
X163206690Y-104236949D01*
X163214271Y-104232077D01*
X163224414Y-104220372D01*
X163304082Y-104128431D01*
X163304084Y-104128428D01*
X163309984Y-104121619D01*
X163316476Y-104107403D01*
X163366958Y-103996864D01*
X163366958Y-103996863D01*
X163370700Y-103988670D01*
X163371982Y-103979754D01*
X163390861Y-103848448D01*
X163390862Y-103848441D01*
X163391500Y-103844000D01*
X163391500Y-102344000D01*
X163386273Y-102270921D01*
X163345096Y-102130684D01*
X163289959Y-102044890D01*
X163270949Y-102015309D01*
X163270947Y-102015306D01*
X163266077Y-102007729D01*
X163253381Y-101996728D01*
X163162065Y-101917601D01*
X163123682Y-101857875D01*
X163123682Y-101786878D01*
X163162066Y-101727152D01*
X163176456Y-101716380D01*
X163206689Y-101696950D01*
X163206690Y-101696949D01*
X163214271Y-101692077D01*
X163258810Y-101640677D01*
X163304082Y-101588431D01*
X163304084Y-101588428D01*
X163309984Y-101581619D01*
X163362824Y-101465916D01*
X163366958Y-101456864D01*
X163366958Y-101456863D01*
X163370700Y-101448670D01*
X163387451Y-101332162D01*
X163390861Y-101308448D01*
X163390862Y-101308441D01*
X163391500Y-101304000D01*
X163391500Y-99804000D01*
X163386273Y-99730921D01*
X163357275Y-99632162D01*
X163347635Y-99599330D01*
X163347634Y-99599328D01*
X163345096Y-99590684D01*
X163299393Y-99519569D01*
X163270949Y-99475309D01*
X163270947Y-99475306D01*
X163266077Y-99467729D01*
X163161799Y-99377371D01*
X163123416Y-99317645D01*
X163123416Y-99246648D01*
X163161800Y-99186922D01*
X163176182Y-99176156D01*
X163214271Y-99151677D01*
X163220172Y-99144867D01*
X163304082Y-99048031D01*
X163304084Y-99048028D01*
X163309984Y-99041219D01*
X163370700Y-98908270D01*
X163374854Y-98879376D01*
X163390861Y-98768048D01*
X163390862Y-98768041D01*
X163391500Y-98763600D01*
X163391500Y-97263600D01*
X163386273Y-97190521D01*
X163353425Y-97078651D01*
X163347635Y-97058930D01*
X163347634Y-97058928D01*
X163345096Y-97050284D01*
X163279748Y-96948601D01*
X163270949Y-96934909D01*
X163270947Y-96934906D01*
X163266077Y-96927329D01*
X163241148Y-96905728D01*
X163162431Y-96837518D01*
X163162428Y-96837516D01*
X163155619Y-96831616D01*
X163048922Y-96782889D01*
X163030864Y-96774642D01*
X163030863Y-96774642D01*
X163022670Y-96770900D01*
X163013755Y-96769618D01*
X163013754Y-96769618D01*
X162882448Y-96750739D01*
X162882441Y-96750738D01*
X162878000Y-96750100D01*
X161378000Y-96750100D01*
X161304921Y-96755327D01*
X161226835Y-96778255D01*
X161173330Y-96793965D01*
X161173328Y-96793966D01*
X161164684Y-96796504D01*
X161157105Y-96801375D01*
X161049309Y-96870651D01*
X161049306Y-96870653D01*
X161041729Y-96875523D01*
X161035828Y-96882333D01*
X160951918Y-96979169D01*
X160951916Y-96979172D01*
X160946016Y-96985981D01*
X160885300Y-97118930D01*
X160864500Y-97263600D01*
X160864500Y-97264049D01*
X160840047Y-97329609D01*
X160783211Y-97372156D01*
X160739179Y-97380100D01*
X158044483Y-97380100D01*
X158033579Y-97379586D01*
X158026188Y-97377934D01*
X158018263Y-97378183D01*
X158018262Y-97378183D01*
X157959247Y-97380038D01*
X157955289Y-97380100D01*
X157926522Y-97380100D01*
X157922237Y-97380641D01*
X157910403Y-97381573D01*
X157884386Y-97382391D01*
X157874136Y-97382713D01*
X157874135Y-97382713D01*
X157866216Y-97382962D01*
X157858608Y-97385172D01*
X157858603Y-97385173D01*
X157846761Y-97388613D01*
X157827407Y-97392621D01*
X157815179Y-97394166D01*
X157807312Y-97395160D01*
X157799944Y-97398077D01*
X157799937Y-97398079D01*
X157766199Y-97411437D01*
X157754969Y-97415282D01*
X157720131Y-97425403D01*
X157720130Y-97425404D01*
X157712521Y-97427614D01*
X157701329Y-97434233D01*
X157695088Y-97437924D01*
X157677341Y-97446618D01*
X157658500Y-97454078D01*
X157648871Y-97461074D01*
X157622729Y-97480067D01*
X157612812Y-97486582D01*
X157574758Y-97509087D01*
X157574340Y-97509455D01*
X157560258Y-97523537D01*
X157545225Y-97536378D01*
X157529017Y-97548154D01*
X157523965Y-97554261D01*
X157501076Y-97581929D01*
X157493086Y-97590709D01*
X152691201Y-102392595D01*
X152628889Y-102426621D01*
X152602106Y-102429500D01*
X151629094Y-102429500D01*
X151560973Y-102409498D01*
X151541749Y-102393158D01*
X151541475Y-102393462D01*
X151536572Y-102389047D01*
X151532151Y-102384137D01*
X151526809Y-102380256D01*
X151526807Y-102380254D01*
X151382992Y-102275767D01*
X151382991Y-102275766D01*
X151377650Y-102271886D01*
X151371622Y-102269202D01*
X151371620Y-102269201D01*
X151209218Y-102196895D01*
X151209217Y-102196895D01*
X151203187Y-102194210D01*
X151099042Y-102172073D01*
X151022844Y-102155876D01*
X151022839Y-102155876D01*
X151016387Y-102154504D01*
X150825413Y-102154504D01*
X150818961Y-102155876D01*
X150818956Y-102155876D01*
X150742758Y-102172073D01*
X150638613Y-102194210D01*
X150632583Y-102196895D01*
X150632582Y-102196895D01*
X150470180Y-102269201D01*
X150470178Y-102269202D01*
X150464150Y-102271886D01*
X150458809Y-102275766D01*
X150458808Y-102275767D01*
X150314993Y-102380254D01*
X150314991Y-102380256D01*
X150309649Y-102384137D01*
X150305228Y-102389047D01*
X150305227Y-102389048D01*
X150199415Y-102506565D01*
X150181863Y-102526058D01*
X150086376Y-102691446D01*
X150027362Y-102873073D01*
X150026672Y-102879636D01*
X150026672Y-102879637D01*
X150010740Y-103031224D01*
X150007400Y-103063000D01*
X150008090Y-103069565D01*
X150025180Y-103232162D01*
X150027362Y-103252927D01*
X150086376Y-103434554D01*
X150181863Y-103599942D01*
X150186281Y-103604849D01*
X150186282Y-103604850D01*
X150301253Y-103732538D01*
X150309649Y-103741863D01*
X150314991Y-103745744D01*
X150314993Y-103745746D01*
X150354808Y-103774673D01*
X150464150Y-103854114D01*
X150470178Y-103856798D01*
X150470180Y-103856799D01*
X150509391Y-103874257D01*
X150542181Y-103888855D01*
X150596276Y-103934835D01*
X150616925Y-104002762D01*
X150597573Y-104071070D01*
X150542180Y-104119069D01*
X150487080Y-104143601D01*
X150487078Y-104143602D01*
X150481050Y-104146286D01*
X150475709Y-104150166D01*
X150475708Y-104150167D01*
X150331893Y-104254654D01*
X150331891Y-104254656D01*
X150326549Y-104258537D01*
X150322128Y-104263447D01*
X150322127Y-104263448D01*
X150203613Y-104395072D01*
X150198763Y-104400458D01*
X150163897Y-104460848D01*
X150109360Y-104555309D01*
X150103276Y-104565846D01*
X150101234Y-104572131D01*
X150047189Y-104738466D01*
X150044262Y-104747473D01*
X150038963Y-104797895D01*
X150037963Y-104807407D01*
X150010950Y-104873065D01*
X149952729Y-104913695D01*
X149881784Y-104916398D01*
X149860310Y-104908851D01*
X149746867Y-104857043D01*
X149746864Y-104857042D01*
X149738670Y-104853300D01*
X149729755Y-104852018D01*
X149729754Y-104852018D01*
X149700625Y-104847830D01*
X149594000Y-104832500D01*
X149593551Y-104832500D01*
X149527991Y-104808047D01*
X149485444Y-104751211D01*
X149477500Y-104707179D01*
X149477500Y-103075383D01*
X149478014Y-103064479D01*
X149479666Y-103057088D01*
X149477562Y-102990134D01*
X149477500Y-102986176D01*
X149477500Y-102957422D01*
X149476961Y-102953155D01*
X149476027Y-102941305D01*
X149474888Y-102905040D01*
X149474639Y-102897117D01*
X149468988Y-102877666D01*
X149464978Y-102858304D01*
X149463433Y-102846073D01*
X149462440Y-102838212D01*
X149446166Y-102797108D01*
X149442321Y-102785878D01*
X149432198Y-102751034D01*
X149432197Y-102751032D01*
X149429986Y-102743421D01*
X149419677Y-102725989D01*
X149410980Y-102708236D01*
X149406442Y-102696775D01*
X149403522Y-102689400D01*
X149377531Y-102653626D01*
X149371016Y-102643707D01*
X149351529Y-102610758D01*
X149351527Y-102610755D01*
X149348513Y-102605659D01*
X149348145Y-102605241D01*
X149334062Y-102591158D01*
X149321228Y-102576133D01*
X149309446Y-102559917D01*
X149275664Y-102531970D01*
X149266885Y-102523981D01*
X148837952Y-102095048D01*
X148807214Y-102044890D01*
X148807018Y-102044287D01*
X148789524Y-101990446D01*
X148777013Y-101968776D01*
X148749698Y-101921465D01*
X148732960Y-101852469D01*
X148756181Y-101785378D01*
X148811988Y-101741491D01*
X148882663Y-101734742D01*
X148897363Y-101739442D01*
X148897488Y-101739018D01*
X148906131Y-101741556D01*
X148914330Y-101745300D01*
X148963372Y-101752351D01*
X149054552Y-101765461D01*
X149054559Y-101765462D01*
X149059000Y-101766100D01*
X150559000Y-101766100D01*
X150632079Y-101760873D01*
X150735865Y-101730399D01*
X150763670Y-101722235D01*
X150763672Y-101722234D01*
X150772316Y-101719696D01*
X150836135Y-101678682D01*
X150887691Y-101645549D01*
X150887694Y-101645547D01*
X150895271Y-101640677D01*
X150937880Y-101591504D01*
X150985082Y-101537031D01*
X150985084Y-101537028D01*
X150990984Y-101530219D01*
X151051700Y-101397270D01*
X151062962Y-101318940D01*
X151071861Y-101257048D01*
X151071862Y-101257041D01*
X151072500Y-101252600D01*
X151072500Y-99952600D01*
X151067273Y-99879521D01*
X151041847Y-99792928D01*
X151041847Y-99721932D01*
X151047839Y-99705866D01*
X151047956Y-99705469D01*
X151051700Y-99697270D01*
X151063421Y-99615746D01*
X151071861Y-99557048D01*
X151071862Y-99557041D01*
X151072500Y-99552600D01*
X151072500Y-99311500D01*
X151092502Y-99243379D01*
X151146158Y-99196886D01*
X151198500Y-99185500D01*
X153850806Y-99185500D01*
X153918927Y-99205502D01*
X153938151Y-99221842D01*
X153938425Y-99221538D01*
X153943327Y-99225952D01*
X153947749Y-99230863D01*
X153953091Y-99234744D01*
X153953093Y-99234746D01*
X154096908Y-99339233D01*
X154102250Y-99343114D01*
X154108278Y-99345798D01*
X154108280Y-99345799D01*
X154268571Y-99417165D01*
X154276713Y-99420790D01*
X154370113Y-99440643D01*
X154457056Y-99459124D01*
X154457061Y-99459124D01*
X154463513Y-99460496D01*
X154654487Y-99460496D01*
X154660939Y-99459124D01*
X154660944Y-99459124D01*
X154747887Y-99440643D01*
X154841287Y-99420790D01*
X154849429Y-99417165D01*
X155009720Y-99345799D01*
X155009722Y-99345798D01*
X155015750Y-99343114D01*
X155021092Y-99339233D01*
X155164907Y-99234746D01*
X155164909Y-99234744D01*
X155170251Y-99230863D01*
X155298037Y-99088942D01*
X155384280Y-98939565D01*
X155390220Y-98929277D01*
X155390221Y-98929276D01*
X155393524Y-98923554D01*
X155423941Y-98829940D01*
X155450498Y-98748206D01*
X155450498Y-98748205D01*
X155452538Y-98741927D01*
X155453962Y-98728384D01*
X155471810Y-98558565D01*
X155472500Y-98552000D01*
X155462546Y-98457291D01*
X155453228Y-98368637D01*
X155453228Y-98368636D01*
X155452538Y-98362073D01*
X155393524Y-98180446D01*
X155298037Y-98015058D01*
X155170251Y-97873137D01*
X155164909Y-97869256D01*
X155164907Y-97869254D01*
X155021092Y-97764767D01*
X155021091Y-97764766D01*
X155015750Y-97760886D01*
X155009722Y-97758202D01*
X155009720Y-97758201D01*
X154847318Y-97685895D01*
X154847317Y-97685895D01*
X154841287Y-97683210D01*
X154747887Y-97663357D01*
X154660944Y-97644876D01*
X154660939Y-97644876D01*
X154654487Y-97643504D01*
X154463513Y-97643504D01*
X154457061Y-97644876D01*
X154457056Y-97644876D01*
X154370113Y-97663357D01*
X154276713Y-97683210D01*
X154270683Y-97685895D01*
X154270682Y-97685895D01*
X154108280Y-97758201D01*
X154108278Y-97758202D01*
X154102250Y-97760886D01*
X154096909Y-97764766D01*
X154096908Y-97764767D01*
X153953093Y-97869254D01*
X153953091Y-97869256D01*
X153947749Y-97873137D01*
X153943328Y-97878047D01*
X153938425Y-97882462D01*
X153937299Y-97881211D01*
X153884000Y-97914049D01*
X153850806Y-97918500D01*
X151198000Y-97918500D01*
X151129879Y-97898498D01*
X151083386Y-97844842D01*
X151072000Y-97792500D01*
X151072000Y-97474715D01*
X151067525Y-97459476D01*
X151066135Y-97458271D01*
X151058452Y-97456600D01*
X150063002Y-97456599D01*
X150062996Y-97456600D01*
X149202003Y-97456599D01*
X149201997Y-97456600D01*
X148158002Y-97456599D01*
X148157996Y-97456600D01*
X146659115Y-97456599D01*
X146643876Y-97461074D01*
X146642671Y-97462464D01*
X146641000Y-97470147D01*
X146641000Y-97792500D01*
X146620998Y-97860621D01*
X146567342Y-97907114D01*
X146515000Y-97918500D01*
X144345194Y-97918500D01*
X144277073Y-97898498D01*
X144257849Y-97882158D01*
X144257575Y-97882462D01*
X144252672Y-97878047D01*
X144248251Y-97873137D01*
X144242909Y-97869256D01*
X144242907Y-97869254D01*
X144099092Y-97764767D01*
X144099091Y-97764766D01*
X144093750Y-97760886D01*
X144087722Y-97758202D01*
X144087720Y-97758201D01*
X143925318Y-97685895D01*
X143925317Y-97685895D01*
X143919287Y-97683210D01*
X143870928Y-97672931D01*
X143808455Y-97639203D01*
X143774133Y-97577053D01*
X143778861Y-97506214D01*
X143821137Y-97449176D01*
X143833878Y-97440728D01*
X143839750Y-97438114D01*
X143845092Y-97434233D01*
X143988907Y-97329746D01*
X143988909Y-97329744D01*
X143994251Y-97325863D01*
X144000471Y-97318955D01*
X144117618Y-97188850D01*
X144117619Y-97188849D01*
X144122037Y-97183942D01*
X144199205Y-97050284D01*
X144214220Y-97024277D01*
X144214221Y-97024276D01*
X144217524Y-97018554D01*
X144261785Y-96882333D01*
X144274498Y-96843206D01*
X144274498Y-96843205D01*
X144276538Y-96836927D01*
X144278781Y-96815591D01*
X144295810Y-96653565D01*
X144296500Y-96647000D01*
X144287051Y-96557095D01*
X146641000Y-96557095D01*
X146641000Y-96930485D01*
X146645475Y-96945724D01*
X146646865Y-96946929D01*
X146654548Y-96948600D01*
X147631885Y-96948601D01*
X147647124Y-96944126D01*
X147648329Y-96942736D01*
X147650000Y-96935053D01*
X147650000Y-96930485D01*
X148157999Y-96930485D01*
X148162474Y-96945724D01*
X148163864Y-96946929D01*
X148171547Y-96948600D01*
X148510997Y-96948601D01*
X148511003Y-96948600D01*
X149536885Y-96948601D01*
X149552124Y-96944126D01*
X149553329Y-96942736D01*
X149555000Y-96935053D01*
X149555000Y-96930485D01*
X150062999Y-96930485D01*
X150067474Y-96945724D01*
X150068864Y-96946929D01*
X150076547Y-96948600D01*
X151053885Y-96948601D01*
X151069124Y-96944126D01*
X151070329Y-96942736D01*
X151072000Y-96935053D01*
X151072000Y-96554857D01*
X151071839Y-96550350D01*
X151067260Y-96486331D01*
X151064874Y-96473109D01*
X151028181Y-96348142D01*
X151020767Y-96331908D01*
X150951574Y-96224240D01*
X150939888Y-96210753D01*
X150843160Y-96126938D01*
X150828152Y-96117293D01*
X150711725Y-96064123D01*
X150694612Y-96059098D01*
X150563446Y-96040239D01*
X150554505Y-96039600D01*
X150081115Y-96039600D01*
X150065876Y-96044075D01*
X150064671Y-96045465D01*
X150063000Y-96053148D01*
X150062999Y-96930485D01*
X149555000Y-96930485D01*
X149555001Y-96057715D01*
X149550526Y-96042476D01*
X149549136Y-96041271D01*
X149541453Y-96039600D01*
X149061257Y-96039600D01*
X149056750Y-96039761D01*
X148992729Y-96044340D01*
X148979512Y-96046725D01*
X148896248Y-96071174D01*
X148825252Y-96071174D01*
X148808404Y-96064890D01*
X148806726Y-96064124D01*
X148789612Y-96059098D01*
X148658446Y-96040239D01*
X148649505Y-96039600D01*
X148176115Y-96039600D01*
X148160876Y-96044075D01*
X148159671Y-96045465D01*
X148158000Y-96053148D01*
X148157999Y-96930485D01*
X147650000Y-96930485D01*
X147650001Y-96057715D01*
X147645526Y-96042476D01*
X147644136Y-96041271D01*
X147636453Y-96039600D01*
X147156257Y-96039600D01*
X147151750Y-96039761D01*
X147087731Y-96044340D01*
X147074509Y-96046726D01*
X146949542Y-96083419D01*
X146933308Y-96090833D01*
X146825640Y-96160026D01*
X146812153Y-96171712D01*
X146728338Y-96268440D01*
X146718693Y-96283448D01*
X146665523Y-96399875D01*
X146660498Y-96416988D01*
X146641639Y-96548154D01*
X146641000Y-96557095D01*
X144287051Y-96557095D01*
X144278500Y-96475736D01*
X144277228Y-96463637D01*
X144277228Y-96463636D01*
X144276538Y-96457073D01*
X144260498Y-96407705D01*
X144219566Y-96281731D01*
X144217524Y-96275446D01*
X144122037Y-96110058D01*
X144076153Y-96059098D01*
X143998673Y-95973048D01*
X143998672Y-95973047D01*
X143994251Y-95968137D01*
X143988909Y-95964256D01*
X143988907Y-95964254D01*
X143845092Y-95859767D01*
X143845091Y-95859766D01*
X143839750Y-95855886D01*
X143833722Y-95853202D01*
X143833720Y-95853201D01*
X143671318Y-95780895D01*
X143671317Y-95780895D01*
X143665287Y-95778210D01*
X143571887Y-95758357D01*
X143484944Y-95739876D01*
X143484939Y-95739876D01*
X143478487Y-95738504D01*
X143287513Y-95738504D01*
X143281061Y-95739876D01*
X143281056Y-95739876D01*
X143194113Y-95758357D01*
X143100713Y-95778210D01*
X143094683Y-95780895D01*
X143094682Y-95780895D01*
X142932280Y-95853201D01*
X142932278Y-95853202D01*
X142926250Y-95855886D01*
X142920909Y-95859766D01*
X142920908Y-95859767D01*
X142777093Y-95964254D01*
X142777091Y-95964256D01*
X142771749Y-95968137D01*
X142767328Y-95973047D01*
X142767327Y-95973048D01*
X142689848Y-96059098D01*
X142643963Y-96110058D01*
X142548476Y-96275446D01*
X142546434Y-96281731D01*
X142505503Y-96407705D01*
X142489462Y-96457073D01*
X142488772Y-96463636D01*
X142488772Y-96463637D01*
X142472097Y-96622289D01*
X142445084Y-96687945D01*
X142435882Y-96698213D01*
X141130877Y-98003219D01*
X141067979Y-98037371D01*
X141015787Y-98048465D01*
X140941713Y-98064210D01*
X140935683Y-98066895D01*
X140935682Y-98066895D01*
X140773280Y-98139201D01*
X140773278Y-98139202D01*
X140767250Y-98141886D01*
X140761909Y-98145766D01*
X140761908Y-98145767D01*
X140618093Y-98250254D01*
X140618091Y-98250256D01*
X140612749Y-98254137D01*
X140608328Y-98259047D01*
X140608327Y-98259048D01*
X140533713Y-98341916D01*
X140484963Y-98396058D01*
X140481662Y-98401776D01*
X140394930Y-98552000D01*
X140389476Y-98561446D01*
X140387434Y-98567731D01*
X140337713Y-98720758D01*
X140330462Y-98743073D01*
X140329772Y-98749636D01*
X140329772Y-98749637D01*
X140324252Y-98802156D01*
X140310500Y-98933000D01*
X140330462Y-99122927D01*
X140389476Y-99304554D01*
X140484963Y-99469942D01*
X140612749Y-99611863D01*
X140618091Y-99615744D01*
X140618093Y-99615746D01*
X140750560Y-99711988D01*
X140767250Y-99724114D01*
X140773278Y-99726798D01*
X140773280Y-99726799D01*
X140935682Y-99799105D01*
X140941713Y-99801790D01*
X141012550Y-99816847D01*
X141122056Y-99840124D01*
X141122061Y-99840124D01*
X141128513Y-99841496D01*
X141319487Y-99841496D01*
X141325939Y-99840124D01*
X141325944Y-99840124D01*
X141435450Y-99816847D01*
X141506287Y-99801790D01*
X141512318Y-99799105D01*
X141674720Y-99726799D01*
X141674722Y-99726798D01*
X141680750Y-99724114D01*
X141697440Y-99711988D01*
X141829907Y-99615746D01*
X141829909Y-99615744D01*
X141835251Y-99611863D01*
X141963037Y-99469942D01*
X142058524Y-99304554D01*
X142117538Y-99122927D01*
X142137500Y-98933000D01*
X142130030Y-98861924D01*
X142142802Y-98792086D01*
X142166245Y-98759659D01*
X142512962Y-98412942D01*
X142575274Y-98378916D01*
X142646089Y-98383981D01*
X142702925Y-98426528D01*
X142727736Y-98493048D01*
X142727367Y-98515208D01*
X142723500Y-98552000D01*
X142724190Y-98558565D01*
X142742039Y-98728384D01*
X142743462Y-98741927D01*
X142745502Y-98748205D01*
X142745502Y-98748206D01*
X142772059Y-98829940D01*
X142802476Y-98923554D01*
X142805779Y-98929276D01*
X142805780Y-98929277D01*
X142811720Y-98939565D01*
X142897963Y-99088942D01*
X143025749Y-99230863D01*
X143031091Y-99234744D01*
X143031093Y-99234746D01*
X143174908Y-99339233D01*
X143180250Y-99343114D01*
X143186278Y-99345798D01*
X143186280Y-99345799D01*
X143346571Y-99417165D01*
X143354713Y-99420790D01*
X143448113Y-99440643D01*
X143535056Y-99459124D01*
X143535061Y-99459124D01*
X143541513Y-99460496D01*
X143732487Y-99460496D01*
X143738939Y-99459124D01*
X143738944Y-99459124D01*
X143825887Y-99440643D01*
X143919287Y-99420790D01*
X143927429Y-99417165D01*
X144087720Y-99345799D01*
X144087722Y-99345798D01*
X144093750Y-99343114D01*
X144099092Y-99339233D01*
X144242907Y-99234746D01*
X144242909Y-99234744D01*
X144248251Y-99230863D01*
X144252673Y-99225952D01*
X144257575Y-99221538D01*
X144258701Y-99222789D01*
X144312000Y-99189951D01*
X144345194Y-99185500D01*
X146514500Y-99185500D01*
X146582621Y-99205502D01*
X146629114Y-99259158D01*
X146640500Y-99311500D01*
X146640500Y-99552600D01*
X146645727Y-99625679D01*
X146671153Y-99712272D01*
X146671153Y-99783268D01*
X146665161Y-99799334D01*
X146665044Y-99799731D01*
X146661300Y-99807930D01*
X146660018Y-99816847D01*
X146641139Y-99948152D01*
X146641138Y-99948159D01*
X146640500Y-99952600D01*
X146640500Y-101252600D01*
X146645727Y-101325679D01*
X146686904Y-101465916D01*
X146691775Y-101473495D01*
X146761051Y-101581291D01*
X146761053Y-101581294D01*
X146765923Y-101588871D01*
X146772733Y-101594772D01*
X146869569Y-101678682D01*
X146869572Y-101678684D01*
X146876381Y-101684584D01*
X146884579Y-101688328D01*
X146969592Y-101727152D01*
X147009330Y-101745300D01*
X147018245Y-101746582D01*
X147018246Y-101746582D01*
X147032301Y-101748603D01*
X147058374Y-101752351D01*
X147122954Y-101781844D01*
X147161338Y-101841570D01*
X147161338Y-101912567D01*
X147149561Y-101940069D01*
X147132987Y-101968776D01*
X147120476Y-101990446D01*
X147061462Y-102172073D01*
X147060772Y-102178636D01*
X147060772Y-102178637D01*
X147051073Y-102270921D01*
X147041500Y-102362000D01*
X147042190Y-102368565D01*
X147059365Y-102531971D01*
X147061462Y-102551927D01*
X147063502Y-102558205D01*
X147063502Y-102558206D01*
X147080577Y-102610758D01*
X147120476Y-102733554D01*
X147215963Y-102898942D01*
X147220381Y-102903849D01*
X147220382Y-102903850D01*
X147272181Y-102961379D01*
X147343749Y-103040863D01*
X147349091Y-103044744D01*
X147349093Y-103044746D01*
X147379418Y-103066778D01*
X147498250Y-103153114D01*
X147504278Y-103155798D01*
X147504280Y-103155799D01*
X147526496Y-103165690D01*
X147672713Y-103230790D01*
X147763088Y-103250000D01*
X147853056Y-103269124D01*
X147853061Y-103269124D01*
X147859513Y-103270496D01*
X148050487Y-103270496D01*
X148058297Y-103268836D01*
X148059099Y-103268897D01*
X148063515Y-103268433D01*
X148063600Y-103269240D01*
X148129089Y-103274234D01*
X148185723Y-103317047D01*
X148210221Y-103383684D01*
X148210501Y-103392078D01*
X148210500Y-104057316D01*
X148210500Y-104706858D01*
X148190498Y-104774979D01*
X148136842Y-104821472D01*
X148093490Y-104832536D01*
X148020921Y-104837727D01*
X147942835Y-104860655D01*
X147889330Y-104876365D01*
X147889328Y-104876366D01*
X147880684Y-104878904D01*
X147873105Y-104883775D01*
X147835018Y-104908252D01*
X147766897Y-104928254D01*
X147698777Y-104908252D01*
X147692836Y-104904190D01*
X147655092Y-104876767D01*
X147655091Y-104876766D01*
X147649750Y-104872886D01*
X147643722Y-104870202D01*
X147643720Y-104870201D01*
X147481318Y-104797895D01*
X147481317Y-104797895D01*
X147475287Y-104795210D01*
X147380109Y-104774979D01*
X147294944Y-104756876D01*
X147294939Y-104756876D01*
X147288487Y-104755504D01*
X147097513Y-104755504D01*
X147091061Y-104756876D01*
X147091056Y-104756876D01*
X147005891Y-104774979D01*
X146910713Y-104795210D01*
X146904683Y-104797895D01*
X146904682Y-104797895D01*
X146742280Y-104870201D01*
X146742278Y-104870202D01*
X146736250Y-104872886D01*
X146730909Y-104876766D01*
X146730908Y-104876767D01*
X146587093Y-104981254D01*
X146587091Y-104981256D01*
X146581749Y-104985137D01*
X146453963Y-105127058D01*
X146358476Y-105292446D01*
X146299462Y-105474073D01*
X146279500Y-105664000D01*
X146299462Y-105853927D01*
X146301502Y-105860205D01*
X146301502Y-105860206D01*
X146333957Y-105960093D01*
X146358476Y-106035554D01*
X146453963Y-106200942D01*
X146458381Y-106205849D01*
X146458382Y-106205850D01*
X146527136Y-106282209D01*
X146557854Y-106346216D01*
X146559500Y-106366519D01*
X146559501Y-107751388D01*
X146557269Y-107774996D01*
X146555760Y-107782908D01*
X146556258Y-107790819D01*
X146559252Y-107838409D01*
X146559501Y-107846321D01*
X146559501Y-107862578D01*
X146559998Y-107866512D01*
X146559998Y-107866513D01*
X146561539Y-107878716D01*
X146562283Y-107886592D01*
X146562299Y-107886838D01*
X146565810Y-107942643D01*
X146568356Y-107950477D01*
X146573530Y-107973629D01*
X146573567Y-107973924D01*
X146573568Y-107973929D01*
X146574561Y-107981788D01*
X146595237Y-108034010D01*
X146597910Y-108041437D01*
X146608573Y-108074254D01*
X146615268Y-108094860D01*
X146619511Y-108101547D01*
X146619513Y-108101550D01*
X146619683Y-108101817D01*
X146630449Y-108122948D01*
X146630559Y-108123227D01*
X146630562Y-108123232D01*
X146633479Y-108130600D01*
X146638137Y-108137011D01*
X146638138Y-108137013D01*
X146666479Y-108176020D01*
X146670928Y-108182568D01*
X146696777Y-108223299D01*
X146696780Y-108223302D01*
X146701027Y-108229995D01*
X146706803Y-108235419D01*
X146706807Y-108235424D01*
X146707038Y-108235641D01*
X146722716Y-108253424D01*
X146722894Y-108253669D01*
X146722897Y-108253673D01*
X146727555Y-108260083D01*
X146733659Y-108265133D01*
X146733663Y-108265137D01*
X146770810Y-108295868D01*
X146776744Y-108301099D01*
X146808800Y-108331200D01*
X146817699Y-108339557D01*
X146824640Y-108343373D01*
X146824644Y-108343376D01*
X146824928Y-108343532D01*
X146844530Y-108356854D01*
X146844745Y-108357031D01*
X146850876Y-108362103D01*
X146888320Y-108379723D01*
X146901678Y-108386009D01*
X146908730Y-108389602D01*
X146951008Y-108412845D01*
X146951011Y-108412846D01*
X146957952Y-108416662D01*
X146965625Y-108418632D01*
X146965630Y-108418634D01*
X146965931Y-108418711D01*
X146988240Y-108426743D01*
X146988515Y-108426873D01*
X146988523Y-108426876D01*
X146995694Y-108430250D01*
X147050893Y-108440779D01*
X147058564Y-108442494D01*
X147112975Y-108456465D01*
X147113531Y-108456500D01*
X147121394Y-108456500D01*
X147145002Y-108458732D01*
X147152909Y-108460240D01*
X147208395Y-108456749D01*
X147216306Y-108456500D01*
X147477367Y-108456500D01*
X147545488Y-108476502D01*
X147591981Y-108530158D01*
X147602085Y-108600432D01*
X147601626Y-108602543D01*
X147581639Y-108741554D01*
X147581000Y-108750495D01*
X147581000Y-109123885D01*
X147585475Y-109139124D01*
X147586865Y-109140329D01*
X147594548Y-109142000D01*
X148589998Y-109142001D01*
X148590004Y-109142000D01*
X150088885Y-109142001D01*
X150104124Y-109137526D01*
X150105329Y-109136136D01*
X150107000Y-109128453D01*
X150107000Y-108748257D01*
X150106839Y-108743750D01*
X150102260Y-108679731D01*
X150099875Y-108666512D01*
X150076533Y-108587017D01*
X150076533Y-108516020D01*
X150082818Y-108499171D01*
X150082957Y-108498866D01*
X150086700Y-108490670D01*
X150093626Y-108442499D01*
X150106861Y-108350448D01*
X150106862Y-108350441D01*
X150107500Y-108346000D01*
X150107500Y-107046000D01*
X150102273Y-106972921D01*
X150076847Y-106886328D01*
X150076847Y-106815332D01*
X150082839Y-106799266D01*
X150082956Y-106798869D01*
X150086700Y-106790670D01*
X150087982Y-106781752D01*
X150090523Y-106773100D01*
X150093094Y-106773855D01*
X150116791Y-106721979D01*
X150176520Y-106683601D01*
X150212008Y-106678500D01*
X153990406Y-106678500D01*
X154058527Y-106698502D01*
X154079501Y-106715405D01*
X159222595Y-111858499D01*
X159256621Y-111920811D01*
X159259500Y-111947594D01*
X159259501Y-113538362D01*
X159259501Y-115066500D01*
X159239499Y-115134621D01*
X159185843Y-115181114D01*
X159133501Y-115192500D01*
X159043000Y-115192500D01*
X158969921Y-115197727D01*
X158916884Y-115213300D01*
X158838330Y-115236365D01*
X158838328Y-115236366D01*
X158829684Y-115238904D01*
X158809350Y-115251972D01*
X158714309Y-115313051D01*
X158714306Y-115313053D01*
X158706729Y-115317923D01*
X158700828Y-115324733D01*
X158616918Y-115421569D01*
X158616916Y-115421572D01*
X158611016Y-115428381D01*
X158550300Y-115561330D01*
X158549215Y-115568875D01*
X158511209Y-115628011D01*
X158446628Y-115657504D01*
X158376354Y-115647399D01*
X158337528Y-115619757D01*
X158260167Y-115538661D01*
X158260162Y-115538656D01*
X158256482Y-115534799D01*
X158071504Y-115397171D01*
X158066753Y-115394755D01*
X158066749Y-115394753D01*
X157870740Y-115295097D01*
X157870739Y-115295097D01*
X157865982Y-115292678D01*
X157755887Y-115258493D01*
X157650895Y-115225891D01*
X157650889Y-115225890D01*
X157645792Y-115224307D01*
X157540798Y-115210391D01*
X157422515Y-115194714D01*
X157422510Y-115194714D01*
X157417230Y-115194014D01*
X157411900Y-115194214D01*
X157411899Y-115194214D01*
X157318320Y-115197727D01*
X157186831Y-115202663D01*
X157142246Y-115212018D01*
X156966411Y-115248912D01*
X156966408Y-115248913D01*
X156961184Y-115250009D01*
X156746740Y-115334697D01*
X156549631Y-115454306D01*
X156545601Y-115457803D01*
X156389941Y-115592877D01*
X156375492Y-115605415D01*
X156372109Y-115609541D01*
X156372105Y-115609545D01*
X156278421Y-115723802D01*
X156229304Y-115783705D01*
X156226667Y-115788338D01*
X156226666Y-115788339D01*
X156193116Y-115847278D01*
X156142033Y-115896584D01*
X156072402Y-115910445D01*
X156006332Y-115884461D01*
X155979094Y-115855312D01*
X155973686Y-115847278D01*
X155890151Y-115723199D01*
X155878607Y-115706052D01*
X155878605Y-115706050D01*
X155875627Y-115701626D01*
X155862301Y-115687656D01*
X155780507Y-115601915D01*
X155716482Y-115534799D01*
X155531504Y-115397171D01*
X155526753Y-115394755D01*
X155526749Y-115394753D01*
X155330740Y-115295097D01*
X155330739Y-115295097D01*
X155325982Y-115292678D01*
X155215887Y-115258493D01*
X155110895Y-115225891D01*
X155110889Y-115225890D01*
X155105792Y-115224307D01*
X155000798Y-115210391D01*
X154882515Y-115194714D01*
X154882510Y-115194714D01*
X154877230Y-115194014D01*
X154871900Y-115194214D01*
X154871899Y-115194214D01*
X154778320Y-115197727D01*
X154646831Y-115202663D01*
X154602246Y-115212018D01*
X154426411Y-115248912D01*
X154426408Y-115248913D01*
X154421184Y-115250009D01*
X154206740Y-115334697D01*
X154009631Y-115454306D01*
X154005601Y-115457803D01*
X153849941Y-115592877D01*
X153835492Y-115605415D01*
X153832109Y-115609541D01*
X153832105Y-115609545D01*
X153738421Y-115723802D01*
X153689304Y-115783705D01*
X153686667Y-115788338D01*
X153686666Y-115788339D01*
X153653116Y-115847278D01*
X153602033Y-115896584D01*
X153532402Y-115910445D01*
X153466332Y-115884461D01*
X153439094Y-115855312D01*
X153433686Y-115847278D01*
X153350151Y-115723199D01*
X153338607Y-115706052D01*
X153338605Y-115706050D01*
X153335627Y-115701626D01*
X153322301Y-115687656D01*
X153240507Y-115601915D01*
X153176482Y-115534799D01*
X152991504Y-115397171D01*
X152986747Y-115394752D01*
X152986743Y-115394750D01*
X152975394Y-115388980D01*
X152923737Y-115340276D01*
X152906500Y-115276664D01*
X152906500Y-113564583D01*
X152907014Y-113553679D01*
X152908666Y-113546288D01*
X152906562Y-113479346D01*
X152906500Y-113475389D01*
X152906500Y-113446622D01*
X152905959Y-113442337D01*
X152905026Y-113430496D01*
X152903887Y-113394236D01*
X152903887Y-113394235D01*
X152903638Y-113386316D01*
X152901428Y-113378708D01*
X152901427Y-113378703D01*
X152897987Y-113366861D01*
X152893979Y-113347507D01*
X152892434Y-113335279D01*
X152891440Y-113327412D01*
X152888523Y-113320044D01*
X152888521Y-113320037D01*
X152875163Y-113286299D01*
X152871318Y-113275069D01*
X152861197Y-113240231D01*
X152861196Y-113240230D01*
X152858986Y-113232621D01*
X152848676Y-113215188D01*
X152839982Y-113197441D01*
X152832522Y-113178600D01*
X152806533Y-113142829D01*
X152800017Y-113132910D01*
X152777513Y-113094858D01*
X152777145Y-113094440D01*
X152763063Y-113080358D01*
X152750222Y-113065325D01*
X152743103Y-113055527D01*
X152738446Y-113049117D01*
X152704671Y-113021176D01*
X152695892Y-113013187D01*
X150712518Y-111029813D01*
X150678492Y-110967501D01*
X150676303Y-110953889D01*
X150659628Y-110795237D01*
X150659628Y-110795236D01*
X150658938Y-110788673D01*
X150599924Y-110607046D01*
X150577409Y-110568048D01*
X150527328Y-110481307D01*
X150504437Y-110441658D01*
X150455986Y-110387847D01*
X150381073Y-110304648D01*
X150381072Y-110304647D01*
X150376651Y-110299737D01*
X150371309Y-110295856D01*
X150371307Y-110295854D01*
X150227492Y-110191367D01*
X150227491Y-110191366D01*
X150222150Y-110187486D01*
X150216122Y-110184802D01*
X150216120Y-110184801D01*
X150181169Y-110169240D01*
X150127073Y-110123260D01*
X150106424Y-110055332D01*
X150106739Y-110045139D01*
X150107000Y-110041492D01*
X150107000Y-109668115D01*
X150102525Y-109652876D01*
X150101135Y-109651671D01*
X150093452Y-109650000D01*
X149116115Y-109649999D01*
X149100876Y-109654474D01*
X149099671Y-109655864D01*
X149098000Y-109663547D01*
X149097999Y-110313732D01*
X149077997Y-110381853D01*
X149065635Y-110398042D01*
X149026363Y-110441658D01*
X149003472Y-110481307D01*
X148953392Y-110568048D01*
X148930876Y-110607046D01*
X148871862Y-110788673D01*
X148871172Y-110795236D01*
X148871172Y-110795237D01*
X148854755Y-110951440D01*
X148851900Y-110978600D01*
X148852590Y-110985165D01*
X148862927Y-111083511D01*
X148871862Y-111168527D01*
X148873902Y-111174805D01*
X148873902Y-111174806D01*
X148882844Y-111202327D01*
X148930876Y-111350154D01*
X149026363Y-111515542D01*
X149030781Y-111520449D01*
X149030782Y-111520450D01*
X149125952Y-111626147D01*
X149154149Y-111657463D01*
X149159491Y-111661344D01*
X149159493Y-111661346D01*
X149303308Y-111765833D01*
X149308650Y-111769714D01*
X149314678Y-111772398D01*
X149314680Y-111772399D01*
X149477082Y-111844705D01*
X149483113Y-111847390D01*
X149576513Y-111867243D01*
X149663456Y-111885724D01*
X149663461Y-111885724D01*
X149669913Y-111887096D01*
X149725802Y-111887096D01*
X149793923Y-111907098D01*
X149814897Y-111924001D01*
X151602595Y-113711700D01*
X151636621Y-113774012D01*
X151639500Y-113800795D01*
X151639501Y-114542610D01*
X151639501Y-115280301D01*
X151619499Y-115348422D01*
X151578866Y-115388020D01*
X151474196Y-115451535D01*
X151474191Y-115451539D01*
X151469631Y-115454306D01*
X151465601Y-115457803D01*
X151309941Y-115592877D01*
X151295492Y-115605415D01*
X151292109Y-115609541D01*
X151292105Y-115609545D01*
X151198421Y-115723802D01*
X151149304Y-115783705D01*
X151146667Y-115788338D01*
X151146666Y-115788339D01*
X151113116Y-115847278D01*
X151062033Y-115896584D01*
X150992402Y-115910445D01*
X150926332Y-115884461D01*
X150899094Y-115855312D01*
X150893686Y-115847278D01*
X150810151Y-115723199D01*
X150798607Y-115706052D01*
X150798605Y-115706050D01*
X150795627Y-115701626D01*
X150782301Y-115687656D01*
X150700507Y-115601915D01*
X150636482Y-115534799D01*
X150451504Y-115397171D01*
X150446753Y-115394755D01*
X150446749Y-115394753D01*
X150250740Y-115295097D01*
X150250739Y-115295097D01*
X150245982Y-115292678D01*
X150135887Y-115258493D01*
X150030895Y-115225891D01*
X150030889Y-115225890D01*
X150025792Y-115224307D01*
X149920798Y-115210391D01*
X149802515Y-115194714D01*
X149802510Y-115194714D01*
X149797230Y-115194014D01*
X149791900Y-115194214D01*
X149791899Y-115194214D01*
X149698320Y-115197727D01*
X149566831Y-115202663D01*
X149522246Y-115212018D01*
X149346411Y-115248912D01*
X149346408Y-115248913D01*
X149341184Y-115250009D01*
X149126740Y-115334697D01*
X148929631Y-115454306D01*
X148925601Y-115457803D01*
X148769941Y-115592877D01*
X148755492Y-115605415D01*
X148752109Y-115609541D01*
X148752105Y-115609545D01*
X148658421Y-115723802D01*
X148609304Y-115783705D01*
X148606667Y-115788338D01*
X148606666Y-115788339D01*
X148573116Y-115847278D01*
X148522033Y-115896584D01*
X148452402Y-115910445D01*
X148386332Y-115884461D01*
X148359094Y-115855312D01*
X148353686Y-115847278D01*
X148270151Y-115723199D01*
X148258607Y-115706052D01*
X148258605Y-115706050D01*
X148255627Y-115701626D01*
X148242301Y-115687656D01*
X148160507Y-115601915D01*
X148096482Y-115534799D01*
X147911504Y-115397171D01*
X147906753Y-115394755D01*
X147906749Y-115394753D01*
X147710740Y-115295097D01*
X147710739Y-115295097D01*
X147705982Y-115292678D01*
X147595887Y-115258493D01*
X147490895Y-115225891D01*
X147490889Y-115225890D01*
X147485792Y-115224307D01*
X147380798Y-115210391D01*
X147262515Y-115194714D01*
X147262510Y-115194714D01*
X147257230Y-115194014D01*
X147251900Y-115194214D01*
X147251899Y-115194214D01*
X147158320Y-115197727D01*
X147026831Y-115202663D01*
X146982246Y-115212018D01*
X146806411Y-115248912D01*
X146806408Y-115248913D01*
X146801184Y-115250009D01*
X146586740Y-115334697D01*
X146389631Y-115454306D01*
X146385601Y-115457803D01*
X146229941Y-115592877D01*
X146215492Y-115605415D01*
X146212109Y-115609541D01*
X146212105Y-115609545D01*
X146118421Y-115723802D01*
X146069304Y-115783705D01*
X146066667Y-115788338D01*
X146066666Y-115788339D01*
X146033116Y-115847278D01*
X145982033Y-115896584D01*
X145912402Y-115910445D01*
X145846332Y-115884461D01*
X145819094Y-115855312D01*
X145813686Y-115847278D01*
X145730151Y-115723199D01*
X145718607Y-115706052D01*
X145718605Y-115706050D01*
X145715627Y-115701626D01*
X145702301Y-115687656D01*
X145620507Y-115601915D01*
X145556482Y-115534799D01*
X145371504Y-115397171D01*
X145366753Y-115394755D01*
X145366749Y-115394753D01*
X145170740Y-115295097D01*
X145170739Y-115295097D01*
X145165982Y-115292678D01*
X145055887Y-115258493D01*
X144950895Y-115225891D01*
X144950889Y-115225890D01*
X144945792Y-115224307D01*
X144840798Y-115210391D01*
X144722515Y-115194714D01*
X144722510Y-115194714D01*
X144717230Y-115194014D01*
X144711900Y-115194214D01*
X144711899Y-115194214D01*
X144618320Y-115197727D01*
X144486831Y-115202663D01*
X144442246Y-115212018D01*
X144266411Y-115248912D01*
X144266408Y-115248913D01*
X144261184Y-115250009D01*
X144046740Y-115334697D01*
X143849631Y-115454306D01*
X143845601Y-115457803D01*
X143689941Y-115592877D01*
X143675492Y-115605415D01*
X143672109Y-115609541D01*
X143672105Y-115609545D01*
X143578421Y-115723802D01*
X143529304Y-115783705D01*
X143526667Y-115788338D01*
X143526666Y-115788339D01*
X143493116Y-115847278D01*
X143442033Y-115896584D01*
X143372402Y-115910445D01*
X143306332Y-115884461D01*
X143279094Y-115855312D01*
X143273686Y-115847278D01*
X143190151Y-115723199D01*
X143178607Y-115706052D01*
X143178605Y-115706050D01*
X143175627Y-115701626D01*
X143162301Y-115687656D01*
X143080507Y-115601915D01*
X143016482Y-115534799D01*
X142831504Y-115397171D01*
X142826753Y-115394755D01*
X142826749Y-115394753D01*
X142630740Y-115295097D01*
X142630739Y-115295097D01*
X142625982Y-115292678D01*
X142515887Y-115258493D01*
X142410895Y-115225891D01*
X142410889Y-115225890D01*
X142405792Y-115224307D01*
X142300798Y-115210391D01*
X142182515Y-115194714D01*
X142182510Y-115194714D01*
X142177230Y-115194014D01*
X142171900Y-115194214D01*
X142171899Y-115194214D01*
X142078320Y-115197727D01*
X141946831Y-115202663D01*
X141902246Y-115212018D01*
X141726411Y-115248912D01*
X141726408Y-115248913D01*
X141721184Y-115250009D01*
X141506740Y-115334697D01*
X141309631Y-115454306D01*
X141305601Y-115457803D01*
X141149941Y-115592877D01*
X141135492Y-115605415D01*
X141132109Y-115609541D01*
X141132105Y-115609545D01*
X141038421Y-115723802D01*
X140989304Y-115783705D01*
X140986667Y-115788338D01*
X140986666Y-115788339D01*
X140953116Y-115847278D01*
X140902033Y-115896584D01*
X140832402Y-115910445D01*
X140766332Y-115884461D01*
X140739094Y-115855312D01*
X140733686Y-115847278D01*
X140650151Y-115723199D01*
X140638607Y-115706052D01*
X140638605Y-115706050D01*
X140635627Y-115701626D01*
X140622301Y-115687656D01*
X140540507Y-115601915D01*
X140476482Y-115534799D01*
X140291504Y-115397171D01*
X140286753Y-115394755D01*
X140286749Y-115394753D01*
X140090740Y-115295097D01*
X140090739Y-115295097D01*
X140085982Y-115292678D01*
X139975887Y-115258493D01*
X139870895Y-115225891D01*
X139870889Y-115225890D01*
X139865792Y-115224307D01*
X139760798Y-115210391D01*
X139642515Y-115194714D01*
X139642510Y-115194714D01*
X139637230Y-115194014D01*
X139631900Y-115194214D01*
X139631899Y-115194214D01*
X139538320Y-115197727D01*
X139406831Y-115202663D01*
X139362246Y-115212018D01*
X139186411Y-115248912D01*
X139186408Y-115248913D01*
X139181184Y-115250009D01*
X138966740Y-115334697D01*
X138769631Y-115454306D01*
X138765601Y-115457803D01*
X138609941Y-115592877D01*
X138595492Y-115605415D01*
X138592109Y-115609541D01*
X138592105Y-115609545D01*
X138498421Y-115723802D01*
X138449304Y-115783705D01*
X138413116Y-115847278D01*
X138412842Y-115847760D01*
X138361760Y-115897066D01*
X138292130Y-115910928D01*
X138226059Y-115884945D01*
X138198820Y-115855795D01*
X138098218Y-115706366D01*
X138091557Y-115698080D01*
X137939830Y-115539030D01*
X137931873Y-115531990D01*
X137755523Y-115400782D01*
X137746486Y-115395178D01*
X137550550Y-115295559D01*
X137540699Y-115291559D01*
X137330778Y-115226378D01*
X137320396Y-115224095D01*
X137304959Y-115222049D01*
X137290792Y-115224246D01*
X137287000Y-115237430D01*
X137286999Y-116684000D01*
X137266997Y-116752121D01*
X137213341Y-116798614D01*
X137160999Y-116810000D01*
X136905000Y-116809999D01*
X136836879Y-116789997D01*
X136790386Y-116736341D01*
X136779000Y-116683999D01*
X136779001Y-115239716D01*
X136775028Y-115226185D01*
X136764421Y-115224660D01*
X136646555Y-115249391D01*
X136636358Y-115252451D01*
X136431932Y-115333182D01*
X136422396Y-115337916D01*
X136234486Y-115451942D01*
X136225896Y-115458206D01*
X136059884Y-115602264D01*
X136052471Y-115609888D01*
X136038771Y-115626596D01*
X135980111Y-115666590D01*
X135909141Y-115668522D01*
X135848392Y-115631778D01*
X135825297Y-115592468D01*
X135824334Y-115592877D01*
X135729989Y-115370614D01*
X135729988Y-115370612D01*
X135728012Y-115365957D01*
X135596650Y-115157356D01*
X135433625Y-114972442D01*
X135426048Y-114966218D01*
X135247044Y-114819181D01*
X135247038Y-114819177D01*
X135243134Y-114815970D01*
X135030076Y-114691967D01*
X135025353Y-114690154D01*
X134804657Y-114605437D01*
X134804653Y-114605436D01*
X134799933Y-114603624D01*
X134794983Y-114602590D01*
X134794980Y-114602589D01*
X134563577Y-114554246D01*
X134563573Y-114554246D01*
X134558626Y-114553212D01*
X134312363Y-114542029D01*
X134307343Y-114542610D01*
X134307339Y-114542610D01*
X134215711Y-114553212D01*
X134067480Y-114570363D01*
X134062606Y-114571742D01*
X134062602Y-114571743D01*
X133835146Y-114636107D01*
X133835144Y-114636108D01*
X133830277Y-114637485D01*
X133825701Y-114639619D01*
X133825695Y-114639621D01*
X133611439Y-114739530D01*
X133611435Y-114739532D01*
X133606857Y-114741667D01*
X133402968Y-114880230D01*
X133223856Y-115049608D01*
X133220778Y-115053634D01*
X133220777Y-115053635D01*
X133077200Y-115241425D01*
X133077197Y-115241429D01*
X133074127Y-115245445D01*
X133071737Y-115249903D01*
X133071736Y-115249904D01*
X133017833Y-115350433D01*
X132957636Y-115462701D01*
X132915157Y-115586068D01*
X132909235Y-115603268D01*
X132868145Y-115661165D01*
X132802276Y-115687656D01*
X132732541Y-115674331D01*
X132681081Y-115625419D01*
X132664100Y-115562246D01*
X132664100Y-109583000D01*
X134321500Y-109583000D01*
X134321500Y-111083000D01*
X134326727Y-111156079D01*
X134367904Y-111296316D01*
X134372775Y-111303895D01*
X134442051Y-111411691D01*
X134442053Y-111411694D01*
X134446923Y-111419271D01*
X134453733Y-111425172D01*
X134550569Y-111509082D01*
X134550572Y-111509084D01*
X134557381Y-111514984D01*
X134690330Y-111575700D01*
X134699245Y-111576982D01*
X134699246Y-111576982D01*
X134830552Y-111595861D01*
X134830559Y-111595862D01*
X134835000Y-111596500D01*
X136335000Y-111596500D01*
X136408079Y-111591273D01*
X136486165Y-111568345D01*
X136539670Y-111552635D01*
X136539672Y-111552634D01*
X136548316Y-111550096D01*
X136654152Y-111482079D01*
X136663691Y-111475949D01*
X136663694Y-111475947D01*
X136671271Y-111471077D01*
X136677172Y-111464267D01*
X136761082Y-111367431D01*
X136761084Y-111367428D01*
X136766984Y-111360619D01*
X136774469Y-111344230D01*
X136823958Y-111235864D01*
X136823958Y-111235863D01*
X136827700Y-111227670D01*
X136848500Y-111083000D01*
X136848500Y-111082551D01*
X136872953Y-111016991D01*
X136929789Y-110974444D01*
X136973821Y-110966500D01*
X137469393Y-110966500D01*
X137493001Y-110968732D01*
X137500908Y-110970240D01*
X137556394Y-110966749D01*
X137564305Y-110966500D01*
X137580578Y-110966500D01*
X137584510Y-110966003D01*
X137584515Y-110966003D01*
X137596733Y-110964460D01*
X137604608Y-110963716D01*
X137652729Y-110960688D01*
X137652730Y-110960688D01*
X137660642Y-110960190D01*
X137668476Y-110957645D01*
X137691613Y-110952473D01*
X137699788Y-110951440D01*
X137707162Y-110948520D01*
X137707164Y-110948520D01*
X137751999Y-110930769D01*
X137759444Y-110928088D01*
X137805322Y-110913181D01*
X137812859Y-110910732D01*
X137819810Y-110906320D01*
X137840939Y-110895555D01*
X137841004Y-110895529D01*
X137848600Y-110892522D01*
X137855017Y-110887860D01*
X137894039Y-110859509D01*
X137900586Y-110855060D01*
X137941299Y-110829223D01*
X137941305Y-110829218D01*
X137947994Y-110824973D01*
X137953419Y-110819196D01*
X137953423Y-110819193D01*
X137953638Y-110818964D01*
X137971411Y-110803294D01*
X137971671Y-110803105D01*
X137978083Y-110798446D01*
X138013879Y-110755177D01*
X138019111Y-110749242D01*
X138052132Y-110714078D01*
X138057557Y-110708301D01*
X138061529Y-110701077D01*
X138074850Y-110681475D01*
X138080103Y-110675125D01*
X138104019Y-110624301D01*
X138107597Y-110617279D01*
X138134662Y-110568048D01*
X138136636Y-110560362D01*
X138136713Y-110560063D01*
X138144740Y-110537766D01*
X138144874Y-110537481D01*
X138148250Y-110530307D01*
X138158775Y-110475131D01*
X138160501Y-110467409D01*
X138172987Y-110418780D01*
X138174465Y-110413025D01*
X138174500Y-110412469D01*
X138174500Y-110404607D01*
X138176732Y-110380996D01*
X138176755Y-110380876D01*
X138178240Y-110373092D01*
X138174749Y-110317605D01*
X138174500Y-110309694D01*
X138174500Y-108906519D01*
X138194502Y-108838398D01*
X138206864Y-108822209D01*
X138265578Y-108757000D01*
X140591500Y-108757000D01*
X140592190Y-108763565D01*
X140602132Y-108858153D01*
X140611462Y-108946927D01*
X140670476Y-109128554D01*
X140673779Y-109134276D01*
X140673780Y-109134277D01*
X140679910Y-109144895D01*
X140765963Y-109293942D01*
X140770381Y-109298849D01*
X140770382Y-109298850D01*
X140877649Y-109417982D01*
X140893749Y-109435863D01*
X140899091Y-109439744D01*
X140899093Y-109439746D01*
X141042908Y-109544233D01*
X141048250Y-109548114D01*
X141054278Y-109550798D01*
X141054280Y-109550799D01*
X141126605Y-109583000D01*
X141222713Y-109625790D01*
X141316113Y-109645643D01*
X141403056Y-109664124D01*
X141403061Y-109664124D01*
X141409513Y-109665496D01*
X141600487Y-109665496D01*
X141606939Y-109664124D01*
X141606944Y-109664124D01*
X141609658Y-109663547D01*
X147581000Y-109663547D01*
X147581000Y-110043743D01*
X147581161Y-110048250D01*
X147585740Y-110112269D01*
X147588126Y-110125491D01*
X147624819Y-110250458D01*
X147632233Y-110266692D01*
X147701426Y-110374360D01*
X147713112Y-110387847D01*
X147809840Y-110471662D01*
X147824848Y-110481307D01*
X147941275Y-110534477D01*
X147958388Y-110539502D01*
X148089554Y-110558361D01*
X148098495Y-110559000D01*
X148571885Y-110559000D01*
X148587124Y-110554525D01*
X148588329Y-110553135D01*
X148590000Y-110545452D01*
X148590001Y-109668115D01*
X148585526Y-109652876D01*
X148584136Y-109651671D01*
X148576453Y-109650000D01*
X147599115Y-109649999D01*
X147583876Y-109654474D01*
X147582671Y-109655864D01*
X147581000Y-109663547D01*
X141609658Y-109663547D01*
X141693887Y-109645643D01*
X141787287Y-109625790D01*
X141883395Y-109583000D01*
X141955720Y-109550799D01*
X141955722Y-109550798D01*
X141961750Y-109548114D01*
X141967092Y-109544233D01*
X142110907Y-109439746D01*
X142110909Y-109439744D01*
X142116251Y-109435863D01*
X142132351Y-109417982D01*
X142239618Y-109298850D01*
X142239619Y-109298849D01*
X142244037Y-109293942D01*
X142330090Y-109144895D01*
X142336220Y-109134277D01*
X142336221Y-109134276D01*
X142339524Y-109128554D01*
X142398538Y-108946927D01*
X142407869Y-108858153D01*
X142417810Y-108763565D01*
X142418500Y-108757000D01*
X142417382Y-108746359D01*
X142416261Y-108735691D01*
X142429034Y-108665853D01*
X142452476Y-108633428D01*
X143714503Y-107371401D01*
X143776815Y-107337375D01*
X143803598Y-107334496D01*
X143859487Y-107334496D01*
X143865939Y-107333124D01*
X143865944Y-107333124D01*
X143952887Y-107314643D01*
X144046287Y-107294790D01*
X144052318Y-107292105D01*
X144214720Y-107219799D01*
X144214722Y-107219798D01*
X144220750Y-107217114D01*
X144240032Y-107203105D01*
X144369907Y-107108746D01*
X144369909Y-107108744D01*
X144375251Y-107104863D01*
X144379673Y-107099952D01*
X144498618Y-106967850D01*
X144498619Y-106967849D01*
X144503037Y-106962942D01*
X144573304Y-106841236D01*
X144595220Y-106803277D01*
X144595221Y-106803276D01*
X144598524Y-106797554D01*
X144630708Y-106698502D01*
X144655498Y-106622206D01*
X144655498Y-106622205D01*
X144657538Y-106615927D01*
X144674234Y-106457079D01*
X144676810Y-106432565D01*
X144677500Y-106426000D01*
X144657538Y-106236073D01*
X144644266Y-106195224D01*
X144600566Y-106060731D01*
X144598524Y-106054446D01*
X144503037Y-105889058D01*
X144375251Y-105747137D01*
X144369909Y-105743256D01*
X144369907Y-105743254D01*
X144226092Y-105638767D01*
X144226091Y-105638766D01*
X144220750Y-105634886D01*
X144214722Y-105632202D01*
X144214720Y-105632201D01*
X144052318Y-105559895D01*
X144052317Y-105559895D01*
X144046287Y-105557210D01*
X143952887Y-105537357D01*
X143865944Y-105518876D01*
X143865939Y-105518876D01*
X143859487Y-105517504D01*
X143668513Y-105517504D01*
X143662061Y-105518876D01*
X143662056Y-105518876D01*
X143575113Y-105537357D01*
X143481713Y-105557210D01*
X143475683Y-105559895D01*
X143475682Y-105559895D01*
X143313280Y-105632201D01*
X143313278Y-105632202D01*
X143307250Y-105634886D01*
X143301909Y-105638766D01*
X143301908Y-105638767D01*
X143158093Y-105743254D01*
X143158091Y-105743256D01*
X143152749Y-105747137D01*
X143024963Y-105889058D01*
X142929476Y-106054446D01*
X142927434Y-106060731D01*
X142883735Y-106195224D01*
X142870462Y-106236073D01*
X142869772Y-106242636D01*
X142869772Y-106242637D01*
X142853097Y-106401290D01*
X142826084Y-106466946D01*
X142816882Y-106477214D01*
X141480605Y-107813491D01*
X141418293Y-107847517D01*
X141412154Y-107848504D01*
X141409513Y-107848504D01*
X141222713Y-107888210D01*
X141216683Y-107890895D01*
X141216682Y-107890895D01*
X141054280Y-107963201D01*
X141054278Y-107963202D01*
X141048250Y-107965886D01*
X141042909Y-107969766D01*
X141042908Y-107969767D01*
X140899093Y-108074254D01*
X140899091Y-108074256D01*
X140893749Y-108078137D01*
X140889328Y-108083047D01*
X140889327Y-108083048D01*
X140774511Y-108210565D01*
X140765963Y-108220058D01*
X140670476Y-108385446D01*
X140611462Y-108567073D01*
X140591500Y-108757000D01*
X138265578Y-108757000D01*
X138275618Y-108745850D01*
X138275619Y-108745849D01*
X138280037Y-108740942D01*
X138375524Y-108575554D01*
X138412992Y-108460240D01*
X138432498Y-108400206D01*
X138432498Y-108400205D01*
X138434538Y-108393927D01*
X138440253Y-108339557D01*
X138453810Y-108210565D01*
X138454500Y-108204000D01*
X138446785Y-108130600D01*
X138435228Y-108020637D01*
X138435228Y-108020636D01*
X138434538Y-108014073D01*
X138375524Y-107832446D01*
X138280037Y-107667058D01*
X138152251Y-107525137D01*
X138146909Y-107521256D01*
X138146907Y-107521254D01*
X138003092Y-107416767D01*
X138003091Y-107416766D01*
X137997750Y-107412886D01*
X137991722Y-107410202D01*
X137991720Y-107410201D01*
X137829318Y-107337895D01*
X137829317Y-107337895D01*
X137823287Y-107335210D01*
X137729887Y-107315357D01*
X137642944Y-107296876D01*
X137642939Y-107296876D01*
X137636487Y-107295504D01*
X137445513Y-107295504D01*
X137439061Y-107296876D01*
X137439056Y-107296876D01*
X137352113Y-107315357D01*
X137258713Y-107335210D01*
X137252683Y-107337895D01*
X137252682Y-107337895D01*
X137090280Y-107410201D01*
X137090278Y-107410202D01*
X137084250Y-107412886D01*
X137078909Y-107416766D01*
X137078908Y-107416767D01*
X136935093Y-107521254D01*
X136935091Y-107521256D01*
X136929749Y-107525137D01*
X136801963Y-107667058D01*
X136706476Y-107832446D01*
X136647462Y-108014073D01*
X136646772Y-108020636D01*
X136646772Y-108020637D01*
X136635215Y-108130600D01*
X136627500Y-108204000D01*
X136628190Y-108210565D01*
X136641748Y-108339557D01*
X136647462Y-108393927D01*
X136649502Y-108400205D01*
X136649502Y-108400206D01*
X136669008Y-108460240D01*
X136706476Y-108575554D01*
X136801963Y-108740942D01*
X136806381Y-108745849D01*
X136806382Y-108745850D01*
X136816422Y-108757000D01*
X136866110Y-108812184D01*
X136875137Y-108822210D01*
X136905855Y-108886217D01*
X136907501Y-108906520D01*
X136907501Y-109130631D01*
X136887499Y-109198752D01*
X136833843Y-109245245D01*
X136763569Y-109255349D01*
X136698989Y-109225856D01*
X136619430Y-109156918D01*
X136612619Y-109151016D01*
X136582620Y-109137316D01*
X136487864Y-109094042D01*
X136487863Y-109094042D01*
X136479670Y-109090300D01*
X136470755Y-109089018D01*
X136470754Y-109089018D01*
X136339448Y-109070139D01*
X136339441Y-109070138D01*
X136335000Y-109069500D01*
X134835000Y-109069500D01*
X134761921Y-109074727D01*
X134708884Y-109090300D01*
X134630330Y-109113365D01*
X134630328Y-109113366D01*
X134621684Y-109115904D01*
X134601820Y-109128670D01*
X134506309Y-109190051D01*
X134506306Y-109190053D01*
X134498729Y-109194923D01*
X134492828Y-109201733D01*
X134408918Y-109298569D01*
X134408916Y-109298572D01*
X134403016Y-109305381D01*
X134342300Y-109438330D01*
X134341018Y-109447245D01*
X134341018Y-109447246D01*
X134322139Y-109578552D01*
X134322138Y-109578559D01*
X134321500Y-109583000D01*
X132664100Y-109583000D01*
X132664100Y-102500000D01*
X138086500Y-102500000D01*
X138087190Y-102506565D01*
X138102142Y-102648820D01*
X138106462Y-102689927D01*
X138165476Y-102871554D01*
X138168779Y-102877276D01*
X138168780Y-102877277D01*
X138184122Y-102903850D01*
X138260963Y-103036942D01*
X138265381Y-103041849D01*
X138265382Y-103041850D01*
X138376888Y-103165690D01*
X138407606Y-103229697D01*
X138398841Y-103300151D01*
X138376888Y-103334310D01*
X138332432Y-103383684D01*
X138260963Y-103463058D01*
X138165476Y-103628446D01*
X138163434Y-103634731D01*
X138109359Y-103801158D01*
X138106462Y-103810073D01*
X138105772Y-103816636D01*
X138105772Y-103816637D01*
X138098182Y-103888855D01*
X138086500Y-104000000D01*
X138087190Y-104006565D01*
X138099999Y-104128431D01*
X138106462Y-104189927D01*
X138108502Y-104196205D01*
X138108502Y-104196206D01*
X138136824Y-104283372D01*
X138165476Y-104371554D01*
X138260963Y-104536942D01*
X138265381Y-104541849D01*
X138265382Y-104541850D01*
X138381479Y-104670789D01*
X138388749Y-104678863D01*
X138394091Y-104682744D01*
X138394093Y-104682746D01*
X138495760Y-104756611D01*
X138543250Y-104791114D01*
X138549278Y-104793798D01*
X138549280Y-104793799D01*
X138711682Y-104866105D01*
X138717713Y-104868790D01*
X138811113Y-104888643D01*
X138898056Y-104907124D01*
X138898061Y-104907124D01*
X138904513Y-104908496D01*
X139095487Y-104908496D01*
X139101939Y-104907124D01*
X139101944Y-104907124D01*
X139188887Y-104888643D01*
X139282287Y-104868790D01*
X139288318Y-104866105D01*
X139450720Y-104793799D01*
X139450722Y-104793798D01*
X139456750Y-104791114D01*
X139504240Y-104756611D01*
X139605907Y-104682746D01*
X139605909Y-104682744D01*
X139611251Y-104678863D01*
X139615673Y-104673952D01*
X139620575Y-104669538D01*
X139621701Y-104670789D01*
X139675000Y-104637951D01*
X139708194Y-104633500D01*
X141791806Y-104633500D01*
X141859927Y-104653502D01*
X141879151Y-104669842D01*
X141879425Y-104669538D01*
X141884327Y-104673952D01*
X141888749Y-104678863D01*
X141894091Y-104682744D01*
X141894093Y-104682746D01*
X141995760Y-104756611D01*
X142043250Y-104791114D01*
X142049278Y-104793798D01*
X142049280Y-104793799D01*
X142211682Y-104866105D01*
X142217713Y-104868790D01*
X142311113Y-104888643D01*
X142398056Y-104907124D01*
X142398061Y-104907124D01*
X142404513Y-104908496D01*
X142595487Y-104908496D01*
X142601939Y-104907124D01*
X142601944Y-104907124D01*
X142688887Y-104888643D01*
X142782287Y-104868790D01*
X142788318Y-104866105D01*
X142950720Y-104793799D01*
X142950722Y-104793798D01*
X142956750Y-104791114D01*
X143004240Y-104756611D01*
X143105907Y-104682746D01*
X143105909Y-104682744D01*
X143111251Y-104678863D01*
X143118521Y-104670789D01*
X143234618Y-104541850D01*
X143234619Y-104541849D01*
X143239037Y-104536942D01*
X143334524Y-104371554D01*
X143363176Y-104283372D01*
X143391498Y-104196206D01*
X143391498Y-104196205D01*
X143393538Y-104189927D01*
X143400002Y-104128431D01*
X143412810Y-104006565D01*
X143413500Y-104000000D01*
X143401818Y-103888855D01*
X143394228Y-103816637D01*
X143394228Y-103816636D01*
X143393538Y-103810073D01*
X143390642Y-103801158D01*
X143336566Y-103634731D01*
X143334524Y-103628446D01*
X143296739Y-103563000D01*
X143280001Y-103494004D01*
X143296739Y-103437000D01*
X143331220Y-103377277D01*
X143331221Y-103377276D01*
X143334524Y-103371554D01*
X143393538Y-103189927D01*
X143406189Y-103069565D01*
X143412810Y-103006565D01*
X143413500Y-103000000D01*
X143403394Y-102903850D01*
X143394228Y-102816637D01*
X143394228Y-102816636D01*
X143393538Y-102810073D01*
X143389326Y-102797108D01*
X143341144Y-102648820D01*
X143334524Y-102628446D01*
X143239037Y-102463058D01*
X143190812Y-102409498D01*
X143115673Y-102326048D01*
X143115672Y-102326047D01*
X143111251Y-102321137D01*
X143105909Y-102317256D01*
X143105907Y-102317254D01*
X142962092Y-102212767D01*
X142962091Y-102212766D01*
X142956750Y-102208886D01*
X142950722Y-102206202D01*
X142950720Y-102206201D01*
X142788318Y-102133895D01*
X142788317Y-102133895D01*
X142782287Y-102131210D01*
X142688887Y-102111357D01*
X142601944Y-102092876D01*
X142601939Y-102092876D01*
X142595487Y-102091504D01*
X142404513Y-102091504D01*
X142398061Y-102092876D01*
X142398056Y-102092876D01*
X142311113Y-102111357D01*
X142217713Y-102131210D01*
X142211683Y-102133895D01*
X142211682Y-102133895D01*
X142049280Y-102206201D01*
X142049278Y-102206202D01*
X142043250Y-102208886D01*
X142037909Y-102212766D01*
X142037908Y-102212767D01*
X141894093Y-102317254D01*
X141894091Y-102317256D01*
X141888749Y-102321137D01*
X141884328Y-102326047D01*
X141879425Y-102330462D01*
X141878299Y-102329211D01*
X141825000Y-102362049D01*
X141791806Y-102366500D01*
X140003416Y-102366500D01*
X139935295Y-102346498D01*
X139888802Y-102292842D01*
X139883583Y-102279436D01*
X139880817Y-102270921D01*
X139842991Y-102154504D01*
X139836566Y-102134730D01*
X139836565Y-102134728D01*
X139834524Y-102128446D01*
X139813196Y-102091504D01*
X139758476Y-101996728D01*
X139739037Y-101963058D01*
X139698108Y-101917601D01*
X139615673Y-101826048D01*
X139615672Y-101826047D01*
X139611251Y-101821137D01*
X139605909Y-101817256D01*
X139605907Y-101817254D01*
X139462092Y-101712767D01*
X139462091Y-101712766D01*
X139456750Y-101708886D01*
X139450722Y-101706202D01*
X139450720Y-101706201D01*
X139288318Y-101633895D01*
X139288317Y-101633895D01*
X139282287Y-101631210D01*
X139188887Y-101611357D01*
X139101944Y-101592876D01*
X139101939Y-101592876D01*
X139095487Y-101591504D01*
X138904513Y-101591504D01*
X138898061Y-101592876D01*
X138898056Y-101592876D01*
X138811113Y-101611357D01*
X138717713Y-101631210D01*
X138711683Y-101633895D01*
X138711682Y-101633895D01*
X138549280Y-101706201D01*
X138549278Y-101706202D01*
X138543250Y-101708886D01*
X138537909Y-101712766D01*
X138537908Y-101712767D01*
X138394093Y-101817254D01*
X138394091Y-101817256D01*
X138388749Y-101821137D01*
X138384328Y-101826047D01*
X138384327Y-101826048D01*
X138301893Y-101917601D01*
X138260963Y-101963058D01*
X138241524Y-101996728D01*
X138186805Y-102091504D01*
X138165476Y-102128446D01*
X138153341Y-102165794D01*
X138116417Y-102279436D01*
X138106462Y-102310073D01*
X138105772Y-102316636D01*
X138105772Y-102316637D01*
X138096012Y-102409498D01*
X138086500Y-102500000D01*
X132664100Y-102500000D01*
X132664100Y-96628600D01*
X134321500Y-96628600D01*
X134321500Y-98128600D01*
X134326727Y-98201679D01*
X134367904Y-98341916D01*
X134372775Y-98349495D01*
X134442051Y-98457291D01*
X134442053Y-98457294D01*
X134446923Y-98464871D01*
X134453733Y-98470772D01*
X134550569Y-98554682D01*
X134550572Y-98554684D01*
X134557381Y-98560584D01*
X134565579Y-98564328D01*
X134670367Y-98612183D01*
X134690330Y-98621300D01*
X134699245Y-98622582D01*
X134699246Y-98622582D01*
X134830552Y-98641461D01*
X134830559Y-98641462D01*
X134835000Y-98642100D01*
X136335000Y-98642100D01*
X136408079Y-98636873D01*
X136492166Y-98612183D01*
X136539670Y-98598235D01*
X136539672Y-98598234D01*
X136548316Y-98595696D01*
X136671271Y-98516677D01*
X136672363Y-98515417D01*
X136733572Y-98487465D01*
X136803846Y-98497571D01*
X136857501Y-98544065D01*
X136877501Y-98612183D01*
X136877501Y-98708080D01*
X136857499Y-98776201D01*
X136845137Y-98792389D01*
X136771963Y-98873658D01*
X136717339Y-98968270D01*
X136679955Y-99033021D01*
X136676476Y-99039046D01*
X136617462Y-99220673D01*
X136616772Y-99227236D01*
X136616772Y-99227237D01*
X136609306Y-99298269D01*
X136597500Y-99410600D01*
X136617462Y-99600527D01*
X136619502Y-99606805D01*
X136619502Y-99606806D01*
X136621145Y-99611863D01*
X136676476Y-99782154D01*
X136771963Y-99947542D01*
X136899749Y-100089463D01*
X136905091Y-100093344D01*
X136905093Y-100093346D01*
X137048908Y-100197833D01*
X137054250Y-100201714D01*
X137060278Y-100204398D01*
X137060280Y-100204399D01*
X137222682Y-100276705D01*
X137228713Y-100279390D01*
X137322113Y-100299243D01*
X137409056Y-100317724D01*
X137409061Y-100317724D01*
X137415513Y-100319096D01*
X137606487Y-100319096D01*
X137612939Y-100317724D01*
X137612944Y-100317724D01*
X137699887Y-100299243D01*
X137793287Y-100279390D01*
X137799318Y-100276705D01*
X137961720Y-100204399D01*
X137961722Y-100204398D01*
X137967750Y-100201714D01*
X137973092Y-100197833D01*
X138116907Y-100093346D01*
X138116909Y-100093344D01*
X138122251Y-100089463D01*
X138250037Y-99947542D01*
X138345524Y-99782154D01*
X138400855Y-99611863D01*
X138402498Y-99606806D01*
X138402498Y-99606805D01*
X138404538Y-99600527D01*
X138424500Y-99410600D01*
X138412694Y-99298269D01*
X138405228Y-99227237D01*
X138405228Y-99227236D01*
X138404538Y-99220673D01*
X138345524Y-99039046D01*
X138342046Y-99033021D01*
X138304661Y-98968270D01*
X138250037Y-98873658D01*
X138176864Y-98792391D01*
X138146146Y-98728384D01*
X138144500Y-98708081D01*
X138144500Y-97450207D01*
X138146732Y-97426596D01*
X138146755Y-97426476D01*
X138148240Y-97418692D01*
X138144749Y-97363205D01*
X138144500Y-97355294D01*
X138144500Y-97339022D01*
X138142458Y-97322862D01*
X138141716Y-97315004D01*
X138138688Y-97266870D01*
X138138688Y-97266869D01*
X138138190Y-97258957D01*
X138135645Y-97251123D01*
X138130473Y-97227985D01*
X138129440Y-97219812D01*
X138117843Y-97190521D01*
X138108763Y-97167586D01*
X138106082Y-97160139D01*
X138103221Y-97151335D01*
X138088732Y-97106740D01*
X138084322Y-97099792D01*
X138073551Y-97078651D01*
X138070522Y-97071000D01*
X138061753Y-97058930D01*
X138037514Y-97025569D01*
X138033065Y-97019021D01*
X138007226Y-96978304D01*
X138007219Y-96978295D01*
X138002973Y-96971605D01*
X137996967Y-96965965D01*
X137981286Y-96948178D01*
X137981108Y-96947933D01*
X137981106Y-96947931D01*
X137976446Y-96941517D01*
X137963111Y-96930485D01*
X137933184Y-96905728D01*
X137927246Y-96900493D01*
X137892083Y-96867472D01*
X137892080Y-96867470D01*
X137886301Y-96862043D01*
X137879084Y-96858076D01*
X137859465Y-96844742D01*
X137859237Y-96844553D01*
X137859230Y-96844549D01*
X137853124Y-96839497D01*
X137802322Y-96815591D01*
X137795270Y-96811998D01*
X137752992Y-96788755D01*
X137752989Y-96788754D01*
X137746048Y-96784938D01*
X137738375Y-96782968D01*
X137738370Y-96782966D01*
X137738069Y-96782889D01*
X137715760Y-96774857D01*
X137715485Y-96774727D01*
X137715477Y-96774724D01*
X137708306Y-96771350D01*
X137653107Y-96760821D01*
X137645436Y-96759106D01*
X137591025Y-96745135D01*
X137590469Y-96745100D01*
X137582606Y-96745100D01*
X137558998Y-96742868D01*
X137551091Y-96741360D01*
X137495606Y-96744851D01*
X137487694Y-96745100D01*
X136974142Y-96745100D01*
X136906021Y-96725098D01*
X136859528Y-96671442D01*
X136848463Y-96628088D01*
X136848182Y-96624152D01*
X136843273Y-96555521D01*
X136802096Y-96415284D01*
X136748513Y-96331908D01*
X136727949Y-96299909D01*
X136727947Y-96299906D01*
X136723077Y-96292329D01*
X136703593Y-96275446D01*
X136619431Y-96202518D01*
X136619428Y-96202516D01*
X136612619Y-96196616D01*
X136535735Y-96161504D01*
X136487864Y-96139642D01*
X136487863Y-96139642D01*
X136479670Y-96135900D01*
X136470755Y-96134618D01*
X136470754Y-96134618D01*
X136339448Y-96115739D01*
X136339441Y-96115738D01*
X136335000Y-96115100D01*
X134835000Y-96115100D01*
X134761921Y-96120327D01*
X134708884Y-96135900D01*
X134630330Y-96158965D01*
X134630328Y-96158966D01*
X134621684Y-96161504D01*
X134614105Y-96166375D01*
X134506309Y-96235651D01*
X134506306Y-96235653D01*
X134498729Y-96240523D01*
X134492828Y-96247333D01*
X134408918Y-96344169D01*
X134408916Y-96344172D01*
X134403016Y-96350981D01*
X134399272Y-96359179D01*
X134351568Y-96463637D01*
X134342300Y-96483930D01*
X134341018Y-96492845D01*
X134341018Y-96492846D01*
X134322139Y-96624152D01*
X134322138Y-96624159D01*
X134321500Y-96628600D01*
X132664100Y-96628600D01*
X132664100Y-94295557D01*
X132665882Y-94274439D01*
X132667703Y-94263729D01*
X132667703Y-94263727D01*
X132668518Y-94258934D01*
X132668586Y-94254067D01*
X132668876Y-94250891D01*
X132694994Y-94184873D01*
X132752659Y-94143456D01*
X132823561Y-94139790D01*
X132885189Y-94175038D01*
X132914321Y-94223840D01*
X132937347Y-94295557D01*
X132945059Y-94319576D01*
X133056975Y-94539224D01*
X133202569Y-94738153D01*
X133378095Y-94911245D01*
X133382212Y-94914171D01*
X133382217Y-94914175D01*
X133518317Y-95010895D01*
X133579038Y-95054047D01*
X133800227Y-95162886D01*
X134035972Y-95234960D01*
X134040982Y-95235646D01*
X134040985Y-95235647D01*
X134181534Y-95254900D01*
X134280208Y-95268417D01*
X134358512Y-95266503D01*
X134521590Y-95262518D01*
X134521594Y-95262518D01*
X134526651Y-95262394D01*
X134768960Y-95217047D01*
X135000903Y-95133542D01*
X135216511Y-95014028D01*
X135220489Y-95010898D01*
X135220493Y-95010895D01*
X135406262Y-94864710D01*
X135406264Y-94864709D01*
X135410238Y-94861581D01*
X135577099Y-94680120D01*
X135712802Y-94474317D01*
X135780318Y-94324088D01*
X135811781Y-94254080D01*
X135811783Y-94254074D01*
X135813855Y-94249464D01*
X135857960Y-94084860D01*
X135876350Y-94016229D01*
X135876350Y-94016228D01*
X135877658Y-94011347D01*
X135902570Y-93766093D01*
X135902907Y-93733906D01*
X135883137Y-93488183D01*
X135861936Y-93401867D01*
X135850836Y-93356677D01*
X135824334Y-93248783D01*
X135813977Y-93224382D01*
X135729989Y-93026520D01*
X135729988Y-93026518D01*
X135728012Y-93021863D01*
X135596650Y-92813262D01*
X135442383Y-92638282D01*
X135436972Y-92632144D01*
X135436970Y-92632142D01*
X135433625Y-92628348D01*
X135405717Y-92605424D01*
X135247044Y-92475087D01*
X135247038Y-92475083D01*
X135243134Y-92471876D01*
X135147987Y-92416499D01*
X135099174Y-92364945D01*
X135085981Y-92295185D01*
X135112598Y-92229367D01*
X135170573Y-92188387D01*
X135211368Y-92181600D01*
X161836082Y-92181600D01*
X161904203Y-92201602D01*
G37*
G04 #@! TD.AperFunction*
M02*
