M48
INCH,TZ
T1C0.0157
T2C0.0394
%
G90
G05
T1
X52500Y-38000
X52500Y-39500
X52500Y-41000
X52500Y-42500
X52500Y-44000
X54000Y-36500
X54138Y-39138
X54150Y-42600
X54724Y-40354
X54724Y-40945
X55500Y-36500
X55600Y-38950
X55711Y-42818
X56102Y-40551
X56102Y-40945
X56450Y-38050
X56550Y-38800
X56600Y-41900
X57000Y-36500
X57950Y-41600
X58250Y-40300
X58500Y-36500
X58963Y-43692
X59418Y-40576
X59424Y-41314
X60000Y-36500
X60500Y-42900
X60550Y-44550
X60551Y-40832
X60552Y-41233
X60850Y-38800
X61500Y-36500
X62450Y-44550
X62695Y-42527
X63000Y-36500
X64500Y-38000
X64500Y-39500
X64500Y-41000
X64500Y-42500
X64500Y-44000
T2
X53950Y-45888
X54950Y-45888
X55950Y-45888
X56950Y-45888
X57950Y-45888
X58950Y-45888
X59950Y-45888
X60950Y-45888
X61950Y-45888
X62950Y-45888
T0
M30
