G04 #@! TF.GenerationSoftware,KiCad,Pcbnew,(5.99.0-6951-g72beaf1538)*
G04 #@! TF.CreationDate,2020-12-13T17:26:36+11:00*
G04 #@! TF.ProjectId,ATM90E26_Breakout,41544d39-3045-4323-965f-427265616b6f,rev?*
G04 #@! TF.SameCoordinates,Original*
G04 #@! TF.FileFunction,Legend,Bot*
G04 #@! TF.FilePolarity,Positive*
%FSLAX46Y46*%
G04 Gerber Fmt 4.6, Leading zero omitted, Abs format (unit mm)*
G04 Created by KiCad (PCBNEW (5.99.0-6951-g72beaf1538)) date 2020-12-13 17:26:36*
%MOMM*%
%LPD*%
G01*
G04 APERTURE LIST*
%ADD10C,0.162560*%
%ADD11C,0.200000*%
%ADD12C,0.010000*%
%ADD13C,0.120000*%
G04 APERTURE END LIST*
D10*
X146559257Y-109654460D02*
X146448949Y-109691230D01*
X146265101Y-109691230D01*
X146191562Y-109654460D01*
X146154793Y-109617691D01*
X146118023Y-109544152D01*
X146118023Y-109470613D01*
X146154793Y-109397074D01*
X146191562Y-109360304D01*
X146265101Y-109323535D01*
X146412179Y-109286765D01*
X146485718Y-109249996D01*
X146522488Y-109213226D01*
X146559257Y-109139687D01*
X146559257Y-109066148D01*
X146522488Y-108992609D01*
X146485718Y-108955840D01*
X146412179Y-108919070D01*
X146228332Y-108919070D01*
X146118023Y-108955840D01*
X145787097Y-109691230D02*
X145787097Y-108919070D01*
X145492941Y-108919070D01*
X145419402Y-108955840D01*
X145382633Y-108992609D01*
X145345863Y-109066148D01*
X145345863Y-109176457D01*
X145382633Y-109249996D01*
X145419402Y-109286765D01*
X145492941Y-109323535D01*
X145787097Y-109323535D01*
X145014937Y-109691230D02*
X145014937Y-108919070D01*
X146758439Y-114702657D02*
X146721669Y-114592349D01*
X146721669Y-114408501D01*
X146758439Y-114334962D01*
X146795208Y-114298193D01*
X146868747Y-114261423D01*
X146942286Y-114261423D01*
X147015825Y-114298193D01*
X147052595Y-114334962D01*
X147089364Y-114408501D01*
X147126134Y-114555579D01*
X147162903Y-114629118D01*
X147199673Y-114665888D01*
X147273212Y-114702657D01*
X147346751Y-114702657D01*
X147420290Y-114665888D01*
X147457060Y-114629118D01*
X147493829Y-114555579D01*
X147493829Y-114371732D01*
X147457060Y-114261423D01*
X147493829Y-113783419D02*
X147493829Y-113636341D01*
X147457060Y-113562802D01*
X147383520Y-113489263D01*
X147236442Y-113452494D01*
X146979056Y-113452494D01*
X146831978Y-113489263D01*
X146758439Y-113562802D01*
X146721669Y-113636341D01*
X146721669Y-113783419D01*
X146758439Y-113856958D01*
X146831978Y-113930497D01*
X146979056Y-113967267D01*
X147236442Y-113967267D01*
X147383520Y-113930497D01*
X147457060Y-113856958D01*
X147493829Y-113783419D01*
X147493829Y-113231876D02*
X147493829Y-112790642D01*
X146721669Y-113011259D02*
X147493829Y-113011259D01*
X147493829Y-112606795D02*
X146721669Y-112092021D01*
X147493829Y-112092021D02*
X146721669Y-112606795D01*
X154139727Y-95201457D02*
X153955879Y-95716230D01*
X153772032Y-95201457D01*
X153073411Y-95716230D02*
X153514645Y-95716230D01*
X153294028Y-95716230D02*
X153294028Y-94944070D01*
X153367567Y-95054379D01*
X153441106Y-95127918D01*
X153514645Y-95164687D01*
X152742485Y-95642691D02*
X152705716Y-95679460D01*
X152742485Y-95716230D01*
X152779255Y-95679460D01*
X152742485Y-95642691D01*
X152742485Y-95716230D01*
X152411559Y-95017609D02*
X152374790Y-94980840D01*
X152301251Y-94944070D01*
X152117403Y-94944070D01*
X152043864Y-94980840D01*
X152007095Y-95017609D01*
X151970325Y-95091148D01*
X151970325Y-95164687D01*
X152007095Y-95274996D01*
X152448329Y-95716230D01*
X151970325Y-95716230D01*
X150646622Y-95716230D02*
X151087856Y-95716230D01*
X150867239Y-95716230D02*
X150867239Y-94944070D01*
X150940778Y-95054379D01*
X151014317Y-95127918D01*
X151087856Y-95164687D01*
X150389236Y-94944070D02*
X149911232Y-94944070D01*
X150168618Y-95238226D01*
X150058310Y-95238226D01*
X149984771Y-95274996D01*
X149948001Y-95311765D01*
X149911232Y-95385304D01*
X149911232Y-95569152D01*
X149948001Y-95642691D01*
X149984771Y-95679460D01*
X150058310Y-95716230D01*
X150278927Y-95716230D01*
X150352466Y-95679460D01*
X150389236Y-95642691D01*
X149028763Y-94907300D02*
X149690615Y-95900078D01*
X148366912Y-95716230D02*
X148808146Y-95716230D01*
X148587529Y-95716230D02*
X148587529Y-94944070D01*
X148661068Y-95054379D01*
X148734607Y-95127918D01*
X148808146Y-95164687D01*
X148072756Y-95017609D02*
X148035986Y-94980840D01*
X147962447Y-94944070D01*
X147778599Y-94944070D01*
X147705060Y-94980840D01*
X147668291Y-95017609D01*
X147631521Y-95091148D01*
X147631521Y-95164687D01*
X147668291Y-95274996D01*
X148109525Y-95716230D01*
X147631521Y-95716230D01*
X146749053Y-94907300D02*
X147410904Y-95900078D01*
X146528436Y-95017609D02*
X146491666Y-94980840D01*
X146418127Y-94944070D01*
X146234279Y-94944070D01*
X146160740Y-94980840D01*
X146123971Y-95017609D01*
X146087201Y-95091148D01*
X146087201Y-95164687D01*
X146123971Y-95274996D01*
X146565205Y-95716230D01*
X146087201Y-95716230D01*
X145609197Y-94944070D02*
X145535658Y-94944070D01*
X145462119Y-94980840D01*
X145425350Y-95017609D01*
X145388580Y-95091148D01*
X145351811Y-95238226D01*
X145351811Y-95422074D01*
X145388580Y-95569152D01*
X145425350Y-95642691D01*
X145462119Y-95679460D01*
X145535658Y-95716230D01*
X145609197Y-95716230D01*
X145682736Y-95679460D01*
X145719506Y-95642691D01*
X145756276Y-95569152D01*
X145793045Y-95422074D01*
X145793045Y-95238226D01*
X145756276Y-95091148D01*
X145719506Y-95017609D01*
X145682736Y-94980840D01*
X145609197Y-94944070D01*
X145057655Y-95017609D02*
X145020885Y-94980840D01*
X144947346Y-94944070D01*
X144763498Y-94944070D01*
X144689959Y-94980840D01*
X144653190Y-95017609D01*
X144616420Y-95091148D01*
X144616420Y-95164687D01*
X144653190Y-95274996D01*
X145094424Y-95716230D01*
X144616420Y-95716230D01*
X144138416Y-94944070D02*
X144064877Y-94944070D01*
X143991338Y-94980840D01*
X143954569Y-95017609D01*
X143917799Y-95091148D01*
X143881030Y-95238226D01*
X143881030Y-95422074D01*
X143917799Y-95569152D01*
X143954569Y-95642691D01*
X143991338Y-95679460D01*
X144064877Y-95716230D01*
X144138416Y-95716230D01*
X144211956Y-95679460D01*
X144248725Y-95642691D01*
X144285495Y-95569152D01*
X144322264Y-95422074D01*
X144322264Y-95238226D01*
X144285495Y-95091148D01*
X144248725Y-95017609D01*
X144211956Y-94980840D01*
X144138416Y-94944070D01*
X149436808Y-113869054D02*
X149400039Y-113905823D01*
X149363269Y-114016132D01*
X149363269Y-114089671D01*
X149400039Y-114199979D01*
X149473578Y-114273518D01*
X149547117Y-114310288D01*
X149694195Y-114347057D01*
X149804503Y-114347057D01*
X149951581Y-114310288D01*
X150025120Y-114273518D01*
X150098660Y-114199979D01*
X150135429Y-114089671D01*
X150135429Y-114016132D01*
X150098660Y-113905823D01*
X150061890Y-113869054D01*
X149400039Y-113574897D02*
X149363269Y-113464589D01*
X149363269Y-113280741D01*
X149400039Y-113207202D01*
X149436808Y-113170433D01*
X149510347Y-113133663D01*
X149583886Y-113133663D01*
X149657425Y-113170433D01*
X149694195Y-113207202D01*
X149730964Y-113280741D01*
X149767734Y-113427819D01*
X149804503Y-113501358D01*
X149841273Y-113538128D01*
X149914812Y-113574897D01*
X149988351Y-113574897D01*
X150061890Y-113538128D01*
X150098660Y-113501358D01*
X150135429Y-113427819D01*
X150135429Y-113243972D01*
X150098660Y-113133663D01*
X160295429Y-114561627D02*
X160295429Y-114083623D01*
X160001273Y-114341010D01*
X160001273Y-114230701D01*
X159964503Y-114157162D01*
X159927734Y-114120393D01*
X159854195Y-114083623D01*
X159670347Y-114083623D01*
X159596808Y-114120393D01*
X159560039Y-114157162D01*
X159523269Y-114230701D01*
X159523269Y-114451318D01*
X159560039Y-114524857D01*
X159596808Y-114561627D01*
X160295429Y-113863006D02*
X159523269Y-113605619D01*
X160295429Y-113348233D01*
X160295429Y-113164385D02*
X160295429Y-112686381D01*
X160001273Y-112943768D01*
X160001273Y-112833459D01*
X159964503Y-112759920D01*
X159927734Y-112723151D01*
X159854195Y-112686381D01*
X159670347Y-112686381D01*
X159596808Y-112723151D01*
X159560039Y-112759920D01*
X159523269Y-112833459D01*
X159523269Y-113054076D01*
X159560039Y-113127616D01*
X159596808Y-113164385D01*
X139152469Y-114589688D02*
X139924629Y-114589688D01*
X139152469Y-113817528D02*
X139152469Y-114258762D01*
X139152469Y-114038145D02*
X139924629Y-114038145D01*
X139814320Y-114111684D01*
X139740781Y-114185223D01*
X139704012Y-114258762D01*
X139152469Y-113486602D02*
X139924629Y-113486602D01*
X139152469Y-113045368D01*
X139924629Y-113045368D01*
X154548788Y-94471630D02*
X154548788Y-93699470D01*
X154217862Y-94471630D02*
X154217862Y-94067165D01*
X154254632Y-93993626D01*
X154328171Y-93956857D01*
X154438479Y-93956857D01*
X154512018Y-93993626D01*
X154548788Y-94030396D01*
X153960476Y-93956857D02*
X153666319Y-93956857D01*
X153850167Y-93699470D02*
X153850167Y-94361321D01*
X153813397Y-94434860D01*
X153739858Y-94471630D01*
X153666319Y-94471630D01*
X153519241Y-93956857D02*
X153225085Y-93956857D01*
X153408933Y-93699470D02*
X153408933Y-94361321D01*
X153372163Y-94434860D01*
X153298624Y-94471630D01*
X153225085Y-94471630D01*
X152967698Y-93956857D02*
X152967698Y-94729017D01*
X152967698Y-93993626D02*
X152894159Y-93956857D01*
X152747081Y-93956857D01*
X152673542Y-93993626D01*
X152636773Y-94030396D01*
X152600003Y-94103935D01*
X152600003Y-94324552D01*
X152636773Y-94398091D01*
X152673542Y-94434860D01*
X152747081Y-94471630D01*
X152894159Y-94471630D01*
X152967698Y-94434860D01*
X152269077Y-94398091D02*
X152232308Y-94434860D01*
X152269077Y-94471630D01*
X152305847Y-94434860D01*
X152269077Y-94398091D01*
X152269077Y-94471630D01*
X152269077Y-93993626D02*
X152232308Y-94030396D01*
X152269077Y-94067165D01*
X152305847Y-94030396D01*
X152269077Y-93993626D01*
X152269077Y-94067165D01*
X151349839Y-93662700D02*
X152011691Y-94655478D01*
X150540910Y-93662700D02*
X151202761Y-94655478D01*
X150357062Y-93956857D02*
X150209984Y-94471630D01*
X150062906Y-94103935D01*
X149915828Y-94471630D01*
X149768750Y-93956857D01*
X149474594Y-94471630D02*
X149474594Y-93699470D01*
X149143668Y-94471630D02*
X149143668Y-94067165D01*
X149180437Y-93993626D01*
X149253976Y-93956857D01*
X149364285Y-93956857D01*
X149437824Y-93993626D01*
X149474594Y-94030396D01*
X148445047Y-94471630D02*
X148445047Y-94067165D01*
X148481816Y-93993626D01*
X148555356Y-93956857D01*
X148702434Y-93956857D01*
X148775973Y-93993626D01*
X148445047Y-94434860D02*
X148518586Y-94471630D01*
X148702434Y-94471630D01*
X148775973Y-94434860D01*
X148812742Y-94361321D01*
X148812742Y-94287782D01*
X148775973Y-94214243D01*
X148702434Y-94177474D01*
X148518586Y-94177474D01*
X148445047Y-94140704D01*
X148187660Y-93956857D02*
X147893504Y-93956857D01*
X148077352Y-93699470D02*
X148077352Y-94361321D01*
X148040582Y-94434860D01*
X147967043Y-94471630D01*
X147893504Y-94471630D01*
X147636117Y-93956857D02*
X147636117Y-94471630D01*
X147636117Y-94030396D02*
X147599348Y-93993626D01*
X147525809Y-93956857D01*
X147415500Y-93956857D01*
X147341961Y-93993626D01*
X147305192Y-94067165D01*
X147305192Y-94471630D01*
X146937496Y-94471630D02*
X146937496Y-93956857D01*
X146937496Y-93699470D02*
X146974266Y-93736240D01*
X146937496Y-93773009D01*
X146900727Y-93736240D01*
X146937496Y-93699470D01*
X146937496Y-93773009D01*
X146238876Y-94434860D02*
X146312415Y-94471630D01*
X146459493Y-94471630D01*
X146533032Y-94434860D01*
X146569801Y-94398091D01*
X146606571Y-94324552D01*
X146606571Y-94103935D01*
X146569801Y-94030396D01*
X146533032Y-93993626D01*
X146459493Y-93956857D01*
X146312415Y-93956857D01*
X146238876Y-93993626D01*
X145907950Y-94471630D02*
X145907950Y-93699470D01*
X145834411Y-94177474D02*
X145613794Y-94471630D01*
X145613794Y-93956857D02*
X145907950Y-94251013D01*
X145282868Y-94398091D02*
X145246098Y-94434860D01*
X145282868Y-94471630D01*
X145319637Y-94434860D01*
X145282868Y-94398091D01*
X145282868Y-94471630D01*
X144584247Y-94434860D02*
X144657786Y-94471630D01*
X144804864Y-94471630D01*
X144878403Y-94434860D01*
X144915173Y-94398091D01*
X144951942Y-94324552D01*
X144951942Y-94103935D01*
X144915173Y-94030396D01*
X144878403Y-93993626D01*
X144804864Y-93956857D01*
X144657786Y-93956857D01*
X144584247Y-93993626D01*
X144143013Y-94471630D02*
X144216552Y-94434860D01*
X144253321Y-94398091D01*
X144290091Y-94324552D01*
X144290091Y-94103935D01*
X144253321Y-94030396D01*
X144216552Y-93993626D01*
X144143013Y-93956857D01*
X144032704Y-93956857D01*
X143959165Y-93993626D01*
X143922396Y-94030396D01*
X143885626Y-94103935D01*
X143885626Y-94324552D01*
X143922396Y-94398091D01*
X143959165Y-94434860D01*
X144032704Y-94471630D01*
X144143013Y-94471630D01*
X143554700Y-94471630D02*
X143554700Y-93956857D01*
X143554700Y-94030396D02*
X143517931Y-93993626D01*
X143444392Y-93956857D01*
X143334083Y-93956857D01*
X143260544Y-93993626D01*
X143223775Y-94067165D01*
X143223775Y-94471630D01*
X143223775Y-94067165D02*
X143187005Y-93993626D01*
X143113466Y-93956857D01*
X143003157Y-93956857D01*
X142929618Y-93993626D01*
X142892849Y-94067165D01*
X142892849Y-94471630D01*
X154986829Y-114522196D02*
X154214669Y-114264810D01*
X154986829Y-114007423D01*
X154214669Y-113750036D02*
X154986829Y-113750036D01*
X154214669Y-113308802D01*
X154986829Y-113308802D01*
X146522488Y-105236070D02*
X146522488Y-105861152D01*
X146485718Y-105934691D01*
X146448949Y-105971460D01*
X146375410Y-106008230D01*
X146228332Y-106008230D01*
X146154793Y-105971460D01*
X146118023Y-105934691D01*
X146081254Y-105861152D01*
X146081254Y-105236070D01*
X145750328Y-105787613D02*
X145382633Y-105787613D01*
X145823867Y-106008230D02*
X145566480Y-105236070D01*
X145309094Y-106008230D01*
X144610473Y-106008230D02*
X144867859Y-105640535D01*
X145051707Y-106008230D02*
X145051707Y-105236070D01*
X144757551Y-105236070D01*
X144684012Y-105272840D01*
X144647242Y-105309609D01*
X144610473Y-105383148D01*
X144610473Y-105493457D01*
X144647242Y-105566996D01*
X144684012Y-105603765D01*
X144757551Y-105640535D01*
X145051707Y-105640535D01*
X144389856Y-105236070D02*
X143948621Y-105236070D01*
X144169238Y-106008230D02*
X144169238Y-105236070D01*
X144650239Y-114575657D02*
X144613469Y-114465349D01*
X144613469Y-114281501D01*
X144650239Y-114207962D01*
X144687008Y-114171193D01*
X144760547Y-114134423D01*
X144834086Y-114134423D01*
X144907625Y-114171193D01*
X144944395Y-114207962D01*
X144981164Y-114281501D01*
X145017934Y-114428579D01*
X145054703Y-114502118D01*
X145091473Y-114538888D01*
X145165012Y-114575657D01*
X145238551Y-114575657D01*
X145312090Y-114538888D01*
X145348860Y-114502118D01*
X145385629Y-114428579D01*
X145385629Y-114244732D01*
X145348860Y-114134423D01*
X144613469Y-113803497D02*
X145385629Y-113803497D01*
X144613469Y-112994568D02*
X144981164Y-113251955D01*
X144613469Y-113435802D02*
X145385629Y-113435802D01*
X145385629Y-113141646D01*
X145348860Y-113068107D01*
X145312090Y-113031337D01*
X145238551Y-112994568D01*
X145128242Y-112994568D01*
X145054703Y-113031337D01*
X145017934Y-113068107D01*
X144981164Y-113141646D01*
X144981164Y-113435802D01*
X145385629Y-112737181D02*
X144613469Y-112222408D01*
X145385629Y-112222408D02*
X144613469Y-112737181D01*
X153532788Y-93227030D02*
X153532788Y-92454870D01*
X153532788Y-92749026D02*
X153459249Y-92712257D01*
X153312171Y-92712257D01*
X153238632Y-92749026D01*
X153201862Y-92785796D01*
X153165093Y-92859335D01*
X153165093Y-93079952D01*
X153201862Y-93153491D01*
X153238632Y-93190260D01*
X153312171Y-93227030D01*
X153459249Y-93227030D01*
X153532788Y-93190260D01*
X152907706Y-92712257D02*
X152723858Y-93227030D01*
X152540011Y-92712257D02*
X152723858Y-93227030D01*
X152797397Y-93410878D01*
X152834167Y-93447647D01*
X152907706Y-93484417D01*
X151767851Y-92454870D02*
X151326616Y-92454870D01*
X151547234Y-93227030D02*
X151547234Y-92454870D01*
X151069230Y-93227030D02*
X151069230Y-92712257D01*
X151069230Y-92454870D02*
X151105999Y-92491640D01*
X151069230Y-92528409D01*
X151032460Y-92491640D01*
X151069230Y-92454870D01*
X151069230Y-92528409D01*
X150738304Y-93190260D02*
X150664765Y-93227030D01*
X150517687Y-93227030D01*
X150444148Y-93190260D01*
X150407378Y-93116721D01*
X150407378Y-93079952D01*
X150444148Y-93006413D01*
X150517687Y-92969643D01*
X150627996Y-92969643D01*
X150701535Y-92932874D01*
X150738304Y-92859335D01*
X150738304Y-92822565D01*
X150701535Y-92749026D01*
X150627996Y-92712257D01*
X150517687Y-92712257D01*
X150444148Y-92749026D01*
X150076453Y-93227030D02*
X150076453Y-92454870D01*
X149745527Y-93227030D02*
X149745527Y-92822565D01*
X149782296Y-92749026D01*
X149855836Y-92712257D01*
X149966144Y-92712257D01*
X150039683Y-92749026D01*
X150076453Y-92785796D01*
X149046906Y-93227030D02*
X149046906Y-92822565D01*
X149083676Y-92749026D01*
X149157215Y-92712257D01*
X149304293Y-92712257D01*
X149377832Y-92749026D01*
X149046906Y-93190260D02*
X149120445Y-93227030D01*
X149304293Y-93227030D01*
X149377832Y-93190260D01*
X149414601Y-93116721D01*
X149414601Y-93043182D01*
X149377832Y-92969643D01*
X149304293Y-92932874D01*
X149120445Y-92932874D01*
X149046906Y-92896104D01*
X148679211Y-93227030D02*
X148679211Y-92712257D01*
X148679211Y-92785796D02*
X148642441Y-92749026D01*
X148568902Y-92712257D01*
X148458594Y-92712257D01*
X148385055Y-92749026D01*
X148348285Y-92822565D01*
X148348285Y-93227030D01*
X148348285Y-92822565D02*
X148311516Y-92749026D01*
X148237976Y-92712257D01*
X148127668Y-92712257D01*
X148054129Y-92749026D01*
X148017359Y-92822565D01*
X148017359Y-93227030D01*
X147061352Y-93227030D02*
X147061352Y-92454870D01*
X146877504Y-92454870D01*
X146767196Y-92491640D01*
X146693656Y-92565179D01*
X146656887Y-92638718D01*
X146620117Y-92785796D01*
X146620117Y-92896104D01*
X146656887Y-93043182D01*
X146693656Y-93116721D01*
X146767196Y-93190260D01*
X146877504Y-93227030D01*
X147061352Y-93227030D01*
X146289192Y-93227030D02*
X146289192Y-92454870D01*
X145958266Y-93227030D02*
X145958266Y-92822565D01*
X145995036Y-92749026D01*
X146068575Y-92712257D01*
X146178883Y-92712257D01*
X146252422Y-92749026D01*
X146289192Y-92785796D01*
X145259645Y-93227030D02*
X145259645Y-92822565D01*
X145296415Y-92749026D01*
X145369954Y-92712257D01*
X145517032Y-92712257D01*
X145590571Y-92749026D01*
X145259645Y-93190260D02*
X145333184Y-93227030D01*
X145517032Y-93227030D01*
X145590571Y-93190260D01*
X145627340Y-93116721D01*
X145627340Y-93043182D01*
X145590571Y-92969643D01*
X145517032Y-92932874D01*
X145333184Y-92932874D01*
X145259645Y-92896104D01*
X144891950Y-93227030D02*
X144891950Y-92712257D01*
X144891950Y-92859335D02*
X144855180Y-92785796D01*
X144818411Y-92749026D01*
X144744872Y-92712257D01*
X144671333Y-92712257D01*
X141743269Y-114538888D02*
X142515429Y-114538888D01*
X141743269Y-113766728D02*
X141743269Y-114207962D01*
X141743269Y-113987345D02*
X142515429Y-113987345D01*
X142405120Y-114060884D01*
X142331581Y-114134423D01*
X142294812Y-114207962D01*
X141743269Y-113435802D02*
X142515429Y-113435802D01*
X142515429Y-113141646D01*
X142478660Y-113068107D01*
X142441890Y-113031337D01*
X142368351Y-112994568D01*
X142258042Y-112994568D01*
X142184503Y-113031337D01*
X142147734Y-113068107D01*
X142110964Y-113141646D01*
X142110964Y-113435802D01*
X152016239Y-114626457D02*
X151979469Y-114516149D01*
X151979469Y-114332301D01*
X152016239Y-114258762D01*
X152053008Y-114221993D01*
X152126547Y-114185223D01*
X152200086Y-114185223D01*
X152273625Y-114221993D01*
X152310395Y-114258762D01*
X152347164Y-114332301D01*
X152383934Y-114479379D01*
X152420703Y-114552918D01*
X152457473Y-114589688D01*
X152531012Y-114626457D01*
X152604551Y-114626457D01*
X152678090Y-114589688D01*
X152714860Y-114552918D01*
X152751629Y-114479379D01*
X152751629Y-114295532D01*
X152714860Y-114185223D01*
X152053008Y-113413063D02*
X152016239Y-113449833D01*
X151979469Y-113560141D01*
X151979469Y-113633680D01*
X152016239Y-113743989D01*
X152089778Y-113817528D01*
X152163317Y-113854297D01*
X152310395Y-113891067D01*
X152420703Y-113891067D01*
X152567781Y-113854297D01*
X152641320Y-113817528D01*
X152714860Y-113743989D01*
X152751629Y-113633680D01*
X152751629Y-113560141D01*
X152714860Y-113449833D01*
X152678090Y-113413063D01*
X151979469Y-112714442D02*
X151979469Y-113082137D01*
X152751629Y-113082137D01*
X151979469Y-112457056D02*
X152751629Y-112457056D01*
X151979469Y-112015821D02*
X152420703Y-112346747D01*
X152751629Y-112015821D02*
X152310395Y-112457056D01*
X157704629Y-114522196D02*
X156932469Y-114264810D01*
X157704629Y-114007423D01*
X156932469Y-113750036D02*
X157704629Y-113750036D01*
X157704629Y-113455880D01*
X157667860Y-113382341D01*
X157631090Y-113345572D01*
X157557551Y-113308802D01*
X157447242Y-113308802D01*
X157373703Y-113345572D01*
X157336934Y-113382341D01*
X157300164Y-113455880D01*
X157300164Y-113750036D01*
X137170060Y-114083623D02*
X137206829Y-114157162D01*
X137206829Y-114267471D01*
X137170060Y-114377779D01*
X137096520Y-114451318D01*
X137022981Y-114488088D01*
X136875903Y-114524857D01*
X136765595Y-114524857D01*
X136618517Y-114488088D01*
X136544978Y-114451318D01*
X136471439Y-114377779D01*
X136434669Y-114267471D01*
X136434669Y-114193932D01*
X136471439Y-114083623D01*
X136508208Y-114046854D01*
X136765595Y-114046854D01*
X136765595Y-114193932D01*
X136434669Y-113715928D02*
X137206829Y-113715928D01*
X136434669Y-113274694D01*
X137206829Y-113274694D01*
X136434669Y-112906998D02*
X137206829Y-112906998D01*
X137206829Y-112723151D01*
X137170060Y-112612842D01*
X137096520Y-112539303D01*
X137022981Y-112502534D01*
X136875903Y-112465764D01*
X136765595Y-112465764D01*
X136618517Y-112502534D01*
X136544978Y-112539303D01*
X136471439Y-112612842D01*
X136434669Y-112723151D01*
X136434669Y-112906998D01*
D11*
X162248904Y-113652733D02*
X162820333Y-113652733D01*
X162934619Y-113614638D01*
X163010809Y-113538447D01*
X163048904Y-113424161D01*
X163048904Y-113347971D01*
X163048904Y-114452733D02*
X163048904Y-113995590D01*
X163048904Y-114224161D02*
X162248904Y-114224161D01*
X162363190Y-114147971D01*
X162439380Y-114071780D01*
X162477476Y-113995590D01*
X160102380Y-105695714D02*
X160140475Y-105733809D01*
X160254761Y-105771904D01*
X160330951Y-105771904D01*
X160445237Y-105733809D01*
X160521428Y-105657619D01*
X160559523Y-105581428D01*
X160597618Y-105429047D01*
X160597618Y-105314761D01*
X160559523Y-105162380D01*
X160521428Y-105086190D01*
X160445237Y-105010000D01*
X160330951Y-104971904D01*
X160254761Y-104971904D01*
X160140475Y-105010000D01*
X160102380Y-105048095D01*
X159492856Y-105352857D02*
X159759523Y-105352857D01*
X159759523Y-105771904D02*
X159759523Y-104971904D01*
X159378570Y-104971904D01*
X158654761Y-105771904D02*
X159111904Y-105771904D01*
X158883332Y-105771904D02*
X158883332Y-104971904D01*
X158959523Y-105086190D01*
X159035713Y-105162380D01*
X159111904Y-105200476D01*
X160102380Y-100742714D02*
X160140475Y-100780809D01*
X160254761Y-100818904D01*
X160330951Y-100818904D01*
X160445237Y-100780809D01*
X160521428Y-100704619D01*
X160559523Y-100628428D01*
X160597618Y-100476047D01*
X160597618Y-100361761D01*
X160559523Y-100209380D01*
X160521428Y-100133190D01*
X160445237Y-100057000D01*
X160330951Y-100018904D01*
X160254761Y-100018904D01*
X160140475Y-100057000D01*
X160102380Y-100095095D01*
X159492856Y-100399857D02*
X159759523Y-100399857D01*
X159759523Y-100818904D02*
X159759523Y-100018904D01*
X159378570Y-100018904D01*
X159111904Y-100095095D02*
X159073809Y-100057000D01*
X158997618Y-100018904D01*
X158807142Y-100018904D01*
X158730951Y-100057000D01*
X158692856Y-100095095D01*
X158654761Y-100171285D01*
X158654761Y-100247476D01*
X158692856Y-100361761D01*
X159149999Y-100818904D01*
X158654761Y-100818904D01*
X160635714Y-107638904D02*
X160445238Y-108438904D01*
X160292857Y-107867476D01*
X160140476Y-108438904D01*
X159950000Y-107638904D01*
X159683333Y-108210333D02*
X159302380Y-108210333D01*
X159759523Y-108438904D02*
X159492857Y-107638904D01*
X159226190Y-108438904D01*
X158502380Y-108438904D02*
X158769047Y-108057952D01*
X158959523Y-108438904D02*
X158959523Y-107638904D01*
X158654761Y-107638904D01*
X158578571Y-107677000D01*
X158540476Y-107715095D01*
X158502380Y-107791285D01*
X158502380Y-107905571D01*
X158540476Y-107981761D01*
X158578571Y-108019857D01*
X158654761Y-108057952D01*
X158959523Y-108057952D01*
X158159523Y-108438904D02*
X158159523Y-107638904D01*
X157702380Y-108438904D01*
X157702380Y-107638904D01*
X156902380Y-108438904D02*
X157359523Y-108438904D01*
X157130952Y-108438904D02*
X157130952Y-107638904D01*
X157207142Y-107753190D01*
X157283333Y-107829380D01*
X157359523Y-107867476D01*
X160559523Y-103104904D02*
X160559523Y-102304904D01*
X160178571Y-103104904D02*
X160178571Y-102304904D01*
X159721428Y-103104904D01*
X159721428Y-102304904D01*
X159454762Y-102304904D02*
X158997619Y-102304904D01*
X159226190Y-103104904D02*
X159226190Y-102304904D01*
X158311904Y-103104904D02*
X158769047Y-103104904D01*
X158540476Y-103104904D02*
X158540476Y-102304904D01*
X158616666Y-102419190D01*
X158692857Y-102495380D01*
X158769047Y-102533476D01*
X160635714Y-97605904D02*
X160102381Y-97605904D01*
X160635714Y-98405904D01*
X160102381Y-98405904D01*
X159873809Y-97605904D02*
X159340476Y-98405904D01*
X159340476Y-97605904D02*
X159873809Y-98405904D01*
X158616666Y-98405904D02*
X159073809Y-98405904D01*
X158845238Y-98405904D02*
X158845238Y-97605904D01*
X158921428Y-97720190D01*
X158997619Y-97796380D01*
X159073809Y-97834476D01*
X141268190Y-97740504D02*
X141268190Y-96940504D01*
X140925333Y-97016695D02*
X140887238Y-96978600D01*
X140811047Y-96940504D01*
X140620571Y-96940504D01*
X140544380Y-96978600D01*
X140506285Y-97016695D01*
X140468190Y-97092885D01*
X140468190Y-97169076D01*
X140506285Y-97283361D01*
X140963428Y-97740504D01*
X140468190Y-97740504D01*
X140125333Y-97740504D02*
X140125333Y-96940504D01*
X139820571Y-96940504D01*
X139744380Y-96978600D01*
X139706285Y-97016695D01*
X139668190Y-97092885D01*
X139668190Y-97207171D01*
X139706285Y-97283361D01*
X139744380Y-97321457D01*
X139820571Y-97359552D01*
X140125333Y-97359552D01*
X139515809Y-97816695D02*
X138906285Y-97816695D01*
X138715809Y-97740504D02*
X138715809Y-96940504D01*
X138334857Y-97740504D02*
X138334857Y-96940504D01*
X137877714Y-97740504D01*
X137877714Y-96940504D01*
X137077714Y-97740504D02*
X137534857Y-97740504D01*
X137306285Y-97740504D02*
X137306285Y-96940504D01*
X137382476Y-97054790D01*
X137458666Y-97130980D01*
X137534857Y-97169076D01*
X141306286Y-110724904D02*
X141306286Y-109924904D01*
X140963428Y-110001095D02*
X140925333Y-109963000D01*
X140849143Y-109924904D01*
X140658667Y-109924904D01*
X140582476Y-109963000D01*
X140544381Y-110001095D01*
X140506286Y-110077285D01*
X140506286Y-110153476D01*
X140544381Y-110267761D01*
X141001524Y-110724904D01*
X140506286Y-110724904D01*
X140163428Y-110724904D02*
X140163428Y-109924904D01*
X139706286Y-110724904D01*
X139706286Y-109924904D01*
X139515809Y-110801095D02*
X138906286Y-110801095D01*
X138715809Y-110724904D02*
X138715809Y-109924904D01*
X138334857Y-110724904D02*
X138334857Y-109924904D01*
X137877714Y-110724904D01*
X137877714Y-109924904D01*
X137077714Y-110724904D02*
X137534857Y-110724904D01*
X137306286Y-110724904D02*
X137306286Y-109924904D01*
X137382476Y-110039190D01*
X137458667Y-110115380D01*
X137534857Y-110153476D01*
X146237523Y-101053904D02*
X146237523Y-100253904D01*
X145970857Y-100825333D01*
X145704190Y-100253904D01*
X145704190Y-101053904D01*
X145323238Y-101053904D02*
X145323238Y-100253904D01*
X145056571Y-100825333D01*
X144789904Y-100253904D01*
X144789904Y-101053904D01*
X144408952Y-101053904D02*
X144408952Y-100253904D01*
X144218476Y-100253904D01*
X144104190Y-100292000D01*
X144028000Y-100368190D01*
X143989904Y-100444380D01*
X143951809Y-100596761D01*
X143951809Y-100711047D01*
X143989904Y-100863428D01*
X144028000Y-100939619D01*
X144104190Y-101015809D01*
X144218476Y-101053904D01*
X144408952Y-101053904D01*
X143189904Y-101053904D02*
X143647047Y-101053904D01*
X143418476Y-101053904D02*
X143418476Y-100253904D01*
X143494666Y-100368190D01*
X143570857Y-100444380D01*
X143647047Y-100482476D01*
X154238523Y-101053904D02*
X154238523Y-100253904D01*
X153971857Y-100825333D01*
X153705190Y-100253904D01*
X153705190Y-101053904D01*
X153324238Y-101053904D02*
X153324238Y-100253904D01*
X153057571Y-100825333D01*
X152790904Y-100253904D01*
X152790904Y-101053904D01*
X152409952Y-101053904D02*
X152409952Y-100253904D01*
X152219476Y-100253904D01*
X152105190Y-100292000D01*
X152029000Y-100368190D01*
X151990904Y-100444380D01*
X151952809Y-100596761D01*
X151952809Y-100711047D01*
X151990904Y-100863428D01*
X152029000Y-100939619D01*
X152105190Y-101015809D01*
X152219476Y-101053904D01*
X152409952Y-101053904D01*
X151457571Y-100253904D02*
X151381380Y-100253904D01*
X151305190Y-100292000D01*
X151267095Y-100330095D01*
X151229000Y-100406285D01*
X151190904Y-100558666D01*
X151190904Y-100749142D01*
X151229000Y-100901523D01*
X151267095Y-100977714D01*
X151305190Y-101015809D01*
X151381380Y-101053904D01*
X151457571Y-101053904D01*
X151533761Y-101015809D01*
X151571857Y-100977714D01*
X151609952Y-100901523D01*
X151648047Y-100749142D01*
X151648047Y-100558666D01*
X151609952Y-100406285D01*
X151571857Y-100330095D01*
X151533761Y-100292000D01*
X151457571Y-100253904D01*
X150555523Y-103428904D02*
X150555523Y-104076523D01*
X150517428Y-104152714D01*
X150479333Y-104190809D01*
X150403142Y-104228904D01*
X150250761Y-104228904D01*
X150174571Y-104190809D01*
X150136476Y-104152714D01*
X150098380Y-104076523D01*
X150098380Y-103428904D01*
X149755523Y-104190809D02*
X149641238Y-104228904D01*
X149450761Y-104228904D01*
X149374571Y-104190809D01*
X149336476Y-104152714D01*
X149298380Y-104076523D01*
X149298380Y-104000333D01*
X149336476Y-103924142D01*
X149374571Y-103886047D01*
X149450761Y-103847952D01*
X149603142Y-103809857D01*
X149679333Y-103771761D01*
X149717428Y-103733666D01*
X149755523Y-103657476D01*
X149755523Y-103581285D01*
X149717428Y-103505095D01*
X149679333Y-103467000D01*
X149603142Y-103428904D01*
X149412666Y-103428904D01*
X149298380Y-103467000D01*
X148955523Y-103809857D02*
X148688857Y-103809857D01*
X148574571Y-104228904D02*
X148955523Y-104228904D01*
X148955523Y-103428904D01*
X148574571Y-103428904D01*
X147850761Y-104228904D02*
X148231714Y-104228904D01*
X148231714Y-103428904D01*
X147165047Y-104228904D02*
X147622190Y-104228904D01*
X147393619Y-104228904D02*
X147393619Y-103428904D01*
X147469809Y-103543190D01*
X147546000Y-103619380D01*
X147622190Y-103657476D01*
G36*
X140838524Y-101592760D02*
G01*
X140933708Y-101593082D01*
X141004745Y-101594033D01*
X141055266Y-101595896D01*
X141088902Y-101598955D01*
X141109282Y-101603494D01*
X141120038Y-101609795D01*
X141124801Y-101618143D01*
X141126730Y-101626224D01*
X141133555Y-101659172D01*
X141143978Y-101711736D01*
X141156982Y-101778569D01*
X141171551Y-101854328D01*
X141186667Y-101933665D01*
X141201315Y-102011237D01*
X141214477Y-102081698D01*
X141225137Y-102139702D01*
X141232279Y-102179904D01*
X141234886Y-102196959D01*
X141236459Y-102198112D01*
X141256881Y-102207385D01*
X141295955Y-102223432D01*
X141347371Y-102243635D01*
X141416647Y-102271672D01*
X141496710Y-102306186D01*
X141567272Y-102338538D01*
X141583111Y-102345952D01*
X141632707Y-102366755D01*
X141670962Y-102379219D01*
X141690644Y-102380863D01*
X141692038Y-102380015D01*
X141712580Y-102366548D01*
X141752484Y-102339850D01*
X141807860Y-102302539D01*
X141874823Y-102257234D01*
X141949483Y-102206552D01*
X142034308Y-102149445D01*
X142100200Y-102106607D01*
X142148522Y-102077460D01*
X142182267Y-102060317D01*
X142204428Y-102053495D01*
X142217998Y-102055306D01*
X142219016Y-102055915D01*
X142238790Y-102072297D01*
X142274825Y-102105695D01*
X142323549Y-102152671D01*
X142381388Y-102209786D01*
X142444773Y-102273603D01*
X142509095Y-102339802D01*
X142569553Y-102404648D01*
X142610345Y-102452299D01*
X142632516Y-102483990D01*
X142637111Y-102500958D01*
X142636079Y-102503175D01*
X142622163Y-102526524D01*
X142594970Y-102568912D01*
X142557111Y-102626369D01*
X142511197Y-102694923D01*
X142459840Y-102770601D01*
X142291374Y-103017298D01*
X142341938Y-103128706D01*
X142343403Y-103131943D01*
X142373035Y-103200343D01*
X142402507Y-103272907D01*
X142425642Y-103334457D01*
X142425738Y-103334729D01*
X142443633Y-103383595D01*
X142458747Y-103421212D01*
X142467816Y-103439457D01*
X142468145Y-103439752D01*
X142486718Y-103445946D01*
X142528955Y-103456139D01*
X142590304Y-103469348D01*
X142666211Y-103484590D01*
X142752125Y-103500881D01*
X142755204Y-103501449D01*
X142842872Y-103517713D01*
X142922259Y-103532608D01*
X142988299Y-103545171D01*
X143035921Y-103554438D01*
X143060057Y-103559444D01*
X143061395Y-103559764D01*
X143071727Y-103563060D01*
X143079494Y-103569738D01*
X143085060Y-103583462D01*
X143088793Y-103607895D01*
X143091058Y-103646702D01*
X143092222Y-103703546D01*
X143092652Y-103782090D01*
X143092714Y-103886000D01*
X143092714Y-103899056D01*
X143092629Y-103999933D01*
X143092135Y-104075856D01*
X143090865Y-104130491D01*
X143088453Y-104167500D01*
X143084533Y-104190547D01*
X143078738Y-104203296D01*
X143070701Y-104209411D01*
X143060057Y-104212556D01*
X143059675Y-104212646D01*
X143034653Y-104217814D01*
X142986319Y-104227209D01*
X142919740Y-104239867D01*
X142839986Y-104254825D01*
X142752125Y-104271119D01*
X142744936Y-104272448D01*
X142659660Y-104288691D01*
X142584758Y-104303805D01*
X142524781Y-104316808D01*
X142484283Y-104326715D01*
X142467816Y-104332544D01*
X142467790Y-104332575D01*
X142458680Y-104350943D01*
X142443543Y-104388640D01*
X142425642Y-104437543D01*
X142424670Y-104440297D01*
X142401041Y-104502817D01*
X142371405Y-104575543D01*
X142341938Y-104643294D01*
X142291374Y-104754703D01*
X142459840Y-105001399D01*
X142471689Y-105018775D01*
X142522053Y-105093202D01*
X142566388Y-105159614D01*
X142602084Y-105214039D01*
X142626529Y-105252506D01*
X142637111Y-105271042D01*
X142634685Y-105283743D01*
X142615890Y-105312579D01*
X142578670Y-105357143D01*
X142521980Y-105418670D01*
X142444773Y-105498398D01*
X142437745Y-105505532D01*
X142374778Y-105568796D01*
X142317732Y-105624990D01*
X142270183Y-105670677D01*
X142235703Y-105702414D01*
X142217869Y-105716764D01*
X142217783Y-105716810D01*
X142204205Y-105718633D01*
X142182180Y-105711910D01*
X142148696Y-105694946D01*
X142100739Y-105666044D01*
X142035296Y-105623508D01*
X141949355Y-105565644D01*
X141934849Y-105555783D01*
X141861365Y-105505913D01*
X141796313Y-105461905D01*
X141743583Y-105426380D01*
X141707064Y-105401959D01*
X141690644Y-105391264D01*
X141687166Y-105390458D01*
X141661215Y-105395518D01*
X141618841Y-105410677D01*
X141567272Y-105433463D01*
X141499830Y-105464429D01*
X141419805Y-105499004D01*
X141347371Y-105528366D01*
X141328623Y-105535645D01*
X141280754Y-105554710D01*
X141247404Y-105568715D01*
X141234886Y-105575041D01*
X141233950Y-105582025D01*
X141228539Y-105613413D01*
X141219194Y-105664787D01*
X141206931Y-105730802D01*
X141192768Y-105806113D01*
X141177720Y-105885375D01*
X141162805Y-105963243D01*
X141149039Y-106034370D01*
X141137438Y-106093412D01*
X141129020Y-106135022D01*
X141124801Y-106153857D01*
X141123611Y-106156980D01*
X141117195Y-106164591D01*
X141103535Y-106170254D01*
X141079001Y-106174251D01*
X141039962Y-106176866D01*
X140982787Y-106178384D01*
X140903846Y-106179086D01*
X140799508Y-106179257D01*
X140482201Y-106179257D01*
X140467161Y-106103057D01*
X140465358Y-106093840D01*
X140456020Y-106044891D01*
X140443331Y-105977205D01*
X140428727Y-105898478D01*
X140413645Y-105816400D01*
X140407578Y-105784078D01*
X140392819Y-105711855D01*
X140378863Y-105651666D01*
X140367048Y-105609040D01*
X140358713Y-105589510D01*
X140345095Y-105580660D01*
X140309062Y-105564548D01*
X140262428Y-105548065D01*
X140244966Y-105542263D01*
X140187642Y-105520906D01*
X140119799Y-105493359D01*
X140052645Y-105464107D01*
X140017570Y-105448463D01*
X139965178Y-105426174D01*
X139925942Y-105410857D01*
X139906437Y-105405162D01*
X139904964Y-105405478D01*
X139884271Y-105416281D01*
X139844335Y-105440638D01*
X139789028Y-105476081D01*
X139722219Y-105520136D01*
X139647780Y-105570332D01*
X139405377Y-105735501D01*
X139188017Y-105518503D01*
X139167101Y-105497516D01*
X139104495Y-105433342D01*
X139050505Y-105375990D01*
X139008174Y-105328820D01*
X138980543Y-105295192D01*
X138970657Y-105278467D01*
X138978179Y-105260303D01*
X138999773Y-105222265D01*
X139032849Y-105168726D01*
X139074809Y-105103884D01*
X139123057Y-105031940D01*
X139170709Y-104961275D01*
X139212672Y-104897526D01*
X139245835Y-104845513D01*
X139267622Y-104809279D01*
X139275457Y-104792867D01*
X139275386Y-104791905D01*
X139267662Y-104770103D01*
X139249677Y-104731440D01*
X139224987Y-104683612D01*
X139224716Y-104683110D01*
X139192901Y-104619587D01*
X139177358Y-104576060D01*
X139177315Y-104549052D01*
X139192000Y-104535090D01*
X139206456Y-104529180D01*
X139245169Y-104513229D01*
X139304684Y-104488660D01*
X139381835Y-104456779D01*
X139473459Y-104418893D01*
X139576393Y-104376310D01*
X139687474Y-104330337D01*
X139788528Y-104288667D01*
X139892220Y-104246268D01*
X139984881Y-104208756D01*
X140063358Y-104177388D01*
X140124500Y-104153425D01*
X140165157Y-104138123D01*
X140182175Y-104132743D01*
X140197781Y-104143018D01*
X140223838Y-104171563D01*
X140254113Y-104211971D01*
X140333316Y-104308979D01*
X140434525Y-104395793D01*
X140545884Y-104459322D01*
X140664107Y-104499177D01*
X140785905Y-104514965D01*
X140907990Y-104506296D01*
X141027075Y-104472778D01*
X141139871Y-104414021D01*
X141243089Y-104329632D01*
X141283287Y-104285631D01*
X141354362Y-104180211D01*
X141400699Y-104067410D01*
X141423401Y-103950525D01*
X141423572Y-103832853D01*
X141402313Y-103717690D01*
X141360730Y-103608335D01*
X141299924Y-103508083D01*
X141220999Y-103420233D01*
X141125059Y-103348080D01*
X141013205Y-103294922D01*
X140886543Y-103264057D01*
X140825493Y-103258392D01*
X140693224Y-103266185D01*
X140567734Y-103301284D01*
X140451241Y-103362649D01*
X140345961Y-103449243D01*
X140254113Y-103560029D01*
X140225070Y-103598931D01*
X140198728Y-103628104D01*
X140182200Y-103639257D01*
X140167791Y-103634810D01*
X140129185Y-103620378D01*
X140069799Y-103597173D01*
X139992785Y-103566452D01*
X139901297Y-103529474D01*
X139798484Y-103487496D01*
X139687498Y-103441778D01*
X139586928Y-103400178D01*
X139483053Y-103357222D01*
X139390181Y-103318829D01*
X139311475Y-103286305D01*
X139250101Y-103260958D01*
X139209221Y-103244095D01*
X139192000Y-103237025D01*
X139191796Y-103236943D01*
X139177255Y-103222798D01*
X139177421Y-103195659D01*
X139193073Y-103152023D01*
X139224987Y-103088388D01*
X139227674Y-103083379D01*
X139251850Y-103036125D01*
X139268963Y-102998811D01*
X139275457Y-102979133D01*
X139267782Y-102963005D01*
X139246129Y-102926959D01*
X139213072Y-102875092D01*
X139171190Y-102811445D01*
X139123057Y-102740060D01*
X139075869Y-102669724D01*
X139033733Y-102604670D01*
X139000422Y-102550820D01*
X138978531Y-102512374D01*
X138970657Y-102493534D01*
X138971657Y-102490325D01*
X138987416Y-102467954D01*
X139019967Y-102429733D01*
X139066267Y-102379021D01*
X139123274Y-102319181D01*
X139187942Y-102253571D01*
X139405228Y-102036648D01*
X139653747Y-102205601D01*
X139902267Y-102374553D01*
X140013405Y-102323183D01*
X140013734Y-102323031D01*
X140084582Y-102292183D01*
X140163477Y-102260661D01*
X140233400Y-102235266D01*
X140244678Y-102231423D01*
X140297033Y-102212047D01*
X140337717Y-102194574D01*
X140358713Y-102182388D01*
X140361678Y-102177426D01*
X140371625Y-102147634D01*
X140384495Y-102097047D01*
X140398947Y-102031194D01*
X140413645Y-101955600D01*
X140417790Y-101932957D01*
X140432884Y-101851038D01*
X140447101Y-101774600D01*
X140459005Y-101711337D01*
X140467161Y-101668943D01*
X140482201Y-101592743D01*
X140799508Y-101592743D01*
X140838524Y-101592760D01*
G37*
D12*
X140838524Y-101592760D02*
X140933708Y-101593082D01*
X141004745Y-101594033D01*
X141055266Y-101595896D01*
X141088902Y-101598955D01*
X141109282Y-101603494D01*
X141120038Y-101609795D01*
X141124801Y-101618143D01*
X141126730Y-101626224D01*
X141133555Y-101659172D01*
X141143978Y-101711736D01*
X141156982Y-101778569D01*
X141171551Y-101854328D01*
X141186667Y-101933665D01*
X141201315Y-102011237D01*
X141214477Y-102081698D01*
X141225137Y-102139702D01*
X141232279Y-102179904D01*
X141234886Y-102196959D01*
X141236459Y-102198112D01*
X141256881Y-102207385D01*
X141295955Y-102223432D01*
X141347371Y-102243635D01*
X141416647Y-102271672D01*
X141496710Y-102306186D01*
X141567272Y-102338538D01*
X141583111Y-102345952D01*
X141632707Y-102366755D01*
X141670962Y-102379219D01*
X141690644Y-102380863D01*
X141692038Y-102380015D01*
X141712580Y-102366548D01*
X141752484Y-102339850D01*
X141807860Y-102302539D01*
X141874823Y-102257234D01*
X141949483Y-102206552D01*
X142034308Y-102149445D01*
X142100200Y-102106607D01*
X142148522Y-102077460D01*
X142182267Y-102060317D01*
X142204428Y-102053495D01*
X142217998Y-102055306D01*
X142219016Y-102055915D01*
X142238790Y-102072297D01*
X142274825Y-102105695D01*
X142323549Y-102152671D01*
X142381388Y-102209786D01*
X142444773Y-102273603D01*
X142509095Y-102339802D01*
X142569553Y-102404648D01*
X142610345Y-102452299D01*
X142632516Y-102483990D01*
X142637111Y-102500958D01*
X142636079Y-102503175D01*
X142622163Y-102526524D01*
X142594970Y-102568912D01*
X142557111Y-102626369D01*
X142511197Y-102694923D01*
X142459840Y-102770601D01*
X142291374Y-103017298D01*
X142341938Y-103128706D01*
X142343403Y-103131943D01*
X142373035Y-103200343D01*
X142402507Y-103272907D01*
X142425642Y-103334457D01*
X142425738Y-103334729D01*
X142443633Y-103383595D01*
X142458747Y-103421212D01*
X142467816Y-103439457D01*
X142468145Y-103439752D01*
X142486718Y-103445946D01*
X142528955Y-103456139D01*
X142590304Y-103469348D01*
X142666211Y-103484590D01*
X142752125Y-103500881D01*
X142755204Y-103501449D01*
X142842872Y-103517713D01*
X142922259Y-103532608D01*
X142988299Y-103545171D01*
X143035921Y-103554438D01*
X143060057Y-103559444D01*
X143061395Y-103559764D01*
X143071727Y-103563060D01*
X143079494Y-103569738D01*
X143085060Y-103583462D01*
X143088793Y-103607895D01*
X143091058Y-103646702D01*
X143092222Y-103703546D01*
X143092652Y-103782090D01*
X143092714Y-103886000D01*
X143092714Y-103899056D01*
X143092629Y-103999933D01*
X143092135Y-104075856D01*
X143090865Y-104130491D01*
X143088453Y-104167500D01*
X143084533Y-104190547D01*
X143078738Y-104203296D01*
X143070701Y-104209411D01*
X143060057Y-104212556D01*
X143059675Y-104212646D01*
X143034653Y-104217814D01*
X142986319Y-104227209D01*
X142919740Y-104239867D01*
X142839986Y-104254825D01*
X142752125Y-104271119D01*
X142744936Y-104272448D01*
X142659660Y-104288691D01*
X142584758Y-104303805D01*
X142524781Y-104316808D01*
X142484283Y-104326715D01*
X142467816Y-104332544D01*
X142467790Y-104332575D01*
X142458680Y-104350943D01*
X142443543Y-104388640D01*
X142425642Y-104437543D01*
X142424670Y-104440297D01*
X142401041Y-104502817D01*
X142371405Y-104575543D01*
X142341938Y-104643294D01*
X142291374Y-104754703D01*
X142459840Y-105001399D01*
X142471689Y-105018775D01*
X142522053Y-105093202D01*
X142566388Y-105159614D01*
X142602084Y-105214039D01*
X142626529Y-105252506D01*
X142637111Y-105271042D01*
X142634685Y-105283743D01*
X142615890Y-105312579D01*
X142578670Y-105357143D01*
X142521980Y-105418670D01*
X142444773Y-105498398D01*
X142437745Y-105505532D01*
X142374778Y-105568796D01*
X142317732Y-105624990D01*
X142270183Y-105670677D01*
X142235703Y-105702414D01*
X142217869Y-105716764D01*
X142217783Y-105716810D01*
X142204205Y-105718633D01*
X142182180Y-105711910D01*
X142148696Y-105694946D01*
X142100739Y-105666044D01*
X142035296Y-105623508D01*
X141949355Y-105565644D01*
X141934849Y-105555783D01*
X141861365Y-105505913D01*
X141796313Y-105461905D01*
X141743583Y-105426380D01*
X141707064Y-105401959D01*
X141690644Y-105391264D01*
X141687166Y-105390458D01*
X141661215Y-105395518D01*
X141618841Y-105410677D01*
X141567272Y-105433463D01*
X141499830Y-105464429D01*
X141419805Y-105499004D01*
X141347371Y-105528366D01*
X141328623Y-105535645D01*
X141280754Y-105554710D01*
X141247404Y-105568715D01*
X141234886Y-105575041D01*
X141233950Y-105582025D01*
X141228539Y-105613413D01*
X141219194Y-105664787D01*
X141206931Y-105730802D01*
X141192768Y-105806113D01*
X141177720Y-105885375D01*
X141162805Y-105963243D01*
X141149039Y-106034370D01*
X141137438Y-106093412D01*
X141129020Y-106135022D01*
X141124801Y-106153857D01*
X141123611Y-106156980D01*
X141117195Y-106164591D01*
X141103535Y-106170254D01*
X141079001Y-106174251D01*
X141039962Y-106176866D01*
X140982787Y-106178384D01*
X140903846Y-106179086D01*
X140799508Y-106179257D01*
X140482201Y-106179257D01*
X140467161Y-106103057D01*
X140465358Y-106093840D01*
X140456020Y-106044891D01*
X140443331Y-105977205D01*
X140428727Y-105898478D01*
X140413645Y-105816400D01*
X140407578Y-105784078D01*
X140392819Y-105711855D01*
X140378863Y-105651666D01*
X140367048Y-105609040D01*
X140358713Y-105589510D01*
X140345095Y-105580660D01*
X140309062Y-105564548D01*
X140262428Y-105548065D01*
X140244966Y-105542263D01*
X140187642Y-105520906D01*
X140119799Y-105493359D01*
X140052645Y-105464107D01*
X140017570Y-105448463D01*
X139965178Y-105426174D01*
X139925942Y-105410857D01*
X139906437Y-105405162D01*
X139904964Y-105405478D01*
X139884271Y-105416281D01*
X139844335Y-105440638D01*
X139789028Y-105476081D01*
X139722219Y-105520136D01*
X139647780Y-105570332D01*
X139405377Y-105735501D01*
X139188017Y-105518503D01*
X139167101Y-105497516D01*
X139104495Y-105433342D01*
X139050505Y-105375990D01*
X139008174Y-105328820D01*
X138980543Y-105295192D01*
X138970657Y-105278467D01*
X138978179Y-105260303D01*
X138999773Y-105222265D01*
X139032849Y-105168726D01*
X139074809Y-105103884D01*
X139123057Y-105031940D01*
X139170709Y-104961275D01*
X139212672Y-104897526D01*
X139245835Y-104845513D01*
X139267622Y-104809279D01*
X139275457Y-104792867D01*
X139275386Y-104791905D01*
X139267662Y-104770103D01*
X139249677Y-104731440D01*
X139224987Y-104683612D01*
X139224716Y-104683110D01*
X139192901Y-104619587D01*
X139177358Y-104576060D01*
X139177315Y-104549052D01*
X139192000Y-104535090D01*
X139206456Y-104529180D01*
X139245169Y-104513229D01*
X139304684Y-104488660D01*
X139381835Y-104456779D01*
X139473459Y-104418893D01*
X139576393Y-104376310D01*
X139687474Y-104330337D01*
X139788528Y-104288667D01*
X139892220Y-104246268D01*
X139984881Y-104208756D01*
X140063358Y-104177388D01*
X140124500Y-104153425D01*
X140165157Y-104138123D01*
X140182175Y-104132743D01*
X140197781Y-104143018D01*
X140223838Y-104171563D01*
X140254113Y-104211971D01*
X140333316Y-104308979D01*
X140434525Y-104395793D01*
X140545884Y-104459322D01*
X140664107Y-104499177D01*
X140785905Y-104514965D01*
X140907990Y-104506296D01*
X141027075Y-104472778D01*
X141139871Y-104414021D01*
X141243089Y-104329632D01*
X141283287Y-104285631D01*
X141354362Y-104180211D01*
X141400699Y-104067410D01*
X141423401Y-103950525D01*
X141423572Y-103832853D01*
X141402313Y-103717690D01*
X141360730Y-103608335D01*
X141299924Y-103508083D01*
X141220999Y-103420233D01*
X141125059Y-103348080D01*
X141013205Y-103294922D01*
X140886543Y-103264057D01*
X140825493Y-103258392D01*
X140693224Y-103266185D01*
X140567734Y-103301284D01*
X140451241Y-103362649D01*
X140345961Y-103449243D01*
X140254113Y-103560029D01*
X140225070Y-103598931D01*
X140198728Y-103628104D01*
X140182200Y-103639257D01*
X140167791Y-103634810D01*
X140129185Y-103620378D01*
X140069799Y-103597173D01*
X139992785Y-103566452D01*
X139901297Y-103529474D01*
X139798484Y-103487496D01*
X139687498Y-103441778D01*
X139586928Y-103400178D01*
X139483053Y-103357222D01*
X139390181Y-103318829D01*
X139311475Y-103286305D01*
X139250101Y-103260958D01*
X139209221Y-103244095D01*
X139192000Y-103237025D01*
X139191796Y-103236943D01*
X139177255Y-103222798D01*
X139177421Y-103195659D01*
X139193073Y-103152023D01*
X139224987Y-103088388D01*
X139227674Y-103083379D01*
X139251850Y-103036125D01*
X139268963Y-102998811D01*
X139275457Y-102979133D01*
X139267782Y-102963005D01*
X139246129Y-102926959D01*
X139213072Y-102875092D01*
X139171190Y-102811445D01*
X139123057Y-102740060D01*
X139075869Y-102669724D01*
X139033733Y-102604670D01*
X139000422Y-102550820D01*
X138978531Y-102512374D01*
X138970657Y-102493534D01*
X138971657Y-102490325D01*
X138987416Y-102467954D01*
X139019967Y-102429733D01*
X139066267Y-102379021D01*
X139123274Y-102319181D01*
X139187942Y-102253571D01*
X139405228Y-102036648D01*
X139653747Y-102205601D01*
X139902267Y-102374553D01*
X140013405Y-102323183D01*
X140013734Y-102323031D01*
X140084582Y-102292183D01*
X140163477Y-102260661D01*
X140233400Y-102235266D01*
X140244678Y-102231423D01*
X140297033Y-102212047D01*
X140337717Y-102194574D01*
X140358713Y-102182388D01*
X140361678Y-102177426D01*
X140371625Y-102147634D01*
X140384495Y-102097047D01*
X140398947Y-102031194D01*
X140413645Y-101955600D01*
X140417790Y-101932957D01*
X140432884Y-101851038D01*
X140447101Y-101774600D01*
X140459005Y-101711337D01*
X140467161Y-101668943D01*
X140482201Y-101592743D01*
X140799508Y-101592743D01*
X140838524Y-101592760D01*
G36*
X138082378Y-101026590D02*
G01*
X138043695Y-101026307D01*
X137967479Y-101022762D01*
X137911706Y-101013483D01*
X137870387Y-100996375D01*
X137837533Y-100969344D01*
X137810384Y-100934444D01*
X138099800Y-100934444D01*
X138103874Y-100936977D01*
X138128753Y-100937993D01*
X138168743Y-100934369D01*
X138207848Y-100925242D01*
X138257116Y-100896773D01*
X138284878Y-100855678D01*
X138288636Y-100806590D01*
X138265891Y-100754144D01*
X138254519Y-100739609D01*
X138228780Y-100722010D01*
X138203343Y-100729368D01*
X138176186Y-100762848D01*
X138145286Y-100823614D01*
X138140810Y-100833669D01*
X138119983Y-100881751D01*
X138105335Y-100917726D01*
X138099800Y-100934444D01*
X137810384Y-100934444D01*
X137807154Y-100930292D01*
X137793340Y-100905445D01*
X137784035Y-100865615D01*
X137784770Y-100809665D01*
X137787717Y-100778385D01*
X137796717Y-100740653D01*
X137816280Y-100710494D01*
X137852733Y-100675408D01*
X137858057Y-100670720D01*
X137899031Y-100639177D01*
X137934717Y-100624128D01*
X137977034Y-100620286D01*
X138039221Y-100620286D01*
X138022818Y-100663742D01*
X138003644Y-100695424D01*
X137958653Y-100722962D01*
X137944248Y-100728711D01*
X137903454Y-100760855D01*
X137882919Y-100804611D01*
X137884765Y-100852254D01*
X137911114Y-100896057D01*
X137927545Y-100911111D01*
X137952333Y-100924763D01*
X137974856Y-100920493D01*
X137998036Y-100895916D01*
X138024798Y-100848651D01*
X138058066Y-100776314D01*
X138123184Y-100627543D01*
X138187692Y-100623595D01*
X138235936Y-100625338D01*
X138296904Y-100647281D01*
X138330503Y-100674979D01*
X138368034Y-100732405D01*
X138386994Y-100800527D01*
X138385493Y-100870947D01*
X138361645Y-100935267D01*
X138352487Y-100949426D01*
X138324151Y-100981904D01*
X138288305Y-101004116D01*
X138239616Y-101017804D01*
X138172751Y-101024715D01*
X138128753Y-101025628D01*
X138082378Y-101026590D01*
G37*
X138082378Y-101026590D02*
X138043695Y-101026307D01*
X137967479Y-101022762D01*
X137911706Y-101013483D01*
X137870387Y-100996375D01*
X137837533Y-100969344D01*
X137810384Y-100934444D01*
X138099800Y-100934444D01*
X138103874Y-100936977D01*
X138128753Y-100937993D01*
X138168743Y-100934369D01*
X138207848Y-100925242D01*
X138257116Y-100896773D01*
X138284878Y-100855678D01*
X138288636Y-100806590D01*
X138265891Y-100754144D01*
X138254519Y-100739609D01*
X138228780Y-100722010D01*
X138203343Y-100729368D01*
X138176186Y-100762848D01*
X138145286Y-100823614D01*
X138140810Y-100833669D01*
X138119983Y-100881751D01*
X138105335Y-100917726D01*
X138099800Y-100934444D01*
X137810384Y-100934444D01*
X137807154Y-100930292D01*
X137793340Y-100905445D01*
X137784035Y-100865615D01*
X137784770Y-100809665D01*
X137787717Y-100778385D01*
X137796717Y-100740653D01*
X137816280Y-100710494D01*
X137852733Y-100675408D01*
X137858057Y-100670720D01*
X137899031Y-100639177D01*
X137934717Y-100624128D01*
X137977034Y-100620286D01*
X138039221Y-100620286D01*
X138022818Y-100663742D01*
X138003644Y-100695424D01*
X137958653Y-100722962D01*
X137944248Y-100728711D01*
X137903454Y-100760855D01*
X137882919Y-100804611D01*
X137884765Y-100852254D01*
X137911114Y-100896057D01*
X137927545Y-100911111D01*
X137952333Y-100924763D01*
X137974856Y-100920493D01*
X137998036Y-100895916D01*
X138024798Y-100848651D01*
X138058066Y-100776314D01*
X138123184Y-100627543D01*
X138187692Y-100623595D01*
X138235936Y-100625338D01*
X138296904Y-100647281D01*
X138330503Y-100674979D01*
X138368034Y-100732405D01*
X138386994Y-100800527D01*
X138385493Y-100870947D01*
X138361645Y-100935267D01*
X138352487Y-100949426D01*
X138324151Y-100981904D01*
X138288305Y-101004116D01*
X138239616Y-101017804D01*
X138172751Y-101024715D01*
X138128753Y-101025628D01*
X138082378Y-101026590D01*
G36*
X138140945Y-106048299D02*
G01*
X138030922Y-106043684D01*
X138007613Y-106041078D01*
X137924648Y-106021660D01*
X137861552Y-105986573D01*
X137813192Y-105933212D01*
X137811196Y-105930196D01*
X137782815Y-105862362D01*
X137780289Y-105791535D01*
X137801903Y-105723289D01*
X137845938Y-105663196D01*
X137910678Y-105616829D01*
X137912239Y-105616050D01*
X137952442Y-105600643D01*
X137998134Y-105589357D01*
X138041028Y-105583370D01*
X138072840Y-105583861D01*
X138085286Y-105592007D01*
X138084529Y-105599244D01*
X138070765Y-105633851D01*
X138045454Y-105673078D01*
X138016155Y-105706448D01*
X137990428Y-105723483D01*
X137955529Y-105741192D01*
X137923788Y-105777485D01*
X137911114Y-105819630D01*
X137914779Y-105835077D01*
X137933226Y-105865569D01*
X137958834Y-105892128D01*
X137982066Y-105903486D01*
X137982152Y-105903482D01*
X137991842Y-105891778D01*
X138150907Y-105891778D01*
X138160247Y-105901676D01*
X138192252Y-105903486D01*
X138232085Y-105895966D01*
X138268283Y-105869897D01*
X138287050Y-105832154D01*
X138285155Y-105790077D01*
X138259368Y-105751005D01*
X138241549Y-105735647D01*
X138227987Y-105732000D01*
X138215051Y-105746791D01*
X138195667Y-105783644D01*
X138195119Y-105784725D01*
X138174413Y-105828205D01*
X138157895Y-105867102D01*
X138150907Y-105891778D01*
X137991842Y-105891778D01*
X137992821Y-105890596D01*
X138012067Y-105856241D01*
X138037187Y-105805593D01*
X138065476Y-105743829D01*
X138065626Y-105743489D01*
X138095502Y-105676388D01*
X138117027Y-105631411D01*
X138133563Y-105604145D01*
X138148469Y-105590178D01*
X138165107Y-105585097D01*
X138186838Y-105584490D01*
X138238914Y-105589833D01*
X138309665Y-105616251D01*
X138365265Y-105660473D01*
X138403761Y-105717697D01*
X138423203Y-105783120D01*
X138421641Y-105851937D01*
X138397122Y-105919347D01*
X138347698Y-105980544D01*
X138298788Y-106014450D01*
X138228973Y-106038806D01*
X138192252Y-106042767D01*
X138140945Y-106048299D01*
G37*
X138140945Y-106048299D02*
X138030922Y-106043684D01*
X138007613Y-106041078D01*
X137924648Y-106021660D01*
X137861552Y-105986573D01*
X137813192Y-105933212D01*
X137811196Y-105930196D01*
X137782815Y-105862362D01*
X137780289Y-105791535D01*
X137801903Y-105723289D01*
X137845938Y-105663196D01*
X137910678Y-105616829D01*
X137912239Y-105616050D01*
X137952442Y-105600643D01*
X137998134Y-105589357D01*
X138041028Y-105583370D01*
X138072840Y-105583861D01*
X138085286Y-105592007D01*
X138084529Y-105599244D01*
X138070765Y-105633851D01*
X138045454Y-105673078D01*
X138016155Y-105706448D01*
X137990428Y-105723483D01*
X137955529Y-105741192D01*
X137923788Y-105777485D01*
X137911114Y-105819630D01*
X137914779Y-105835077D01*
X137933226Y-105865569D01*
X137958834Y-105892128D01*
X137982066Y-105903486D01*
X137982152Y-105903482D01*
X137991842Y-105891778D01*
X138150907Y-105891778D01*
X138160247Y-105901676D01*
X138192252Y-105903486D01*
X138232085Y-105895966D01*
X138268283Y-105869897D01*
X138287050Y-105832154D01*
X138285155Y-105790077D01*
X138259368Y-105751005D01*
X138241549Y-105735647D01*
X138227987Y-105732000D01*
X138215051Y-105746791D01*
X138195667Y-105783644D01*
X138195119Y-105784725D01*
X138174413Y-105828205D01*
X138157895Y-105867102D01*
X138150907Y-105891778D01*
X137991842Y-105891778D01*
X137992821Y-105890596D01*
X138012067Y-105856241D01*
X138037187Y-105805593D01*
X138065476Y-105743829D01*
X138065626Y-105743489D01*
X138095502Y-105676388D01*
X138117027Y-105631411D01*
X138133563Y-105604145D01*
X138148469Y-105590178D01*
X138165107Y-105585097D01*
X138186838Y-105584490D01*
X138238914Y-105589833D01*
X138309665Y-105616251D01*
X138365265Y-105660473D01*
X138403761Y-105717697D01*
X138423203Y-105783120D01*
X138421641Y-105851937D01*
X138397122Y-105919347D01*
X138347698Y-105980544D01*
X138298788Y-106014450D01*
X138228973Y-106038806D01*
X138192252Y-106042767D01*
X138140945Y-106048299D01*
G36*
X138085673Y-101607493D02*
G01*
X138169793Y-101609729D01*
X138232200Y-101615423D01*
X138277642Y-101625903D01*
X138310867Y-101642497D01*
X138336622Y-101666531D01*
X138359656Y-101699333D01*
X138378665Y-101741124D01*
X138390086Y-101818287D01*
X138388780Y-101853495D01*
X138380879Y-101884599D01*
X138361183Y-101913559D01*
X138324516Y-101950831D01*
X138298622Y-101974801D01*
X138265003Y-101999770D01*
X138233494Y-102011031D01*
X138193515Y-102013657D01*
X138128083Y-102013657D01*
X138151158Y-101969035D01*
X138179276Y-101933673D01*
X138217152Y-101909451D01*
X138227449Y-101905291D01*
X138267363Y-101873594D01*
X138287376Y-101829554D01*
X138285428Y-101781531D01*
X138259457Y-101737886D01*
X138238365Y-101719420D01*
X138211381Y-101708663D01*
X138187366Y-101720178D01*
X138163209Y-101755981D01*
X138135801Y-101818090D01*
X138132015Y-101827515D01*
X138107241Y-101884058D01*
X138082811Y-101932580D01*
X138063514Y-101963451D01*
X138029047Y-101994371D01*
X137974043Y-102014927D01*
X137915017Y-102012744D01*
X137859155Y-101988424D01*
X137813645Y-101942568D01*
X137794273Y-101905438D01*
X137780708Y-101833711D01*
X137782538Y-101793852D01*
X137792432Y-101756953D01*
X137813194Y-101742797D01*
X137847387Y-101748091D01*
X137851908Y-101749631D01*
X137875884Y-101761842D01*
X137884958Y-101782174D01*
X137884351Y-101820908D01*
X137883526Y-101848257D01*
X137890608Y-101880257D01*
X137911781Y-101902182D01*
X137937848Y-101914670D01*
X137965155Y-101916062D01*
X137965315Y-101915998D01*
X137980070Y-101899807D01*
X138001543Y-101865155D01*
X138025542Y-101820321D01*
X138047875Y-101773582D01*
X138064348Y-101733217D01*
X138070771Y-101707504D01*
X138064482Y-101703679D01*
X138034885Y-101698864D01*
X137986553Y-101695566D01*
X137925628Y-101694343D01*
X137883458Y-101694058D01*
X137830347Y-101692718D01*
X137793975Y-101690528D01*
X137780486Y-101687769D01*
X137785019Y-101673344D01*
X137797330Y-101644226D01*
X137814174Y-101607257D01*
X138030279Y-101607257D01*
X138085673Y-101607493D01*
G37*
X138085673Y-101607493D02*
X138169793Y-101609729D01*
X138232200Y-101615423D01*
X138277642Y-101625903D01*
X138310867Y-101642497D01*
X138336622Y-101666531D01*
X138359656Y-101699333D01*
X138378665Y-101741124D01*
X138390086Y-101818287D01*
X138388780Y-101853495D01*
X138380879Y-101884599D01*
X138361183Y-101913559D01*
X138324516Y-101950831D01*
X138298622Y-101974801D01*
X138265003Y-101999770D01*
X138233494Y-102011031D01*
X138193515Y-102013657D01*
X138128083Y-102013657D01*
X138151158Y-101969035D01*
X138179276Y-101933673D01*
X138217152Y-101909451D01*
X138227449Y-101905291D01*
X138267363Y-101873594D01*
X138287376Y-101829554D01*
X138285428Y-101781531D01*
X138259457Y-101737886D01*
X138238365Y-101719420D01*
X138211381Y-101708663D01*
X138187366Y-101720178D01*
X138163209Y-101755981D01*
X138135801Y-101818090D01*
X138132015Y-101827515D01*
X138107241Y-101884058D01*
X138082811Y-101932580D01*
X138063514Y-101963451D01*
X138029047Y-101994371D01*
X137974043Y-102014927D01*
X137915017Y-102012744D01*
X137859155Y-101988424D01*
X137813645Y-101942568D01*
X137794273Y-101905438D01*
X137780708Y-101833711D01*
X137782538Y-101793852D01*
X137792432Y-101756953D01*
X137813194Y-101742797D01*
X137847387Y-101748091D01*
X137851908Y-101749631D01*
X137875884Y-101761842D01*
X137884958Y-101782174D01*
X137884351Y-101820908D01*
X137883526Y-101848257D01*
X137890608Y-101880257D01*
X137911781Y-101902182D01*
X137937848Y-101914670D01*
X137965155Y-101916062D01*
X137965315Y-101915998D01*
X137980070Y-101899807D01*
X138001543Y-101865155D01*
X138025542Y-101820321D01*
X138047875Y-101773582D01*
X138064348Y-101733217D01*
X138070771Y-101707504D01*
X138064482Y-101703679D01*
X138034885Y-101698864D01*
X137986553Y-101695566D01*
X137925628Y-101694343D01*
X137883458Y-101694058D01*
X137830347Y-101692718D01*
X137793975Y-101690528D01*
X137780486Y-101687769D01*
X137785019Y-101673344D01*
X137797330Y-101644226D01*
X137814174Y-101607257D01*
X138030279Y-101607257D01*
X138085673Y-101607493D01*
G36*
X138033476Y-106595815D02*
G01*
X137922000Y-106597252D01*
X137889661Y-106597651D01*
X137781545Y-106598929D01*
X137698814Y-106599185D01*
X137638574Y-106597634D01*
X137597927Y-106593490D01*
X137573977Y-106585964D01*
X137563829Y-106574271D01*
X137564586Y-106557624D01*
X137573352Y-106535236D01*
X137587231Y-106506321D01*
X137590192Y-106500142D01*
X137604689Y-106474413D01*
X137621935Y-106460976D01*
X137650692Y-106455834D01*
X137699717Y-106454990D01*
X137787743Y-106454952D01*
X137787743Y-106364276D01*
X137788532Y-106346237D01*
X137915048Y-106346237D01*
X137917433Y-106380596D01*
X137946740Y-106419403D01*
X137956756Y-106428895D01*
X137977292Y-106442876D01*
X138004003Y-106450760D01*
X138044501Y-106454245D01*
X138106397Y-106455029D01*
X138143870Y-106454350D01*
X138212020Y-106446983D01*
X138256670Y-106430168D01*
X138281074Y-106402234D01*
X138288486Y-106361509D01*
X138286906Y-106344350D01*
X138271234Y-106314660D01*
X138236309Y-106295031D01*
X138179099Y-106284188D01*
X138096570Y-106280857D01*
X138083303Y-106280882D01*
X138023416Y-106282261D01*
X137984268Y-106286687D01*
X137958847Y-106295461D01*
X137940143Y-106309886D01*
X137939250Y-106310784D01*
X137915048Y-106346237D01*
X137788532Y-106346237D01*
X137790185Y-106308498D01*
X137800092Y-106264640D01*
X137820114Y-106228218D01*
X137822071Y-106225503D01*
X137855131Y-106188546D01*
X137895069Y-106162826D01*
X137947343Y-106146606D01*
X138017412Y-106138148D01*
X138110733Y-106135714D01*
X138178831Y-106136253D01*
X138230413Y-106138707D01*
X138266184Y-106144158D01*
X138292985Y-106153686D01*
X138317662Y-106168371D01*
X138336520Y-106181852D01*
X138387432Y-106230799D01*
X138415082Y-106286256D01*
X138423835Y-106355928D01*
X138415110Y-106435664D01*
X138383815Y-106504595D01*
X138328619Y-106559113D01*
X138322776Y-106563223D01*
X138307247Y-106572808D01*
X138289502Y-106580151D01*
X138265710Y-106585612D01*
X138232042Y-106589550D01*
X138184667Y-106592323D01*
X138119755Y-106594292D01*
X138106397Y-106594528D01*
X138033476Y-106595815D01*
G37*
X138033476Y-106595815D02*
X137922000Y-106597252D01*
X137889661Y-106597651D01*
X137781545Y-106598929D01*
X137698814Y-106599185D01*
X137638574Y-106597634D01*
X137597927Y-106593490D01*
X137573977Y-106585964D01*
X137563829Y-106574271D01*
X137564586Y-106557624D01*
X137573352Y-106535236D01*
X137587231Y-106506321D01*
X137590192Y-106500142D01*
X137604689Y-106474413D01*
X137621935Y-106460976D01*
X137650692Y-106455834D01*
X137699717Y-106454990D01*
X137787743Y-106454952D01*
X137787743Y-106364276D01*
X137788532Y-106346237D01*
X137915048Y-106346237D01*
X137917433Y-106380596D01*
X137946740Y-106419403D01*
X137956756Y-106428895D01*
X137977292Y-106442876D01*
X138004003Y-106450760D01*
X138044501Y-106454245D01*
X138106397Y-106455029D01*
X138143870Y-106454350D01*
X138212020Y-106446983D01*
X138256670Y-106430168D01*
X138281074Y-106402234D01*
X138288486Y-106361509D01*
X138286906Y-106344350D01*
X138271234Y-106314660D01*
X138236309Y-106295031D01*
X138179099Y-106284188D01*
X138096570Y-106280857D01*
X138083303Y-106280882D01*
X138023416Y-106282261D01*
X137984268Y-106286687D01*
X137958847Y-106295461D01*
X137940143Y-106309886D01*
X137939250Y-106310784D01*
X137915048Y-106346237D01*
X137788532Y-106346237D01*
X137790185Y-106308498D01*
X137800092Y-106264640D01*
X137820114Y-106228218D01*
X137822071Y-106225503D01*
X137855131Y-106188546D01*
X137895069Y-106162826D01*
X137947343Y-106146606D01*
X138017412Y-106138148D01*
X138110733Y-106135714D01*
X138178831Y-106136253D01*
X138230413Y-106138707D01*
X138266184Y-106144158D01*
X138292985Y-106153686D01*
X138317662Y-106168371D01*
X138336520Y-106181852D01*
X138387432Y-106230799D01*
X138415082Y-106286256D01*
X138423835Y-106355928D01*
X138415110Y-106435664D01*
X138383815Y-106504595D01*
X138328619Y-106559113D01*
X138322776Y-106563223D01*
X138307247Y-106572808D01*
X138289502Y-106580151D01*
X138265710Y-106585612D01*
X138232042Y-106589550D01*
X138184667Y-106592323D01*
X138119755Y-106594292D01*
X138106397Y-106594528D01*
X138033476Y-106595815D01*
G36*
X138206820Y-102101101D02*
G01*
X138280114Y-102102216D01*
X138338150Y-102103952D01*
X138376337Y-102106167D01*
X138390086Y-102108721D01*
X138390049Y-102109256D01*
X138383207Y-102127808D01*
X138368132Y-102159153D01*
X138346178Y-102201608D01*
X138117760Y-102205604D01*
X137889343Y-102209600D01*
X137889343Y-102296686D01*
X138139714Y-102300657D01*
X138207773Y-102301916D01*
X138280518Y-102303718D01*
X138338270Y-102305671D01*
X138376352Y-102307612D01*
X138390086Y-102309377D01*
X138390038Y-102309885D01*
X138384985Y-102327482D01*
X138374151Y-102359834D01*
X138358217Y-102405543D01*
X138138294Y-102405765D01*
X138100091Y-102405988D01*
X138025854Y-102407531D01*
X137963855Y-102410292D01*
X137919692Y-102413977D01*
X137898959Y-102418292D01*
X137887869Y-102433732D01*
X137884444Y-102465241D01*
X137889343Y-102499886D01*
X138139714Y-102503857D01*
X138203337Y-102505278D01*
X138278644Y-102508225D01*
X138337714Y-102512079D01*
X138376282Y-102516542D01*
X138390086Y-102521317D01*
X138385718Y-102539941D01*
X138373242Y-102571774D01*
X138356398Y-102608743D01*
X137869804Y-102608743D01*
X137823873Y-102562812D01*
X137813573Y-102552320D01*
X137790680Y-102523255D01*
X137783265Y-102493943D01*
X137786679Y-102450326D01*
X137788886Y-102432568D01*
X137793555Y-102386767D01*
X137795415Y-102354743D01*
X137795131Y-102345244D01*
X137792052Y-102306274D01*
X137786679Y-102259160D01*
X137784832Y-102244085D01*
X137784107Y-102206110D01*
X137795571Y-102178325D01*
X137823873Y-102146674D01*
X137869804Y-102100743D01*
X138129945Y-102100743D01*
X138206820Y-102101101D01*
G37*
X138206820Y-102101101D02*
X138280114Y-102102216D01*
X138338150Y-102103952D01*
X138376337Y-102106167D01*
X138390086Y-102108721D01*
X138390049Y-102109256D01*
X138383207Y-102127808D01*
X138368132Y-102159153D01*
X138346178Y-102201608D01*
X138117760Y-102205604D01*
X137889343Y-102209600D01*
X137889343Y-102296686D01*
X138139714Y-102300657D01*
X138207773Y-102301916D01*
X138280518Y-102303718D01*
X138338270Y-102305671D01*
X138376352Y-102307612D01*
X138390086Y-102309377D01*
X138390038Y-102309885D01*
X138384985Y-102327482D01*
X138374151Y-102359834D01*
X138358217Y-102405543D01*
X138138294Y-102405765D01*
X138100091Y-102405988D01*
X138025854Y-102407531D01*
X137963855Y-102410292D01*
X137919692Y-102413977D01*
X137898959Y-102418292D01*
X137887869Y-102433732D01*
X137884444Y-102465241D01*
X137889343Y-102499886D01*
X138139714Y-102503857D01*
X138203337Y-102505278D01*
X138278644Y-102508225D01*
X138337714Y-102512079D01*
X138376282Y-102516542D01*
X138390086Y-102521317D01*
X138385718Y-102539941D01*
X138373242Y-102571774D01*
X138356398Y-102608743D01*
X137869804Y-102608743D01*
X137823873Y-102562812D01*
X137813573Y-102552320D01*
X137790680Y-102523255D01*
X137783265Y-102493943D01*
X137786679Y-102450326D01*
X137788886Y-102432568D01*
X137793555Y-102386767D01*
X137795415Y-102354743D01*
X137795131Y-102345244D01*
X137792052Y-102306274D01*
X137786679Y-102259160D01*
X137784832Y-102244085D01*
X137784107Y-102206110D01*
X137795571Y-102178325D01*
X137823873Y-102146674D01*
X137869804Y-102100743D01*
X138129945Y-102100743D01*
X138206820Y-102101101D01*
G36*
X138017763Y-104190823D02*
G01*
X138036049Y-104190857D01*
X138131374Y-104192778D01*
X138203457Y-104198678D01*
X138257187Y-104210001D01*
X138297451Y-104228187D01*
X138329139Y-104254679D01*
X138357139Y-104290918D01*
X138374667Y-104326263D01*
X138388215Y-104382773D01*
X138388985Y-104438356D01*
X138375805Y-104481086D01*
X138373985Y-104484298D01*
X138374180Y-104494205D01*
X138389428Y-104500975D01*
X138424387Y-104505861D01*
X138483711Y-104510114D01*
X138605453Y-104517371D01*
X138585556Y-104564543D01*
X138565658Y-104611714D01*
X138168491Y-104611714D01*
X138065502Y-104611519D01*
X137972859Y-104610998D01*
X137894300Y-104610199D01*
X137833561Y-104609172D01*
X137794377Y-104607963D01*
X137780486Y-104606623D01*
X137780532Y-104606099D01*
X137785580Y-104588287D01*
X137796420Y-104555823D01*
X137812354Y-104510114D01*
X138016827Y-104510114D01*
X138097168Y-104509824D01*
X138155438Y-104508474D01*
X138195091Y-104505369D01*
X138221382Y-104499812D01*
X138239564Y-104491107D01*
X138254893Y-104478556D01*
X138263045Y-104469999D01*
X138285625Y-104423728D01*
X138283625Y-104372728D01*
X138256927Y-104325993D01*
X138250302Y-104319189D01*
X138236544Y-104308293D01*
X138218358Y-104300836D01*
X138190823Y-104296169D01*
X138149019Y-104293642D01*
X138088027Y-104292602D01*
X138002927Y-104292400D01*
X137959766Y-104292303D01*
X137888776Y-104291674D01*
X137831924Y-104290556D01*
X137794172Y-104289063D01*
X137780486Y-104287309D01*
X137780532Y-104286785D01*
X137785580Y-104268973D01*
X137796420Y-104236509D01*
X137812354Y-104190800D01*
X138017763Y-104190823D01*
G37*
X138017763Y-104190823D02*
X138036049Y-104190857D01*
X138131374Y-104192778D01*
X138203457Y-104198678D01*
X138257187Y-104210001D01*
X138297451Y-104228187D01*
X138329139Y-104254679D01*
X138357139Y-104290918D01*
X138374667Y-104326263D01*
X138388215Y-104382773D01*
X138388985Y-104438356D01*
X138375805Y-104481086D01*
X138373985Y-104484298D01*
X138374180Y-104494205D01*
X138389428Y-104500975D01*
X138424387Y-104505861D01*
X138483711Y-104510114D01*
X138605453Y-104517371D01*
X138585556Y-104564543D01*
X138565658Y-104611714D01*
X138168491Y-104611714D01*
X138065502Y-104611519D01*
X137972859Y-104610998D01*
X137894300Y-104610199D01*
X137833561Y-104609172D01*
X137794377Y-104607963D01*
X137780486Y-104606623D01*
X137780532Y-104606099D01*
X137785580Y-104588287D01*
X137796420Y-104555823D01*
X137812354Y-104510114D01*
X138016827Y-104510114D01*
X138097168Y-104509824D01*
X138155438Y-104508474D01*
X138195091Y-104505369D01*
X138221382Y-104499812D01*
X138239564Y-104491107D01*
X138254893Y-104478556D01*
X138263045Y-104469999D01*
X138285625Y-104423728D01*
X138283625Y-104372728D01*
X138256927Y-104325993D01*
X138250302Y-104319189D01*
X138236544Y-104308293D01*
X138218358Y-104300836D01*
X138190823Y-104296169D01*
X138149019Y-104293642D01*
X138088027Y-104292602D01*
X138002927Y-104292400D01*
X137959766Y-104292303D01*
X137888776Y-104291674D01*
X137831924Y-104290556D01*
X137794172Y-104289063D01*
X137780486Y-104287309D01*
X137780532Y-104286785D01*
X137785580Y-104268973D01*
X137796420Y-104236509D01*
X137812354Y-104190800D01*
X138017763Y-104190823D01*
G36*
X138101289Y-105032884D02*
G01*
X138184108Y-105035086D01*
X138245773Y-105040661D01*
X138291252Y-105050941D01*
X138325516Y-105067258D01*
X138353534Y-105090943D01*
X138380277Y-105123328D01*
X138407220Y-105169907D01*
X138424809Y-105243287D01*
X138417178Y-105317020D01*
X138385320Y-105384810D01*
X138330230Y-105440366D01*
X138312984Y-105451881D01*
X138293438Y-105461432D01*
X138268802Y-105468206D01*
X138234289Y-105472819D01*
X138185111Y-105475888D01*
X138116481Y-105478029D01*
X138023611Y-105479859D01*
X137765993Y-105484404D01*
X137780509Y-105446225D01*
X137793844Y-105411268D01*
X137806677Y-105385097D01*
X137823220Y-105368013D01*
X137848535Y-105358086D01*
X137887684Y-105353386D01*
X137945732Y-105351982D01*
X138027739Y-105351943D01*
X138093105Y-105351744D01*
X138155827Y-105350559D01*
X138198666Y-105347729D01*
X138226780Y-105342609D01*
X138245325Y-105334553D01*
X138259457Y-105322914D01*
X138279400Y-105294303D01*
X138286917Y-105246239D01*
X138267921Y-105198688D01*
X138265489Y-105195550D01*
X138254252Y-105185769D01*
X138236230Y-105178553D01*
X138206974Y-105173299D01*
X138162038Y-105169402D01*
X138096972Y-105166256D01*
X138007330Y-105163257D01*
X137767303Y-105156000D01*
X137794956Y-105094314D01*
X137822609Y-105032629D01*
X138041754Y-105032629D01*
X138101289Y-105032884D01*
G37*
X138101289Y-105032884D02*
X138184108Y-105035086D01*
X138245773Y-105040661D01*
X138291252Y-105050941D01*
X138325516Y-105067258D01*
X138353534Y-105090943D01*
X138380277Y-105123328D01*
X138407220Y-105169907D01*
X138424809Y-105243287D01*
X138417178Y-105317020D01*
X138385320Y-105384810D01*
X138330230Y-105440366D01*
X138312984Y-105451881D01*
X138293438Y-105461432D01*
X138268802Y-105468206D01*
X138234289Y-105472819D01*
X138185111Y-105475888D01*
X138116481Y-105478029D01*
X138023611Y-105479859D01*
X137765993Y-105484404D01*
X137780509Y-105446225D01*
X137793844Y-105411268D01*
X137806677Y-105385097D01*
X137823220Y-105368013D01*
X137848535Y-105358086D01*
X137887684Y-105353386D01*
X137945732Y-105351982D01*
X138027739Y-105351943D01*
X138093105Y-105351744D01*
X138155827Y-105350559D01*
X138198666Y-105347729D01*
X138226780Y-105342609D01*
X138245325Y-105334553D01*
X138259457Y-105322914D01*
X138279400Y-105294303D01*
X138286917Y-105246239D01*
X138267921Y-105198688D01*
X138265489Y-105195550D01*
X138254252Y-105185769D01*
X138236230Y-105178553D01*
X138206974Y-105173299D01*
X138162038Y-105169402D01*
X138096972Y-105166256D01*
X138007330Y-105163257D01*
X137767303Y-105156000D01*
X137794956Y-105094314D01*
X137822609Y-105032629D01*
X138041754Y-105032629D01*
X138101289Y-105032884D01*
G36*
X138099800Y-107151714D02*
G01*
X138084065Y-107151701D01*
X138013881Y-107150914D01*
X137964978Y-107148210D01*
X137930822Y-107142606D01*
X137904876Y-107133119D01*
X137880603Y-107118768D01*
X137875567Y-107115237D01*
X137835857Y-107077878D01*
X137805908Y-107035311D01*
X137796190Y-107013452D01*
X137781612Y-106942814D01*
X137915320Y-106942814D01*
X137940143Y-106977543D01*
X137946675Y-106983584D01*
X137966221Y-106995417D01*
X137994614Y-107002404D01*
X138038570Y-107005727D01*
X138104808Y-107006571D01*
X138166850Y-107005125D01*
X138225958Y-106997907D01*
X138263314Y-106983006D01*
X138282848Y-106958636D01*
X138288486Y-106923008D01*
X138287365Y-106909440D01*
X138266806Y-106871430D01*
X138220701Y-106846312D01*
X138149487Y-106834248D01*
X138053601Y-106835402D01*
X138047431Y-106835866D01*
X137994522Y-106842629D01*
X137960971Y-106854671D01*
X137937984Y-106875005D01*
X137916452Y-106909097D01*
X137915320Y-106942814D01*
X137781612Y-106942814D01*
X137779980Y-106934908D01*
X137790465Y-106857231D01*
X137826293Y-106785645D01*
X137886113Y-106725374D01*
X137894127Y-106720286D01*
X137940658Y-106703730D01*
X138005448Y-106692573D01*
X138080273Y-106687160D01*
X138156904Y-106687833D01*
X138227118Y-106694937D01*
X138282688Y-106708815D01*
X138319699Y-106726649D01*
X138377267Y-106776855D01*
X138413038Y-106844885D01*
X138425335Y-106928158D01*
X138424669Y-106950398D01*
X138411053Y-107015891D01*
X138376751Y-107069687D01*
X138317662Y-107119057D01*
X138313278Y-107121995D01*
X138289701Y-107135287D01*
X138263051Y-107143932D01*
X138226841Y-107148904D01*
X138174587Y-107151174D01*
X138104808Y-107151678D01*
X138099800Y-107151714D01*
G37*
X138099800Y-107151714D02*
X138084065Y-107151701D01*
X138013881Y-107150914D01*
X137964978Y-107148210D01*
X137930822Y-107142606D01*
X137904876Y-107133119D01*
X137880603Y-107118768D01*
X137875567Y-107115237D01*
X137835857Y-107077878D01*
X137805908Y-107035311D01*
X137796190Y-107013452D01*
X137781612Y-106942814D01*
X137915320Y-106942814D01*
X137940143Y-106977543D01*
X137946675Y-106983584D01*
X137966221Y-106995417D01*
X137994614Y-107002404D01*
X138038570Y-107005727D01*
X138104808Y-107006571D01*
X138166850Y-107005125D01*
X138225958Y-106997907D01*
X138263314Y-106983006D01*
X138282848Y-106958636D01*
X138288486Y-106923008D01*
X138287365Y-106909440D01*
X138266806Y-106871430D01*
X138220701Y-106846312D01*
X138149487Y-106834248D01*
X138053601Y-106835402D01*
X138047431Y-106835866D01*
X137994522Y-106842629D01*
X137960971Y-106854671D01*
X137937984Y-106875005D01*
X137916452Y-106909097D01*
X137915320Y-106942814D01*
X137781612Y-106942814D01*
X137779980Y-106934908D01*
X137790465Y-106857231D01*
X137826293Y-106785645D01*
X137886113Y-106725374D01*
X137894127Y-106720286D01*
X137940658Y-106703730D01*
X138005448Y-106692573D01*
X138080273Y-106687160D01*
X138156904Y-106687833D01*
X138227118Y-106694937D01*
X138282688Y-106708815D01*
X138319699Y-106726649D01*
X138377267Y-106776855D01*
X138413038Y-106844885D01*
X138425335Y-106928158D01*
X138424669Y-106950398D01*
X138411053Y-107015891D01*
X138376751Y-107069687D01*
X138317662Y-107119057D01*
X138313278Y-107121995D01*
X138289701Y-107135287D01*
X138263051Y-107143932D01*
X138226841Y-107148904D01*
X138174587Y-107151174D01*
X138104808Y-107151678D01*
X138099800Y-107151714D01*
G36*
X138031922Y-103685371D02*
G01*
X138045568Y-103685736D01*
X138141349Y-103689904D01*
X138213538Y-103697268D01*
X138266942Y-103709330D01*
X138306367Y-103727593D01*
X138336620Y-103753560D01*
X138362507Y-103788733D01*
X138362913Y-103789384D01*
X138384032Y-103846256D01*
X138387600Y-103912033D01*
X138374431Y-103975483D01*
X138345339Y-104025376D01*
X138322673Y-104047325D01*
X138254918Y-104089504D01*
X138181050Y-104103714D01*
X138130230Y-104103714D01*
X138149872Y-104056999D01*
X138169692Y-104024692D01*
X138210840Y-103999231D01*
X138219325Y-103996616D01*
X138262549Y-103968478D01*
X138285897Y-103926067D01*
X138286900Y-103877370D01*
X138263086Y-103830373D01*
X138256944Y-103823357D01*
X138230255Y-103799893D01*
X138206986Y-103796019D01*
X138184138Y-103813768D01*
X138158713Y-103855179D01*
X138127712Y-103922286D01*
X138125748Y-103926824D01*
X138091010Y-104001322D01*
X138060237Y-104052203D01*
X138029512Y-104083525D01*
X137994918Y-104099343D01*
X137952538Y-104103714D01*
X137905554Y-104097986D01*
X137845415Y-104069062D01*
X137802212Y-104018178D01*
X137789241Y-103981374D01*
X137782144Y-103929434D01*
X137783660Y-103878999D01*
X137794368Y-103842983D01*
X137797034Y-103839158D01*
X137815663Y-103828998D01*
X137848495Y-103836048D01*
X137874265Y-103848297D01*
X137884994Y-103867939D01*
X137884461Y-103905191D01*
X137887538Y-103956908D01*
X137908788Y-103990701D01*
X137948123Y-104002114D01*
X137949253Y-104002104D01*
X137972087Y-103995187D01*
X137993037Y-103971659D01*
X138017185Y-103925914D01*
X138046259Y-103863704D01*
X138062075Y-103822499D01*
X138061056Y-103798712D01*
X138040163Y-103787597D01*
X137996359Y-103784408D01*
X137926607Y-103784400D01*
X137883548Y-103784044D01*
X137830374Y-103782413D01*
X137793978Y-103779761D01*
X137780486Y-103776422D01*
X137780577Y-103775530D01*
X137787890Y-103756237D01*
X137803322Y-103724284D01*
X137826158Y-103680124D01*
X138031922Y-103685371D01*
G37*
X138031922Y-103685371D02*
X138045568Y-103685736D01*
X138141349Y-103689904D01*
X138213538Y-103697268D01*
X138266942Y-103709330D01*
X138306367Y-103727593D01*
X138336620Y-103753560D01*
X138362507Y-103788733D01*
X138362913Y-103789384D01*
X138384032Y-103846256D01*
X138387600Y-103912033D01*
X138374431Y-103975483D01*
X138345339Y-104025376D01*
X138322673Y-104047325D01*
X138254918Y-104089504D01*
X138181050Y-104103714D01*
X138130230Y-104103714D01*
X138149872Y-104056999D01*
X138169692Y-104024692D01*
X138210840Y-103999231D01*
X138219325Y-103996616D01*
X138262549Y-103968478D01*
X138285897Y-103926067D01*
X138286900Y-103877370D01*
X138263086Y-103830373D01*
X138256944Y-103823357D01*
X138230255Y-103799893D01*
X138206986Y-103796019D01*
X138184138Y-103813768D01*
X138158713Y-103855179D01*
X138127712Y-103922286D01*
X138125748Y-103926824D01*
X138091010Y-104001322D01*
X138060237Y-104052203D01*
X138029512Y-104083525D01*
X137994918Y-104099343D01*
X137952538Y-104103714D01*
X137905554Y-104097986D01*
X137845415Y-104069062D01*
X137802212Y-104018178D01*
X137789241Y-103981374D01*
X137782144Y-103929434D01*
X137783660Y-103878999D01*
X137794368Y-103842983D01*
X137797034Y-103839158D01*
X137815663Y-103828998D01*
X137848495Y-103836048D01*
X137874265Y-103848297D01*
X137884994Y-103867939D01*
X137884461Y-103905191D01*
X137887538Y-103956908D01*
X137908788Y-103990701D01*
X137948123Y-104002114D01*
X137949253Y-104002104D01*
X137972087Y-103995187D01*
X137993037Y-103971659D01*
X138017185Y-103925914D01*
X138046259Y-103863704D01*
X138062075Y-103822499D01*
X138061056Y-103798712D01*
X138040163Y-103787597D01*
X137996359Y-103784408D01*
X137926607Y-103784400D01*
X137883548Y-103784044D01*
X137830374Y-103782413D01*
X137793978Y-103779761D01*
X137780486Y-103776422D01*
X137780577Y-103775530D01*
X137787890Y-103756237D01*
X137803322Y-103724284D01*
X137826158Y-103680124D01*
X138031922Y-103685371D01*
G36*
X138287591Y-103215836D02*
G01*
X138317883Y-103236727D01*
X138360916Y-103290142D01*
X138385245Y-103356074D01*
X138388557Y-103426574D01*
X138368533Y-103493691D01*
X138365997Y-103498273D01*
X138336943Y-103535704D01*
X138299590Y-103569170D01*
X138291148Y-103575007D01*
X138271447Y-103586165D01*
X138248065Y-103594136D01*
X138215933Y-103599618D01*
X138169981Y-103603307D01*
X138105141Y-103605899D01*
X138016343Y-103608092D01*
X138001331Y-103608402D01*
X137904001Y-103609400D01*
X137835066Y-103607994D01*
X137794052Y-103604164D01*
X137780486Y-103597889D01*
X137784548Y-103578898D01*
X137796856Y-103546638D01*
X137800455Y-103539041D01*
X137808602Y-103527176D01*
X137821996Y-103518994D01*
X137845392Y-103513643D01*
X137883545Y-103510269D01*
X137941210Y-103508019D01*
X138023143Y-103506040D01*
X138047093Y-103505498D01*
X138122734Y-103503403D01*
X138175672Y-103500683D01*
X138210925Y-103496515D01*
X138233513Y-103490079D01*
X138248456Y-103480550D01*
X138260773Y-103467106D01*
X138282366Y-103427305D01*
X138286524Y-103378341D01*
X138270001Y-103334529D01*
X138235790Y-103303008D01*
X138186886Y-103290914D01*
X138173593Y-103290578D01*
X138149528Y-103283972D01*
X138145856Y-103264470D01*
X138160187Y-103226283D01*
X138164783Y-103217438D01*
X138191814Y-103193534D01*
X138232006Y-103193061D01*
X138287591Y-103215836D01*
G37*
X138287591Y-103215836D02*
X138317883Y-103236727D01*
X138360916Y-103290142D01*
X138385245Y-103356074D01*
X138388557Y-103426574D01*
X138368533Y-103493691D01*
X138365997Y-103498273D01*
X138336943Y-103535704D01*
X138299590Y-103569170D01*
X138291148Y-103575007D01*
X138271447Y-103586165D01*
X138248065Y-103594136D01*
X138215933Y-103599618D01*
X138169981Y-103603307D01*
X138105141Y-103605899D01*
X138016343Y-103608092D01*
X138001331Y-103608402D01*
X137904001Y-103609400D01*
X137835066Y-103607994D01*
X137794052Y-103604164D01*
X137780486Y-103597889D01*
X137784548Y-103578898D01*
X137796856Y-103546638D01*
X137800455Y-103539041D01*
X137808602Y-103527176D01*
X137821996Y-103518994D01*
X137845392Y-103513643D01*
X137883545Y-103510269D01*
X137941210Y-103508019D01*
X138023143Y-103506040D01*
X138047093Y-103505498D01*
X138122734Y-103503403D01*
X138175672Y-103500683D01*
X138210925Y-103496515D01*
X138233513Y-103490079D01*
X138248456Y-103480550D01*
X138260773Y-103467106D01*
X138282366Y-103427305D01*
X138286524Y-103378341D01*
X138270001Y-103334529D01*
X138235790Y-103303008D01*
X138186886Y-103290914D01*
X138173593Y-103290578D01*
X138149528Y-103283972D01*
X138145856Y-103264470D01*
X138160187Y-103226283D01*
X138164783Y-103217438D01*
X138191814Y-103193534D01*
X138232006Y-103193061D01*
X138287591Y-103215836D01*
G36*
X138085286Y-103116698D02*
G01*
X138028687Y-103115537D01*
X137951538Y-103107345D01*
X137893724Y-103089519D01*
X137849578Y-103059975D01*
X137813432Y-103016625D01*
X137792537Y-102975332D01*
X137780910Y-102905987D01*
X137785258Y-102882299D01*
X137885581Y-102882299D01*
X137888110Y-102932635D01*
X137917712Y-102979517D01*
X137933047Y-102993477D01*
X137953378Y-103005160D01*
X137981486Y-103011686D01*
X138024450Y-103014524D01*
X138089353Y-103015143D01*
X138138878Y-103014837D01*
X138187218Y-103012722D01*
X138218413Y-103007390D01*
X138239353Y-102997460D01*
X138256927Y-102981550D01*
X138264841Y-102972204D01*
X138286157Y-102923776D01*
X138282802Y-102873040D01*
X138254893Y-102828987D01*
X138243827Y-102819504D01*
X138222991Y-102807939D01*
X138193894Y-102801252D01*
X138149619Y-102798173D01*
X138083252Y-102797429D01*
X138030423Y-102797772D01*
X137982638Y-102799942D01*
X137951791Y-102805307D01*
X137931065Y-102815217D01*
X137913644Y-102831021D01*
X137910295Y-102834724D01*
X137885581Y-102882299D01*
X137785258Y-102882299D01*
X137793623Y-102836736D01*
X137829055Y-102774145D01*
X137885582Y-102724779D01*
X137896005Y-102718818D01*
X137914267Y-102710945D01*
X137937571Y-102705106D01*
X137969915Y-102700999D01*
X138015296Y-102698325D01*
X138077713Y-102696781D01*
X138161163Y-102696067D01*
X138269642Y-102695883D01*
X138606399Y-102695829D01*
X138586638Y-102743000D01*
X138581230Y-102755472D01*
X138569015Y-102775324D01*
X138550518Y-102786687D01*
X138518171Y-102792933D01*
X138464407Y-102797429D01*
X138416134Y-102801535D01*
X138384443Y-102806963D01*
X138372617Y-102814739D01*
X138375788Y-102826457D01*
X138386933Y-102856318D01*
X138389696Y-102909684D01*
X138379375Y-102967093D01*
X138357139Y-103016625D01*
X138336557Y-103043876D01*
X138296400Y-103078865D01*
X138244914Y-103101274D01*
X138176432Y-103113190D01*
X138089353Y-103116542D01*
X138085286Y-103116698D01*
G37*
X138085286Y-103116698D02*
X138028687Y-103115537D01*
X137951538Y-103107345D01*
X137893724Y-103089519D01*
X137849578Y-103059975D01*
X137813432Y-103016625D01*
X137792537Y-102975332D01*
X137780910Y-102905987D01*
X137785258Y-102882299D01*
X137885581Y-102882299D01*
X137888110Y-102932635D01*
X137917712Y-102979517D01*
X137933047Y-102993477D01*
X137953378Y-103005160D01*
X137981486Y-103011686D01*
X138024450Y-103014524D01*
X138089353Y-103015143D01*
X138138878Y-103014837D01*
X138187218Y-103012722D01*
X138218413Y-103007390D01*
X138239353Y-102997460D01*
X138256927Y-102981550D01*
X138264841Y-102972204D01*
X138286157Y-102923776D01*
X138282802Y-102873040D01*
X138254893Y-102828987D01*
X138243827Y-102819504D01*
X138222991Y-102807939D01*
X138193894Y-102801252D01*
X138149619Y-102798173D01*
X138083252Y-102797429D01*
X138030423Y-102797772D01*
X137982638Y-102799942D01*
X137951791Y-102805307D01*
X137931065Y-102815217D01*
X137913644Y-102831021D01*
X137910295Y-102834724D01*
X137885581Y-102882299D01*
X137785258Y-102882299D01*
X137793623Y-102836736D01*
X137829055Y-102774145D01*
X137885582Y-102724779D01*
X137896005Y-102718818D01*
X137914267Y-102710945D01*
X137937571Y-102705106D01*
X137969915Y-102700999D01*
X138015296Y-102698325D01*
X138077713Y-102696781D01*
X138161163Y-102696067D01*
X138269642Y-102695883D01*
X138606399Y-102695829D01*
X138586638Y-102743000D01*
X138581230Y-102755472D01*
X138569015Y-102775324D01*
X138550518Y-102786687D01*
X138518171Y-102792933D01*
X138464407Y-102797429D01*
X138416134Y-102801535D01*
X138384443Y-102806963D01*
X138372617Y-102814739D01*
X138375788Y-102826457D01*
X138386933Y-102856318D01*
X138389696Y-102909684D01*
X138379375Y-102967093D01*
X138357139Y-103016625D01*
X138336557Y-103043876D01*
X138296400Y-103078865D01*
X138244914Y-103101274D01*
X138176432Y-103113190D01*
X138089353Y-103116542D01*
X138085286Y-103116698D01*
G36*
X138237849Y-101117336D02*
G01*
X138288453Y-101139235D01*
X138335872Y-101174644D01*
X138368666Y-101216052D01*
X138376248Y-101233400D01*
X138388924Y-101299089D01*
X138383903Y-101368829D01*
X138361645Y-101428753D01*
X138344920Y-101453673D01*
X138320957Y-101478910D01*
X138290474Y-101496912D01*
X138248977Y-101508858D01*
X138191968Y-101515930D01*
X138114953Y-101519308D01*
X138013435Y-101520171D01*
X137960973Y-101520002D01*
X137889285Y-101519153D01*
X137832075Y-101517711D01*
X137794191Y-101515814D01*
X137780486Y-101513597D01*
X137785019Y-101499172D01*
X137797330Y-101470054D01*
X137797728Y-101469181D01*
X137805644Y-101454060D01*
X137816505Y-101443891D01*
X137835529Y-101437691D01*
X137867931Y-101434478D01*
X137918929Y-101433270D01*
X137993739Y-101433086D01*
X138041196Y-101432714D01*
X138130385Y-101428750D01*
X138195713Y-101419673D01*
X138240607Y-101404524D01*
X138268493Y-101382345D01*
X138282797Y-101352175D01*
X138283794Y-101347990D01*
X138284573Y-101291480D01*
X138259256Y-101247410D01*
X138208498Y-101216972D01*
X138193825Y-101211544D01*
X138161351Y-101199171D01*
X138146428Y-101192905D01*
X138148484Y-101180036D01*
X138159643Y-101151933D01*
X138178073Y-101125721D01*
X138212902Y-101113771D01*
X138237849Y-101117336D01*
G37*
X138237849Y-101117336D02*
X138288453Y-101139235D01*
X138335872Y-101174644D01*
X138368666Y-101216052D01*
X138376248Y-101233400D01*
X138388924Y-101299089D01*
X138383903Y-101368829D01*
X138361645Y-101428753D01*
X138344920Y-101453673D01*
X138320957Y-101478910D01*
X138290474Y-101496912D01*
X138248977Y-101508858D01*
X138191968Y-101515930D01*
X138114953Y-101519308D01*
X138013435Y-101520171D01*
X137960973Y-101520002D01*
X137889285Y-101519153D01*
X137832075Y-101517711D01*
X137794191Y-101515814D01*
X137780486Y-101513597D01*
X137785019Y-101499172D01*
X137797330Y-101470054D01*
X137797728Y-101469181D01*
X137805644Y-101454060D01*
X137816505Y-101443891D01*
X137835529Y-101437691D01*
X137867931Y-101434478D01*
X137918929Y-101433270D01*
X137993739Y-101433086D01*
X138041196Y-101432714D01*
X138130385Y-101428750D01*
X138195713Y-101419673D01*
X138240607Y-101404524D01*
X138268493Y-101382345D01*
X138282797Y-101352175D01*
X138283794Y-101347990D01*
X138284573Y-101291480D01*
X138259256Y-101247410D01*
X138208498Y-101216972D01*
X138193825Y-101211544D01*
X138161351Y-101199171D01*
X138146428Y-101192905D01*
X138148484Y-101180036D01*
X138159643Y-101151933D01*
X138178073Y-101125721D01*
X138212902Y-101113771D01*
X138237849Y-101117336D01*
D13*
X161178000Y-106584000D02*
X163078000Y-106584000D01*
X163078000Y-106584000D02*
X163078000Y-104684000D01*
X161178000Y-104684000D02*
X161178000Y-106584000D01*
X163078000Y-104684000D02*
X161178000Y-104684000D01*
X161178000Y-101504000D02*
X163078000Y-101504000D01*
X161178000Y-99604000D02*
X161178000Y-101504000D01*
X163078000Y-99604000D02*
X161178000Y-99604000D01*
X163078000Y-101504000D02*
X163078000Y-99604000D01*
X163078000Y-107224000D02*
X161178000Y-107224000D01*
X161178000Y-107224000D02*
X161178000Y-109124000D01*
X163078000Y-109124000D02*
X163078000Y-107224000D01*
X161178000Y-109124000D02*
X163078000Y-109124000D01*
X161178000Y-104044000D02*
X163078000Y-104044000D01*
X163078000Y-102144000D02*
X161178000Y-102144000D01*
X163078000Y-104044000D02*
X163078000Y-102144000D01*
X161178000Y-102144000D02*
X161178000Y-104044000D01*
X161178000Y-97063600D02*
X161178000Y-98963600D01*
X163078000Y-98963600D02*
X163078000Y-97063600D01*
X163078000Y-97063600D02*
X161178000Y-97063600D01*
X161178000Y-98963600D02*
X163078000Y-98963600D01*
X134635000Y-96428600D02*
X134635000Y-98328600D01*
X136535000Y-96428600D02*
X134635000Y-96428600D01*
X134635000Y-98328600D02*
X136535000Y-98328600D01*
X136535000Y-98328600D02*
X136535000Y-96428600D01*
X136535000Y-111283000D02*
X136535000Y-109383000D01*
X134635000Y-109383000D02*
X134635000Y-111283000D01*
X134635000Y-111283000D02*
X136535000Y-111283000D01*
X136535000Y-109383000D02*
X134635000Y-109383000D01*
M02*
